<?xml version="1.0" encoding="UTF-8"?><svg xmlns="http://www.w3.org/2000/svg" viewBox="0 0 602.9 255.7"><defs><style>.cls-1{letter-spacing:0em;}.cls-2{letter-spacing:0em;}.cls-3{letter-spacing:0em;}.cls-4{letter-spacing:0em;}.cls-5,.cls-6{fill:#1d1d1b;}.cls-7{letter-spacing:0em;}.cls-8{letter-spacing:0em;}.cls-9{letter-spacing:0em;}.cls-10{letter-spacing:0em;}.cls-11{stroke-width:.2px;}.cls-11,.cls-12{fill:none;stroke:#1d1d1b;}.cls-13{letter-spacing:0em;}.cls-14{letter-spacing:0em;}.cls-15{letter-spacing:0em;}.cls-16{letter-spacing:0em;}.cls-17{letter-spacing:0em;}.cls-18{letter-spacing:0em;}.cls-19{letter-spacing:0em;}.cls-20{letter-spacing:0em;}.cls-21{letter-spacing:0em;}.cls-22{fill:#b82126;}.cls-22,.cls-23,.cls-6{font-family:SourceSansPro-Regular, 'Source Sans Pro';font-size:12px;}.cls-23{fill:#005088;}.cls-24{letter-spacing:0em;}.cls-25{letter-spacing:0em;}</style></defs><g id="Zeichnen"><g><rect class="cls-11" x="200.4" y="38.1" width="161.4" height="22.2"/><rect class="cls-11" x="201.5" y="103" width="161.4" height="22.2"/><rect class="cls-11" x="66.4" y="167.8" width="161.4" height="22.2"/><rect class="cls-11" x=".1" y="68.3" width="161.4" height="22.2"/><rect class="cls-11" x="329.3" y="167.7" width="161.4" height="22.2"/><rect class="cls-11" x="328.1" y="233.4" width="161.4" height="22.2"/><g><line class="cls-12" x1="497.9" y1="244.6" x2="520.6" y2="244.6"/><polygon class="cls-5" points="527.7 244.6 517.7 248.7 520.1 244.6 517.7 240.6 527.7 244.6"/></g><g><line class="cls-12" x1="155.6" y1="63.9" x2="185" y2="51.8"/><polygon class="cls-5" points="191.5 49.1 183.9 56.6 184.5 52 180.8 49.1 191.5 49.1"/></g><g><line class="cls-12" x1="101.2" y1="161.6" x2="101.2" y2="109.6"/><polygon class="cls-5" points="101.2 102.5 105.2 112.5 101.2 110.1 97.1 112.5 101.2 102.5"/></g><g><line class="cls-12" x1="371.4" y1="125.6" x2="405.3" y2="158"/><polygon class="cls-5" points="410.4 162.9 400.4 159 405 157.7 406.1 153.1 410.4 162.9"/></g><g><line class="cls-12" x1="191.5" y1="124.7" x2="148.7" y2="157.3"/><polygon class="cls-5" points="143.1 161.5 148.6 152.3 149.1 157 153.5 158.8 143.1 161.5"/></g><g><line class="cls-12" x1="410.4" y1="196.5" x2="410.4" y2="219.2"/><polygon class="cls-5" points="410.4 226.3 406.4 216.3 410.4 218.7 414.5 216.3 410.4 226.3"/></g><g><line class="cls-12" x1="280.3" y1="0" x2="280.3" y2="22.7"/><polygon class="cls-5" points="280.3 29.7 276.2 19.8 280.3 22.2 284.4 19.8 280.3 29.7"/></g><g><line class="cls-12" x1="281.7" y1="66.5" x2="281.7" y2="89.1"/><polygon class="cls-5" points="281.7 96.2 277.6 86.3 281.7 88.6 285.8 86.3 281.7 96.2"/></g></g><g><rect class="cls-11" x="200.4" y="38.1" width="161.4" height="22.2"/><rect class="cls-11" x="201.5" y="103" width="161.4" height="22.2"/><rect class="cls-11" x="66.4" y="167.8" width="161.4" height="22.2"/><rect class="cls-11" x=".1" y="68.3" width="161.4" height="22.2"/><rect class="cls-11" x="329.3" y="167.7" width="161.4" height="22.2"/><rect class="cls-11" x="328.1" y="233.4" width="161.4" height="22.2"/><g><line class="cls-11" x1="497.9" y1="244.6" x2="527.7" y2="244.6"/><g><line class="cls-11" x1="497.9" y1="244.6" x2="520.6" y2="244.6"/><polygon class="cls-11" points="527.7 244.6 517.7 248.7 520.1 244.6 517.7 240.6 527.7 244.6"/></g></g><g><line class="cls-11" x1="155.6" y1="63.9" x2="191.5" y2="49.1"/><g><line class="cls-11" x1="155.6" y1="63.9" x2="185" y2="51.8"/><polygon class="cls-11" points="191.5 49.1 183.9 56.6 184.5 52 180.8 49.1 191.5 49.1"/></g></g><g><line class="cls-11" x1="101.2" y1="161.6" x2="101.2" y2="102.5"/><g><line class="cls-11" x1="101.2" y1="161.6" x2="101.2" y2="109.6"/><polygon class="cls-11" points="101.2 102.5 105.2 112.5 101.2 110.1 97.1 112.5 101.2 102.5"/></g></g><g><line class="cls-11" x1="371.4" y1="125.6" x2="410.4" y2="162.9"/><g><line class="cls-11" x1="371.4" y1="125.6" x2="405.3" y2="158"/><polygon class="cls-11" points="410.4 162.9 400.4 159 405 157.7 406.1 153.1 410.4 162.9"/></g></g><g><line class="cls-11" x1="191.5" y1="124.7" x2="143.1" y2="161.5"/><g><line class="cls-11" x1="191.5" y1="124.7" x2="148.7" y2="157.3"/><polygon class="cls-11" points="143.1 161.5 148.6 152.3 149.1 157 153.5 158.8 143.1 161.5"/></g></g><g><line class="cls-11" x1="410.4" y1="196.5" x2="410.4" y2="226.3"/><g><line class="cls-11" x1="410.4" y1="196.5" x2="410.4" y2="219.2"/><polygon class="cls-11" points="410.4 226.3 406.4 216.3 410.4 218.7 414.5 216.3 410.4 226.3"/></g></g><g><line class="cls-11" x1="280.3" x2="280.3" y2="29.7"/><g><line class="cls-11" x1="280.3" y1="0" x2="280.3" y2="22.7"/><polygon class="cls-11" points="280.3 29.7 276.2 19.8 280.3 22.2 284.4 19.8 280.3 29.7"/></g></g><g><line class="cls-11" x1="281.7" y1="66.5" x2="281.7" y2="96.2"/><g><line class="cls-11" x1="281.7" y1="66.5" x2="281.7" y2="89.1"/><polygon class="cls-11" points="281.7 96.2 277.6 86.3 281.7 88.6 285.8 86.3 281.7 96.2"/></g></g></g></g><g id="Text"><text class="cls-23" transform="translate(297.6 18.1)"><tspan x="0" y="0">D</tspan><tspan class="cls-1" x="7.4" y="0">r</tspan><tspan x="11.4" y="0">eh</tspan><tspan class="cls-8" x="23.9" y="0">z</tspan><tspan x="28.7" y="0">ahl, Antrieb M</tspan><tspan class="cls-25" x="97.7" y="0">o</tspan><tspan class="cls-17" x="104" y="0">t</tspan><tspan x="107.9" y="0">or</tspan></text><text class="cls-23" transform="translate(296.5 79.4)"><tspan x="0" y="0">Magn</tspan><tspan class="cls-1" x="27.4" y="0">e</tspan><tspan x="33.2" y="0">t</tspan><tspan class="cls-1" x="37.3" y="0">f</tspan><tspan x="40.7" y="0">eld wi</tspan><tspan class="cls-1" x="70.3" y="0">r</tspan><tspan x="74.3" y="0">d e</tspan><tspan class="cls-18" x="89.4" y="0">r</tspan><tspan class="cls-1" x="93.5" y="0">z</tspan><tspan x="98.4" y="0">eug</tspan><tspan class="cls-19" x="117" y="0">t</tspan><tspan class="cls-15" x="121.1" y="0">, Er</tspan><tspan class="cls-1" x="137" y="0">re</tspan><tspan class="cls-17" x="146.9" y="0">g</tspan><tspan x="152.7" y="0">e</tspan><tspan class="cls-18" x="158.7" y="0">r</tspan><tspan class="cls-4" x="162.8" y="0">s</tspan><tspan class="cls-14" x="167.6" y="0">t</tspan><tspan class="cls-1" x="171.7" y="0">r</tspan><tspan x="175.7" y="0">om h</tspan><tspan class="cls-17" x="201.1" y="0">a</tspan><tspan x="207" y="0">t Einfluss auf</tspan><tspan x="0" y="14.4">Magn</tspan><tspan class="cls-1" x="27.4" y="14.4">e</tspan><tspan x="33.2" y="14.4">t</tspan><tspan class="cls-1" x="37.3" y="14.4">f</tspan><tspan x="40.7" y="14.4">eld</tspan><tspan class="cls-2" x="56.3" y="14.4">s</tspan><tspan class="cls-3" x="61.1" y="14.4">t</tspan><tspan class="cls-14" x="64.9" y="14.4">är</tspan><tspan class="cls-7" x="75.1" y="14.4">k</tspan><tspan class="cls-15" x="80.9" y="14.4">e, je nach D</tspan><tspan class="cls-1" x="137.9" y="14.4">r</tspan><tspan class="cls-15" x="141.9" y="14.4">eh</tspan><tspan class="cls-8" x="154.4" y="14.4">z</tspan><tspan x="159.2" y="14.4">ahl und Bela</tspan><tspan class="cls-2" x="221.6" y="14.4">s</tspan><tspan x="226.3" y="14.4">tung</tspan></text><text class="cls-23" transform="translate(178.3 150.2)"><tspan class="cls-21" x="0" y="0">T</tspan><tspan x="5.6" y="0">eil</tspan><tspan class="cls-2" x="17.6" y="0">s</tspan><tspan x="22.4" y="0">t</tspan><tspan class="cls-1" x="26.4" y="0">r</tspan><tspan x="30.5" y="0">om</tspan></text><text class="cls-23" transform="translate(85.1 43.8)"><tspan x="0" y="0">Er</tspan><tspan class="cls-1" x="10.5" y="0">re</tspan><tspan class="cls-17" x="20.4" y="0">g</tspan><tspan x="26.2" y="0">e</tspan><tspan class="cls-18" x="32.2" y="0">r</tspan><tspan class="cls-2" x="36.3" y="0">s</tspan><tspan x="41.1" y="0">t</tspan><tspan class="cls-1" x="45.2" y="0">r</tspan><tspan x="49.2" y="0">om </tspan><tspan class="cls-1" x="0" y="14.4">re</tspan><tspan class="cls-17" x="9.9" y="14.4">g</tspan><tspan x="15.8" y="14.4">eln</tspan></text><text class="cls-23" transform="translate(399 135.9)"><tspan x="0" y="0">3-phasi</tspan><tspan class="cls-17" x="36.9" y="0">g</tspan><tspan x="42.8" y="0">en Wechsel</tspan><tspan class="cls-2" x="99.1" y="0">s</tspan><tspan class="cls-14" x="103.9" y="0">t</tspan><tspan class="cls-1" x="108" y="0">r</tspan><tspan x="112" y="0">om induzie</tspan><tspan class="cls-1" x="167.6" y="0">r</tspan><tspan x="171.6" y="0">en</tspan></text><text class="cls-6" transform="translate(240.2 52.4)"><tspan x="0" y="0">Er</tspan><tspan class="cls-1" x="10.5" y="0">re</tspan><tspan class="cls-17" x="20.4" y="0">g</tspan><tspan x="26.2" y="0">e</tspan><tspan class="cls-13" x="32.2" y="0">r</tspan><tspan x="36.6" y="0">wicklung</tspan></text><text class="cls-6" transform="translate(250.2 117.3)"><tspan class="cls-10" x="0" y="0">S</tspan><tspan class="cls-3" x="6.1" y="0">t</tspan><tspan class="cls-17" x="9.9" y="0">at</tspan><tspan x="19.7" y="0">o</tspan><tspan class="cls-24" x="26.2" y="0">r</tspan><tspan x="30.3" y="0">spulen</tspan></text><text class="cls-6" transform="translate(368.6 182)"><tspan class="cls-9" x="0" y="0">L</tspan><tspan class="cls-15" x="5.7" y="0">ei</tspan><tspan class="cls-2" x="14.6" y="0">s</tspan><tspan x="19.4" y="0">tungsdioden</tspan></text><text class="cls-6" transform="translate(388.9 247.7)"><tspan x="0" y="0">B</tspan><tspan class="cls-16" x="7.1" y="0">a</tspan><tspan class="cls-2" x="12.9" y="0">t</tspan><tspan class="cls-16" x="16.8" y="0">t</tspan><tspan class="cls-15" x="20.6" y="0">erie</tspan></text><text class="cls-6" transform="translate(111.4 182.1)"><tspan x="0" y="0">Er</tspan><tspan class="cls-1" x="10.5" y="0">re</tspan><tspan class="cls-17" x="20.4" y="0">g</tspan><tspan x="26.2" y="0">e</tspan><tspan class="cls-1" x="32.2" y="0">r</tspan><tspan x="36.2" y="0">dioden</tspan></text><text class="cls-6" transform="translate(38.1 82.6)"><tspan x="0" y="0">S</tspan><tspan class="cls-17" x="6.4" y="0">p</tspan><tspan x="12.9" y="0">annungs</tspan><tspan class="cls-1" x="56.2" y="0">re</tspan><tspan x="66.1" y="0">gler</tspan></text><text class="cls-22" transform="translate(505.1 182.2)"><tspan x="0" y="0">Gleichrich</tspan><tspan class="cls-16" x="50.5" y="0">t</tspan><tspan class="cls-15" x="54.4" y="0">en</tspan></text><text class="cls-22" transform="translate(426 214.5)"><tspan x="0" y="0">(13,7 V - 14,2 V Gleichs</tspan><tspan class="cls-17" x="109.9" y="0">p</tspan><tspan x="116.4" y="0">annun</tspan><tspan class="cls-20" x="148.6" y="0">g</tspan><tspan class="cls-14" x="154.9" y="0">)</tspan></text><text class="cls-22" transform="translate(541.1 248.2)"><tspan x="0" y="0">Bo</tspan><tspan class="cls-1" x="13.6" y="0">r</tspan><tspan x="17.6" y="0">dn</tspan><tspan class="cls-1" x="30.8" y="0">e</tspan><tspan class="cls-14" x="36.7" y="0">tz</tspan></text></g></svg>