<?xml version="1.0" encoding="utf-8"?>
<!-- Generator: Adobe Illustrator 26.0.2, SVG Export Plug-In . SVG Version: 6.00 Build 0)  -->
<svg version="1.1" id="Ebene_1" xmlns="http://www.w3.org/2000/svg" xmlns:xlink="http://www.w3.org/1999/xlink" x="0px" y="0px"
	 viewBox="0 0 280.8 154.3" style="enable-background:new 0 0 280.8 154.3;" xml:space="preserve">
<style type="text/css">
	.st0{opacity:0;}
	.st1{font-family:'.SFUI-Regular_wdth_opsz120000_GRAD_wght24E0000';}
	.st2{font-size:18.059px;}
	.st3{font-family:'.SFUI-Regular_wdth_opsz130000_GRAD_wght24E0000';}
	.st4{font-size:19.0623px;}
	.st5{font-family:'.SFUI-Regular_wdth_opsz110000_GRAD_wght24E0000';}
	.st6{font-size:16.0525px;}
	.st7{font-size:14.0459px;}
	.st8{font-size:15.0492px;}
	.st9{font-size:17.0557px;}
	.st10{font-size:13.0426px;}
	.st11{letter-spacing:-1;}
	.st12{opacity:0.42;clip-path:url(#SVGID_00000016765303434262130320000015744815326745661351_);fill:#969696;}
	.st13{clip-path:url(#SVGID_00000133498678671308188070000005373391907963206531_);}
	.st14{clip-path:url(#SVGID_00000133498678671308188070000005373391907963206531_);fill:#ED3624;}
</style>
<text transform="matrix(1 0 0 1 -63.7888 -60.4946)" style="font-family:'TimesNewRomanPSMT'; font-size:11.0361px;"> </text>
<g>
	<text transform="matrix(1 0 0 1 32.7893 33.6226)" class="st0"><tspan x="0" y="0" class="st1 st2">B</tspan><tspan x="10" y="0" class="st1 st2">P</tspan></text>
</g>
<g>
	<text transform="matrix(1 0 0 1 32.0916 49.8628)" class="st0"><tspan x="0" y="0" class="st3 st4">G</tspan><tspan x="13.3" y="0" class="st3 st4">k</tspan></text>
</g>
<g>
	<text transform="matrix(1 0 0 1 31.0916 64.3208)" class="st0"><tspan x="0" y="0" class="st1 st2">S</tspan><tspan x="9.3" y="0" class="st1 st2">o</tspan><tspan x="19.9" y="0" class="st1 st2">k</tspan><tspan x="29.5" y="0" class="st1 st2">o</tspan></text>
</g>
<g>
	<text transform="matrix(1 0 0 1 32.9363 79.3491)" class="st0"><tspan x="0" y="0" class="st5 st6">G</tspan><tspan x="11.3" y="0" class="st5 st6">e</tspan><tspan x="19.8" y="0" class="st5 st6">win</tspan><tspan x="45.9" y="0" class="st5 st6">n</tspan></text>
</g>
<g>
	<text transform="matrix(1 0 0 1 223.2713 82.3721)" class="st0"><tspan x="0" y="0" class="st1 st2">a</tspan><tspan x="9.5" y="0" class="st1 st2">u</tspan><tspan x="20.5" y="0" class="st1 st2">f</tspan></text>
</g>
<g>
	<text transform="matrix(1 0 0 1 253.1512 78.3745)" class="st0"><tspan x="0" y="0" class="st5 st7">1</tspan><tspan x="8.7" y="0" class="st5 st7">0</tspan><tspan x="17.5" y="0" class="st5 st7">0</tspan></text>
</g>
<g>
	<text transform="matrix(1 0 0 1 29.2649 95.3906)" class="st0"><tspan x="0" y="0" class="st1 st2">BV</tspan><tspan x="21.3" y="0" class="st1 st2">P</tspan></text>
</g>
<g>
	<text transform="matrix(1 0 0 1 30.1721 110.5674)" class="st0"><tspan x="0" y="0" class="st5 st6">S</tspan><tspan x="8.3" y="0" class="st5 st6">k</tspan><tspan x="17" y="0" class="st5 st6">on</tspan><tspan x="36.2" y="0" class="st5 st6">t</tspan><tspan x="41.8" y="0" class="st5 st6">o</tspan></text>
</g>
<g>
	<text transform="matrix(1 0 0 1 226.7596 110.9248)" class="st0"><tspan x="0" y="0" class="st5 st8">i</tspan><tspan x="4.1" y="0" class="st5 st8">n</tspan></text>
</g>
<g>
	<text transform="matrix(1 0 0 1 252.2693 110.0635)" class="st0"><tspan x="0" y="0" class="st5 st7">1</tspan><tspan x="8.7" y="0" class="st5 st7">0</tspan><tspan x="17.5" y="0" class="st5 st7">0</tspan></text>
</g>
<g>
	<text transform="matrix(1 0 0 1 30.2493 126.7793)" class="st0"><tspan x="0" y="0" class="st5 st9">Zu</tspan><tspan x="20" y="0" class="st5 st9">p</tspan></text>
</g>
<g>
	<text transform="matrix(1 0 0 1 30.1165 141.1406)" class="st0"><tspan x="0" y="0" class="st5 st8">R</tspan><tspan x="9.3" y="0" class="st5 st8">aba</tspan><tspan x="34.7" y="0" class="st5 st8">t</tspan><tspan x="40.1" y="0" class="st5 st8">t</tspan></text>
</g>
<g>
	<text transform="matrix(1 0 0 1 226.4734 141.0625)" class="st0"><tspan x="0" y="0" class="st5 st8">i</tspan><tspan x="4.1" y="0" class="st5 st8">n</tspan></text>
</g>
<g>
	<text transform="matrix(1 0 0 1 256.4637 140.8682)" class="st0"><tspan x="0" y="0" class="st5 st10">s</tspan><tspan x="6.6" y="0" class="st5 st10">o</tspan></text>
</g>
<g>
	<text transform="matrix(1 0 0 1 31.0608 158.9971)" class="st0"><tspan x="0" y="0" class="st1 st2 st11">L</tspan><tspan x="7.9" y="0" class="st1 st2">V</tspan><tspan x="19.3" y="0" class="st1 st2">P</tspan></text>
</g>
<g>
	<defs>
		<rect id="SVGID_1_" x="-74.7" y="-70.3" width="419.5" height="297.6"/>
	</defs>
	<clipPath id="SVGID_00000121997559895490913530000006088838081521339308_">
		<use xlink:href="#SVGID_1_"  style="overflow:visible;"/>
	</clipPath>
	<path style="opacity:0.42;clip-path:url(#SVGID_00000121997559895490913530000006088838081521339308_);fill:#969696;" d="M3.7,16.2
		c-4.5,0-8.2-3.7-8.2-8.2c0-4.5,3.7-8.2,8.2-8.2h197.1c4.5,0,8.2,3.7,8.2,8.2c0,4.5-3.7,8.2-8.2,8.2H3.7z"/>
</g>
<g>
	<defs>
		<rect id="SVGID_00000099633560817897447580000009568188415388892856_" x="-74.7" y="-70.3" width="419.5" height="297.6"/>
	</defs>
	<clipPath id="SVGID_00000152259266654208108200000012156607520647475870_">
		<use xlink:href="#SVGID_00000099633560817897447580000009568188415388892856_"  style="overflow:visible;"/>
	</clipPath>
	<path style="clip-path:url(#SVGID_00000152259266654208108200000012156607520647475870_);" d="M37.7,16.9c0.2-0.2,0.4-0.1,0.6,0
		c0.2,0.2,0.1,0.4,0,0.6c-0.1,0.1-0.3,0.7-0.4,1.5c-0.1,0.9-0.1,1.9-0.2,3.1c-0.1,1.2-0.1,2.3-0.2,3.3c0,0.4,0,0.8,0,1.1
		c0,0.3,0,0.5,0,0.7c0,0.2,0,0.4-0.2,0.5c-0.1,0.1-0.4,0.1-0.5,0c-0.1-0.1-0.2-0.2-0.2-0.3c-0.1-0.3-0.1-0.6-0.2-0.9
		c-0.2-1.3-0.2-2.5-0.2-3.9c0-0.9,0-2.1,0.3-3.2c0.2-0.7,0.5-1.3,0.8-1.8c0.2-0.4,0.6-0.6,1-0.7c0.4-0.1,0.7,0,1,0
		c1,0.1,2.4,0,3.3,0.8c0.6,0.5,0.7,1.3,0.6,2c-0.1,0.7-0.6,1.3-1,1.7c-0.2,0.2-0.5,0.4-0.6,0.5c-0.1,0.1-0.3,0.2-0.3,0.3
		c-0.1,0.1,0,0.1,0,0.1c0,0,0.5,0.5,0.9,1c0.7,0.9,0.9,1.9,1,2.7c0.1,0.4,0.2,0.9-0.1,1.4c-0.2,0.5-0.8,0.8-1.4,1
		c-0.6,0.2-1.3,0.2-2,0.2c-0.7-0.1-1.4-0.2-1.9-0.5c-0.3-0.1-0.5-0.3-0.7-0.5c-0.2-0.2-0.3-0.5-0.4-0.8c0-0.2,0.1-0.4,0.4-0.4
		c0.2,0,0.4,0.1,0.4,0.4c0,0.1,0,0.2,0.1,0.3c0.1,0.1,0.3,0.2,0.5,0.3c0.4,0.2,1,0.3,1.6,0.4c0.6,0,1.2,0,1.7-0.1
		c0.5-0.1,0.8-0.3,0.9-0.6c0.1-0.2,0.1-0.5,0-1c-0.1-0.8-0.3-1.7-0.8-2.3c-0.2-0.2-0.4-0.4-0.6-0.6c-0.2-0.2-0.5-0.4-0.5-0.8
		c0-0.3,0.1-0.5,0.2-0.7c0.1-0.2,0.3-0.3,0.4-0.4c0.2-0.2,0.4-0.3,0.6-0.5c0.4-0.4,0.7-0.9,0.8-1.3c0.1-0.5,0-1-0.3-1.3
		c-0.5-0.5-1.8-0.5-2.8-0.6c-0.4,0-0.6,0-0.8,0c-0.2,0-0.3,0.1-0.4,0.3c-0.3,0.4-0.5,0.9-0.7,1.5c-0.3,1-0.3,2.1-0.3,3
		c0,1.4,0,2.6,0.2,3.8c0,0.3,0.1,0.6,0.1,0.7c0,0,0,0,0,0c0,0-0.1-0.1-0.1-0.1c0,0-0.3,0-0.2-0.1c0.1,0-0.2,0.1-0.2,0.1
		c0,0-0.1,0.1-0.1,0.1c0,0,0,0,0,0c0,0,0,0,0-0.1c0-0.1,0-0.4,0-0.6c0-0.3,0-0.7,0-1.2c0-1,0.1-2.2,0.2-3.4c0.1-1.1,0.1-2.2,0.2-3.1
		C37.2,18.1,37.3,17.3,37.7,16.9"/>
	<path style="clip-path:url(#SVGID_00000152259266654208108200000012156607520647475870_);" d="M48.5,28.6c0,0.2-0.2,0.4-0.5,0.4
		c-0.2,0-0.4-0.2-0.4-0.5c0,0,0,0,0,0c0,0,0-0.1,0-0.1c0-0.1,0-0.2,0-0.4c0-0.3,0-0.8,0-1.2c0-2-0.3-4.3-0.3-6
		c0-0.9,0.4-1.6,0.9-2.2c0.5-0.5,1.2-0.9,1.8-1c0.6-0.1,1.2,0.1,1.7,0.5c0.4,0.4,0.6,1.1,0.6,1.8c0,1.1-0.5,2.2-1.3,2.9
		c-0.4,0.4-0.8,0.6-1.3,0.8c-0.5,0.1-1,0.1-1.5-0.2c-0.2-0.1-0.3-0.4-0.2-0.6c0.1-0.2,0.4-0.3,0.6-0.2c0.3,0.2,0.6,0.2,0.9,0.1
		c0.3-0.1,0.6-0.3,0.9-0.6c0.6-0.6,1-1.5,1-2.3c0-0.6-0.2-1-0.4-1.2c-0.2-0.2-0.5-0.3-0.9-0.3c-0.5,0.1-1,0.3-1.4,0.7
		c-0.4,0.4-0.6,1-0.7,1.6c-0.1,1.6,0.2,3.9,0.3,6c0,0.5,0,0.9,0,1.3c0,0.2,0,0.3,0,0.4C48.5,28.4,48.5,28.5,48.5,28.6
		C48.5,28.5,48.5,28.5,48.5,28.6 M48.1,20.9c0.1-0.2,0.3-0.3,0.5-0.3c0.2,0.1,0.3,0.3,0.3,0.5c-0.1,0.2-0.1,0.7-0.2,1.3
		c-0.1,0.6-0.1,1.4-0.1,2.3c0,0.9,0,1.8,0,2.5c0,0.6,0,1.1,0,1.1c0,0.2-0.1,0.4-0.3,0.5c-0.2,0-0.4-0.1-0.5-0.3c0-0.2,0-0.7,0-1.3
		c0-0.7,0-1.6,0-2.5c0-0.9,0.1-1.7,0.2-2.4C47.9,21.7,48,21.3,48.1,20.9"/>
	<path style="clip-path:url(#SVGID_00000152259266654208108200000012156607520647475870_);" d="M39.5,35.6c-0.2,0-0.4-0.2-0.4-0.5
		c0-0.2,0.2-0.4,0.5-0.4c0,0,0,0,0,0c0,0,0.1-0.1,0.1-0.2c0.1-0.2,0.2-0.5,0.2-0.8c0-0.3,0-0.5,0-0.5c0-0.1-0.1-0.1-0.3-0.2
		c-0.2,0-0.4,0-0.7,0.1c-0.7,0.2-1.6,1.3-2.1,2.7c-0.4,0.8-0.5,1.8-0.6,2.8c-0.1,0.9-0.1,1.7,0.1,2.3c0.1,0.3,0.3,0.6,0.6,0.7
		c0.1,0.1,0.2,0.1,0.3,0.1c0.1,0,0.2,0,0.2-0.1c0,0,0-0.1,0-0.3c0-0.2,0-0.5-0.1-0.8c0-0.4,0-0.7,0-1c0-0.2,0.2-0.6,0.5-0.7
		c0.7-0.3,1.8-0.1,2.8,0.1c0.5,0.1,0.9,0.2,1.3,0.6c0.2,0.2,0.3,0.6,0.3,0.9c0,0.3-0.1,0.6-0.3,0.9c-0.3,0.6-0.6,1.3-0.9,1.9
		c-0.1,0.2-0.3,0.3-0.5,0.2c-0.2-0.1-0.3-0.3-0.2-0.5c0.3-0.6,0.7-1.3,0.9-1.8c0.1-0.3,0.2-0.5,0.2-0.6c0-0.1,0-0.2-0.1-0.2
		c-0.1-0.1-0.5-0.2-0.9-0.3c-0.9-0.2-1.9-0.3-2.3-0.1c0,0,0-0.1,0,0.1c0,0.2,0,0.5,0,0.8c0,0.3,0.1,0.6,0.1,0.9c0,0.3,0,0.7-0.3,0.9
		c-0.2,0.2-0.5,0.3-0.7,0.3c-0.3,0-0.5-0.1-0.8-0.2c-0.3-0.2-0.7-0.6-0.9-1.2c-0.2-0.7-0.2-1.6-0.1-2.6c0.1-1,0.2-2.1,0.6-3
		c0.6-1.5,1.5-2.8,2.6-3.2c0.4-0.1,0.8-0.2,1.1-0.1c0.3,0.1,0.7,0.2,0.8,0.5c0.2,0.4,0.1,0.7,0.1,1c0,0.4-0.1,0.8-0.3,1.1
		c-0.1,0.2-0.2,0.3-0.4,0.5C40,35.6,39.7,35.6,39.5,35.6"/>
	<path style="clip-path:url(#SVGID_00000152259266654208108200000012156607520647475870_);" d="M47.9,32.2c0-0.2,0.2-0.4,0.4-0.4
		c0.2,0,0.4,0.2,0.4,0.4c0,0.3-0.1,0.8-0.3,1.6c-0.2,0.8-0.4,1.8-0.6,2.8c-0.4,2-0.7,4.1-0.8,5.4c0,0.6-0.1,1.1,0,1.2
		c0,0-0.1-0.1,0-0.1c0,0-0.3-0.1-0.2-0.1c0.1,0-0.1,0-0.1,0c0,0,0,0,0,0c0.1-0.1,0.2-0.2,0.4-0.5c0.4-0.6,0.9-1.4,1.4-2.3
		c0.6-1.1,1.3-2.1,1.9-2.9c0.7-0.8,1.3-1.4,2.1-1.5c0.2,0,0.4,0.1,0.5,0.4c0,0.2-0.1,0.4-0.4,0.5c-0.3,0-0.9,0.5-1.5,1.2
		c-0.6,0.7-1.3,1.7-1.8,2.8c-0.5,0.9-1,1.8-1.5,2.4c-0.2,0.3-0.4,0.5-0.6,0.7c-0.1,0.1-0.3,0.2-0.5,0.1c-0.2,0-0.4-0.3-0.4-0.4
		c-0.1-0.4-0.1-0.9,0-1.5c0.1-1.4,0.4-3.5,0.8-5.6c0.2-1.1,0.5-2,0.6-2.8C47.8,32.8,47.9,32.3,47.9,32.2"/>
	<path style="clip-path:url(#SVGID_00000152259266654208108200000012156607520647475870_);" d="M49.5,39.2c0.1-0.2,0.3-0.4,0.5-0.3
		c0.2,0.1,0.4,0.3,0.3,0.5c-0.1,0.6-0.1,1.6,0.3,2.5c0.4,1,1.2,1.9,2.3,2.5c0.2,0.1,0.3,0.4,0.2,0.6c-0.1,0.2-0.4,0.3-0.6,0.2
		c-1.3-0.7-2.2-1.8-2.7-2.9C49.4,41.2,49.3,40.1,49.5,39.2"/>
	<path style="clip-path:url(#SVGID_00000152259266654208108200000012156607520647475870_);" d="M6.7,39c-0.2-0.1-0.3-0.4-0.2-0.6
		c0.1-0.2,0.4-0.3,0.6-0.2c0,0-0.1,0-0.1,0c0,0,0,0,0,0c0.1,0,0.3,0,0.5,0.1c0.8,0.1,2.1-0.1,3.3-0.3c0.6-0.1,1.1-0.1,1.5,0
		c0.2,0,0.4,0.1,0.6,0.3c0.2,0.2,0.2,0.5,0.1,0.8c-0.1,0.2-0.3,0.3-0.5,0.3c-0.2-0.1-0.3-0.3-0.3-0.5c0,0,0,0,0,0c0,0,0,0.1,0,0.1
		c0,0,0,0-0.1,0c-0.3-0.1-0.7,0-1.3,0c-1.2,0.1-2.5,0.4-3.5,0.3c-0.3,0-0.5-0.1-0.6-0.1C6.8,39.1,6.8,39.1,6.7,39 M7.2,38.3
		c0.2,0,0.4,0.2,0.3,0.5c0,0.2-0.2,0.4-0.5,0.3c-0.1,0-0.2,0-0.2,0c0,0,0,0,0,0c0,0,0,0,0,0c0,0,0.1,0,0.1,0c-0.2,0-0.4-0.1-0.5-0.3
		c0-0.2,0.1-0.4,0.3-0.5c0.1,0,0.1,0,0.1,0C7,38.3,7.1,38.3,7.2,38.3"/>
	<path style="clip-path:url(#SVGID_00000152259266654208108200000012156607520647475870_);" d="M11.5,35c-0.1,0.2-0.3,0.3-0.5,0.3
		c-0.2-0.1-0.3-0.3-0.3-0.5c0-0.1,0-0.1,0.1-0.2c0,0,0.1-0.1,0.2-0.1c0.2,0,0.4,0.1,0.4,0.2c0,0.1,0,0.1,0,0.1c0,0.1,0,0.3,0,0.4
		c0,0.3-0.1,0.8-0.2,1.4c-0.2,1.2-0.6,2.4-0.8,3.5c-0.1,0.5-0.2,0.9-0.2,1.2c0,0.1,0,0.1,0,0.1c0,0-0.2-0.1-0.1-0.1
		c0.2,0,0.4,0.1,0.4,0.4c0,0.2-0.1,0.4-0.4,0.4c-0.2,0-0.5-0.1-0.6-0.3c-0.1-0.2-0.1-0.4-0.1-0.6c0-0.4,0.1-0.8,0.2-1.4
		c0.2-1.1,0.6-2.3,0.8-3.5c0.1-0.5,0.2-1,0.2-1.3c0-0.1,0-0.2,0-0.2c0,0,0,0.1,0,0.1c0,0,0.1,0.1,0,0.1c0,0,0.2,0.1,0.1,0.1
		c0,0,0.2,0.1,0.2,0.1c0,0,0.2,0,0.1,0c-0.1,0,0.2-0.1,0.1-0.1C11.3,35.2,11.4,35.1,11.5,35C11.4,35.1,11.5,35,11.5,35
		C11.4,35.1,11.5,35,11.5,35"/>
	<path style="clip-path:url(#SVGID_00000152259266654208108200000012156607520647475870_);" d="M6.7,53.1c0.2,0,0.4,0.1,0.5,0.3
		c0,0.2-0.1,0.4-0.3,0.5c0,0-0.1,0-0.1,0c0,0,0,0,0,0c0,0,0.1-0.1,0.1-0.1c0,0,0.1-0.2,0.1-0.2c0,0.1-0.1-0.2,0-0.2
		c0,0-0.1-0.1,0-0.1c0,0,0,0,0,0c0,0,0.3,0.1,0.6,0.1c0.9,0.1,2.3-0.2,3.5-0.5c0.6-0.1,1.1-0.2,1.6-0.2c0.2,0,0.5,0,0.7,0.2
		c0.2,0.1,0.3,0.4,0.3,0.7c0,0.2-0.2,0.4-0.4,0.4c-0.2,0-0.4-0.2-0.4-0.4c0-0.1,0,0,0,0c0,0-0.1,0-0.2,0c-0.3,0-0.8,0.1-1.4,0.2
		c-1.2,0.3-2.6,0.7-3.8,0.5c-0.4,0-0.7-0.1-0.9-0.3c-0.1,0-0.1-0.1-0.2-0.2c-0.1-0.1-0.1-0.3,0-0.5C6.4,53.1,6.5,53.1,6.7,53.1"/>
	<path style="clip-path:url(#SVGID_00000152259266654208108200000012156607520647475870_);" d="M6.9,56.8c-0.2-0.1-0.2-0.4-0.1-0.6
		C7,56.1,7.2,56,7.4,56.1c0,0,0.3,0.1,0.7,0c0.4,0,1-0.1,1.6-0.2c1.2-0.2,2.6-0.4,3.8,0.1c0.2,0.1,0.3,0.3,0.2,0.5
		c-0.1,0.2-0.3,0.3-0.5,0.2c-0.9-0.4-2.2-0.2-3.4,0c-0.6,0.1-1.1,0.2-1.6,0.2C7.7,57,7.3,57.1,6.9,56.8"/>
	<path style="clip-path:url(#SVGID_00000152259266654208108200000012156607520647475870_);" d="M39.6,52c-0.2-0.1-0.3-0.3-0.3-0.5
		c0.1-0.2,0.3-0.3,0.5-0.3c0.1,0,0.2,0,0.2,0c0.1,0,0.2-0.1,0.3-0.2c0.2-0.2,0.4-0.6,0.5-1c0.2-0.4,0.2-0.9,0.2-1.3
		c0-0.2,0-0.3,0-0.4c0-0.1,0,0,0-0.1c0,0,0,0,0,0c0,0-0.1,0-0.1,0c-0.1,0-0.3,0-0.5,0c-0.3,0-0.7,0.3-1.1,0.5
		c-0.8,0.6-1.3,1.3-1.2,2.2c0.1,1.1,1.7,2.4,2.4,3.9c0.3,0.7,0.5,1.5,0.3,2.2c-0.2,0.7-0.8,1.2-1.6,1.5c-0.7,0.3-1.5,0.6-2.3,0.6
		c-0.8,0.1-1.5,0-2-0.4c-0.3-0.2-0.4-0.5-0.4-0.9c0-0.4,0.1-0.7,0.4-1.1c0.1-0.2,0.4-0.3,0.6-0.1c0.2,0.1,0.3,0.4,0.1,0.6
		c-0.2,0.3-0.3,0.5-0.2,0.7c0,0.1,0,0.2,0.1,0.3c0.2,0.2,0.8,0.3,1.4,0.2c0.7,0,1.4-0.2,2-0.5c0.6-0.3,1-0.7,1.1-1
		c0.1-0.4,0.1-1-0.2-1.5c-0.6-1.2-2.4-2.5-2.5-4.2c-0.1-1.2,0.5-2.2,1.5-2.9c0.4-0.3,0.9-0.7,1.5-0.7c0.2,0,0.5,0,0.7,0.1
		c0.2,0.1,0.5,0.2,0.6,0.5c0.2,0.4,0,0.6,0,0.7c0,0.5-0.1,1.1-0.3,1.6c-0.2,0.5-0.4,0.9-0.7,1.3c-0.2,0.2-0.4,0.3-0.6,0.4
		C40.1,52.1,39.9,52.1,39.6,52"/>
	<path style="clip-path:url(#SVGID_00000152259266654208108200000012156607520647475870_);" d="M47.5,53c0.2,0,0.4,0.3,0.3,0.5
		c0,0.2-0.3,0.4-0.5,0.3c0,0,0,0,0,0c0,0,0,0-0.1,0c-0.1,0.1-0.2,0.1-0.4,0.3c-0.3,0.3-0.6,0.7-0.9,1.1c-0.5,0.7-0.8,1.5-1,2.2
		c-0.1,0.5,0,0.9,0.2,1.1c0.2,0.2,0.6,0.4,1,0.3c0.5,0,1-0.2,1.4-0.4c0.4-0.3,0.8-0.7,0.9-1.2c0.1-0.2,0.3-0.3,0.5-0.3
		c0.2,0.1,0.3,0.3,0.3,0.5c-0.2,0.7-0.7,1.3-1.3,1.7c-0.6,0.4-1.2,0.6-1.8,0.6c-0.6,0-1.2-0.2-1.6-0.6c-0.4-0.4-0.6-1.1-0.4-1.9
		c0.2-0.8,0.6-1.7,1.1-2.5c0.3-0.5,0.7-0.9,1.1-1.2c0.2-0.2,0.3-0.3,0.5-0.4C47.1,53,47.2,52.9,47.5,53"/>
	<path style="clip-path:url(#SVGID_00000152259266654208108200000012156607520647475870_);" d="M48.5,55c-0.1,0.2-0.3,0.3-0.5,0.3
		c-0.2-0.1-0.3-0.3-0.3-0.5c0-0.1,0.1-0.2,0.1-0.3c0-0.1,0.1-0.2,0.3-0.3c0.1,0,0.2,0,0.3,0c0.1,0,0.2,0.1,0.2,0.2
		c0.1,0.1,0.1,0.2,0.1,0.2c0.1,0.3,0,0.5-0.1,0.7c-0.1,0.2-0.2,0.4-0.4,0.6c-0.3,0.3-0.7,0.4-1,0.4c-0.2,0-0.3,0-0.5-0.1
		c-0.2-0.1-0.3-0.2-0.4-0.4c-0.1-0.2,0-0.4,0.2-0.5c0.2-0.1,0.4,0,0.5,0.2c0,0,0,0,0,0c0,0,0.1,0,0.2,0c0.2,0,0.3-0.1,0.4-0.1
		c0.1-0.1,0.2-0.2,0.2-0.3c0-0.1,0-0.1,0.1-0.1c0,0,0,0,0,0c0,0,0,0.1,0,0c0,0,0,0,0,0c0,0,0,0.1,0,0.1c0,0,0.1,0.1,0,0.1
		c0,0,0.1,0.1,0.1,0.1c0,0,0.2,0,0.1,0c0,0,0.2,0,0.1,0C48.3,55,48.5,54.9,48.5,55C48.4,54.9,48.5,54.9,48.5,55c0-0.1,0-0.1,0-0.1
		C48.5,54.9,48.5,54.9,48.5,55"/>
	<path style="clip-path:url(#SVGID_00000152259266654208108200000012156607520647475870_);" d="M56.3,47.7c0.1-0.2,0.4-0.2,0.6-0.1
		c0.2,0.1,0.2,0.4,0.1,0.6c-0.1,0.2-0.4,0.7-0.7,1.5c-0.3,0.8-0.7,1.9-1,3c-0.3,0.9-0.5,1.9-0.6,2.8c-0.1,0.8-0.2,1.4-0.2,1.9
		c0,0.2,0.1,0.3,0.1,0.4c0,0.1,0.1,0.1,0.1,0.1c0,0,0.1-0.1,0.2-0.2c0.2-0.2,0.4-0.5,0.6-0.9c0.5-0.8,1.3-1.7,2-2.6
		c0.7-0.9,1.4-1.7,2-2.3c0.6-0.5,1-0.9,1.3-1.1c0.2-0.1,0.4-0.1,0.6,0.1c0.1,0.2,0.1,0.4-0.1,0.6c-0.2,0.1-0.6,0.4-1.1,0.9
		c-0.6,0.5-1.2,1.3-1.9,2.2c-0.7,0.9-1.5,1.8-1.9,2.6c-0.2,0.3-0.4,0.7-0.6,0.9c-0.2,0.3-0.4,0.5-0.8,0.6c-0.3,0-0.6-0.1-0.8-0.3
		c-0.2-0.2-0.3-0.5-0.3-0.9c0-0.6,0-1.3,0.2-2.1c0.1-0.9,0.4-1.9,0.6-2.9c0.3-1.2,0.7-2.2,1-3.1C55.9,48.6,56.1,48,56.3,47.7"/>
	<path style="clip-path:url(#SVGID_00000152259266654208108200000012156607520647475870_);" d="M58.1,54.1c0-0.2,0.2-0.4,0.5-0.3
		c0.2,0,0.4,0.2,0.3,0.5c-0.1,0.5-0.2,1.5-0.2,2.4c0,0.4,0.1,0.8,0.3,1.1c0.2,0.2,0.4,0.4,0.7,0.4c0.2,0,0.4,0.2,0.4,0.4
		c0,0.2-0.2,0.4-0.4,0.4c-0.6,0-1.1-0.3-1.4-0.7c-0.3-0.4-0.4-0.9-0.4-1.4C57.9,55.7,58,54.7,58.1,54.1"/>
	<path style="clip-path:url(#SVGID_00000152259266654208108200000012156607520647475870_);" d="M65.1,54.5c0.2,0.1,0.4,0.3,0.3,0.5
		c-0.1,0.2-0.3,0.4-0.5,0.3c-0.1,0-0.1,0-0.2,0c-0.1,0-0.2,0.1-0.3,0.3c-0.2,0.3-0.5,0.6-0.6,1c-0.1,0.4-0.2,0.7-0.1,0.8
		c0,0.1,0.2,0.2,0.4,0.3c0.2,0.1,0.5,0.2,0.8,0.2c0.3,0,0.6,0.1,0.9,0c0.6-0.2,1.3-0.9,1.9-1.7c0.5-0.7,0.9-1.4,1-1.9
		c0-0.2,0-0.3,0-0.4c0-0.1,0-0.1,0-0.1c-0.1-0.1-0.3-0.2-0.6-0.2c-0.3,0-0.7,0-1,0.1c-0.8,0.2-1.5,0.6-1.8,1.1
		c-0.1,0.2-0.4,0.3-0.6,0.1c-0.2-0.1-0.3-0.4-0.1-0.6c0.5-0.8,1.5-1.3,2.4-1.5c0.5-0.1,0.9-0.1,1.3-0.1c0.4,0.1,0.8,0.2,1.1,0.5
		c0.2,0.2,0.3,0.4,0.3,0.6c0,0.2,0,0.4,0,0.6c-0.1,0.7-0.5,1.5-1.1,2.3c-0.6,0.8-1.4,1.8-2.4,2c-0.5,0.1-0.9,0-1.2,0
		c-0.4,0-0.8-0.1-1.1-0.3c-0.3-0.2-0.6-0.4-0.8-0.7c-0.2-0.5-0.1-1,0.1-1.4c0.2-0.5,0.4-0.9,0.8-1.3c0.2-0.2,0.4-0.3,0.6-0.4
		C64.5,54.5,64.8,54.4,65.1,54.5"/>
	<path style="clip-path:url(#SVGID_00000152259266654208108200000012156607520647475870_);" d="M5.8,71.6c-0.2,0-0.4-0.2-0.4-0.4
		c0-0.2,0.2-0.4,0.4-0.4c1.8,0,3.4-0.5,5.3,0c0.2,0.1,0.3,0.3,0.3,0.5c-0.1,0.2-0.3,0.3-0.5,0.3C9.2,71.1,7.7,71.6,5.8,71.6"/>
	<path style="clip-path:url(#SVGID_00000152259266654208108200000012156607520647475870_);" d="M9.2,68.2C9.3,68,9.5,67.9,9.7,68
		c0.2,0.1,0.3,0.3,0.2,0.5c-0.2,0.5-0.6,1.6-0.9,2.8c-0.3,1.2-0.4,2.4-0.3,3c0.1,0.2-0.1,0.4-0.3,0.5c-0.2,0.1-0.4-0.1-0.5-0.3
		c-0.3-0.9-0.1-2.2,0.2-3.5C8.6,69.9,9,68.8,9.2,68.2"/>
	<path style="clip-path:url(#SVGID_00000152259266654208108200000012156607520647475870_);" d="M40.5,66.6c0.1,0.2-0.1,0.4-0.3,0.5
		c-0.2,0.1-0.4-0.1-0.5-0.3c-0.1-0.5,0.1-0.8,0.1-1c0-0.2,0-0.2,0-0.3c0,0,0,0-0.1,0c-0.1,0-0.2,0-0.4,0c-0.5,0.1-1.4,0.9-2.1,1.8
		c-0.7,1.1-1,2.5-1.2,3.7c-0.1,0.6-0.1,1.1,0,1.4c0,0.1,0,0.1,0,0.1c0,0,0,0,0,0c0,0,0,0,0.1-0.1c0.1-0.1,0.2-0.2,0.3-0.3
		c0.3-0.3,0.5-1.1,0.8-1.8c0.3-0.7,0.8-1.2,1.3-1.5c0.5-0.3,1.1-0.4,1.7-0.2c0.5,0.2,0.8,0.6,1,1.1c0.2,0.5,0.3,1.1,0.3,1.6
		c0,0.6-0.1,1.1-0.3,1.6c-0.2,0.5-0.4,0.9-0.8,1.1c-0.2,0.1-0.4,0-0.6-0.2c-0.1-0.2,0-0.4,0.2-0.6c0.1-0.1,0.3-0.3,0.4-0.6
		c0.1-0.4,0.2-0.8,0.2-1.3c0-0.5-0.1-0.9-0.2-1.3c-0.1-0.3-0.3-0.6-0.6-0.6c-0.3-0.1-0.6-0.1-1,0.2c-0.4,0.2-0.7,0.6-1,1.1
		c-0.3,0.6-0.4,1.4-0.9,2c-0.2,0.2-0.3,0.3-0.5,0.4c-0.2,0.1-0.4,0.2-0.7,0.2c-0.2,0-0.3-0.1-0.4-0.2c-0.1-0.1-0.2-0.3-0.2-0.5
		c-0.1-0.5,0-1,0-1.6c0.1-1.3,0.4-2.9,1.3-4.1c0.7-1,1.6-2.1,2.6-2.2c0.2,0,0.4,0,0.6,0c0.2,0,0.4,0.1,0.6,0.3
		c0.2,0.3,0.2,0.6,0.2,0.8c0,0.2,0,0.4-0.1,0.6C40.6,66.4,40.6,66.5,40.5,66.6C40.6,66.6,40.5,66.5,40.5,66.6"/>
	<path style="clip-path:url(#SVGID_00000152259266654208108200000012156607520647475870_);" d="M48.1,68.7c0.2,0.1,0.2,0.4,0.1,0.6
		c-0.1,0.2-0.4,0.2-0.6,0.1c0,0,0,0,0,0c-0.1,0-0.1,0.1-0.2,0.2c-0.2,0.2-0.5,0.6-0.6,1c-0.2,0.5-0.2,1-0.2,1.4
		c0.1,0.4,0.3,0.7,0.5,0.8c0.2,0.2,0.6,0.2,1,0.1c0.5-0.1,1-0.5,1.6-1.2c0.2-0.2,0.4-0.2,0.6,0c0.2,0.2,0.2,0.4,0,0.6
		c-0.7,0.7-1.3,1.2-2,1.4c-0.6,0.2-1.2,0.1-1.7-0.2c-0.5-0.3-0.7-0.8-0.9-1.4c-0.1-0.6,0-1.2,0.2-1.8c0.2-0.5,0.5-0.9,0.8-1.3
		c0.2-0.2,0.3-0.3,0.6-0.4C47.6,68.5,47.9,68.5,48.1,68.7"/>
	<path style="clip-path:url(#SVGID_00000152259266654208108200000012156607520647475870_);" d="M49.3,68.8c0.2,0.1,0.2,0.4,0.1,0.6
		c-0.1,0.2-0.4,0.2-0.6,0.1c0,0,0,0,0,0c0,0,0.1,0,0.1,0c0,0,0.2,0,0.1,0c0,0,0.2-0.1,0.1-0.1c0,0,0.1-0.1,0.1-0.1c0,0,0,0,0,0
		c0,0.1,0,0.3,0,0.6c0,0.3,0,0.6-0.1,0.9c-0.1,0.2-0.3,0.3-0.5,0.3c-0.2,0-0.4,0-0.6-0.1c-0.2-0.1-0.3-0.3-0.2-0.5
		c0.1-0.2,0.3-0.3,0.5-0.2c0.1,0.1,0.2,0.1,0.2,0.1c0,0-0.1,0.1-0.1,0.1c0,0,0-0.2,0-0.4c0-0.2-0.1-0.5,0-0.7c0-0.1,0.1-0.4,0.4-0.5
		C49,68.5,49.2,68.7,49.3,68.8"/>
	<path style="clip-path:url(#SVGID_00000152259266654208108200000012156607520647475870_);" d="M53.6,68.4c-0.1-0.2,0.1-0.4,0.3-0.5
		c0.2-0.1,0.4,0.1,0.5,0.3c0.1,0.5,0,1.2-0.2,1.9c-0.1,0.8-0.3,1.6-0.4,2.3c0,0.3-0.1,0.5-0.1,0.7c0,0.2,0,0.2,0,0.2c0,0,0,0,0.1,0
		c0.1,0,0.2,0,0.3,0c0.5-0.2,1.4-1.2,2.2-1.8c0.3-0.2,0.7-0.4,1-0.4c0.3,0,0.4,0.2,0.6,0.3c0.1,0.1,0.2,0.3,0.3,0.5
		c0.2,0.4,0.2,0.8,0.2,1.1c0,0.1,0.1,0.2,0.2,0.3c0.1,0.1,0.1,0.1,0.2,0.1c0,0,0,0,0.1-0.1c0.1-0.1,0.2-0.2,0.3-0.4
		c0.2-0.3,0.5-0.8,0.7-1.3c0.3-0.5,0.5-1,0.8-1.4c0.3-0.4,0.7-0.8,1.2-0.8c0.2,0,0.4,0.2,0.4,0.4c0,0.2-0.2,0.4-0.4,0.4
		c-0.1,0-0.3,0.2-0.6,0.5c-0.3,0.3-0.5,0.8-0.8,1.3c-0.3,0.5-0.5,1-0.8,1.4c-0.1,0.2-0.3,0.4-0.4,0.5c-0.2,0.1-0.4,0.3-0.7,0.3
		c-0.3,0-0.5-0.1-0.7-0.3c-0.2-0.2-0.3-0.4-0.4-0.7c-0.1-0.4-0.1-0.8-0.2-0.9c-0.1-0.1-0.1-0.2-0.2-0.3c0-0.1,0,0,0,0
		c0,0-0.2,0-0.5,0.2c-0.7,0.5-1.4,1.6-2.5,1.9c-0.2,0.1-0.4,0.1-0.6,0.1c-0.2,0-0.4-0.1-0.6-0.3c-0.2-0.2-0.2-0.5-0.3-0.8
		c0-0.3,0-0.5,0.1-0.9C53.2,70.8,53.7,68.9,53.6,68.4"/>
	<path style="clip-path:url(#SVGID_00000152259266654208108200000012156607520647475870_);" d="M65.2,69.1c0-0.2,0.1-0.4,0.4-0.5
		c0.2,0,0.4,0.1,0.5,0.4c0.1,0.9-0.2,1.9-0.5,2.7c-0.1,0.3-0.2,0.7-0.2,0.9c0,0.1,0,0.2,0,0.3c0,0.1,0,0,0,0.1c0,0-0.1-0.1-0.1-0.1
		c0,0-0.1,0-0.1,0c0,0,0,0,0.1-0.1c0.2-0.1,0.4,0,0.6,0.2c0.1,0.2,0,0.4-0.2,0.6c-0.2,0.1-0.3,0.2-0.5,0.1c-0.2,0-0.4-0.1-0.5-0.3
		c-0.2-0.3-0.1-0.5-0.1-0.8c0-0.3,0.1-0.7,0.2-1C65,70.6,65.3,69.7,65.2,69.1"/>
	<path style="clip-path:url(#SVGID_00000152259266654208108200000012156607520647475870_);" d="M67.8,66.6c0.1,0.2,0,0.4-0.2,0.5
		c-0.2,0.1-0.4,0-0.5-0.2c-0.1-0.1-0.2-0.2-0.3-0.2c-0.2,0-0.3,0-0.4,0.2c-0.1,0.2-0.4,0.2-0.6,0.1c-0.2-0.1-0.2-0.4-0.1-0.6
		c0.3-0.4,0.7-0.5,1.2-0.5C67.2,65.9,67.6,66.1,67.8,66.6"/>
	<path style="clip-path:url(#SVGID_00000152259266654208108200000012156607520647475870_);" d="M70,68.6c-0.2-0.1-0.2-0.4-0.1-0.6
		c0.1-0.2,0.4-0.2,0.6-0.1c0.2,0.2,0.3,0.4,0.3,0.6c0,0.2,0,0.4-0.1,0.6c-0.1,0.5-0.3,1-0.4,1.5c-0.1,0.3-0.2,0.7-0.2,1
		c-0.1,0.3-0.1,0.6-0.2,0.8c0,0.1,0,0.1,0,0.1c0,0-0.1-0.2,0-0.1c0,0-0.1-0.1-0.1-0.1c0,0-0.2-0.1-0.1-0.1c0.1,0-0.2,0-0.2,0
		c0.1,0-0.2,0-0.1,0c0,0-0.1,0-0.1,0c0,0,0.1-0.1,0.2-0.3c0.2-0.3,0.5-0.8,0.8-1.4c0.5-0.9,1.2-1.8,1.8-2.3c0.4-0.3,0.8-0.5,1.2-0.5
		c0.3,0,0.6,0.2,0.7,0.5c0.1,0.2,0.2,0.5,0.2,0.8c0.1,0.8-0.1,1.7-0.2,2.5c-0.1,0.4-0.1,0.7-0.1,0.9c0,0.1,0,0.2,0,0.2
		c0,0,0-0.1,0,0c0,0-0.2-0.1-0.1-0.1c0.2,0.1,0.3,0.3,0.2,0.5c-0.1,0.2-0.3,0.3-0.5,0.2c-0.2-0.1-0.3-0.3-0.4-0.4c0-0.1,0-0.3,0-0.4
		c0-0.3,0.1-0.7,0.1-1c0.1-0.8,0.3-1.6,0.2-2.2c0-0.2-0.1-0.4-0.1-0.5c0-0.1,0,0,0,0c-0.1,0-0.4,0.1-0.6,0.3
		c-0.5,0.5-1.2,1.2-1.6,2.1c-0.3,0.5-0.6,1.1-0.8,1.4c-0.1,0.2-0.2,0.3-0.4,0.5c-0.1,0.1-0.2,0.2-0.5,0.1c-0.2-0.1-0.3-0.3-0.3-0.4
		c0-0.1,0-0.2,0-0.3c0-0.2,0.1-0.5,0.2-0.8c0.1-0.3,0.1-0.7,0.2-1.1c0.1-0.5,0.3-1,0.4-1.4C70,68.9,70,68.7,70,68.6
		C70,68.6,70,68.6,70,68.6C70,68.6,70.1,68.7,70,68.6"/>
	<path style="clip-path:url(#SVGID_00000152259266654208108200000012156607520647475870_);" d="M78.6,68.7c-0.1-0.2-0.1-0.4,0.1-0.6
		c0.2-0.1,0.4-0.1,0.6,0.1c0.5,0.7,0.2,1.5,0,2.4c-0.1,0.5-0.2,0.9-0.3,1.3c0,0.3-0.1,0.5-0.1,0.5c0,0.1,0,0,0,0.1c0,0,0-0.1,0-0.1
		c0,0-0.1-0.1-0.1-0.1c0,0-0.2-0.1-0.2-0.1c0.1,0-0.2,0-0.1,0c0,0-0.1,0-0.1,0c0,0,0-0.1,0.1-0.2c0.1-0.1,0.2-0.4,0.3-0.6
		c0.7-1.1,1.7-2.2,2.8-2.7c0.2-0.1,0.5-0.2,0.8-0.2c0.2,0,0.5,0,0.7,0.2c0.2,0.2,0.3,0.4,0.4,0.7c0,0.2,0,0.5,0,0.7
		c-0.1,0.5-0.2,1.1-0.4,1.7c-0.2,0.6-0.4,1.2-0.4,1.6c0,0.2,0,0.3,0,0.4c0,0,0,0,0,0c0,0,0.1,0,0.2,0c0.3,0,0.6-0.1,1.1-0.3
		c0.9-0.3,2-0.9,2.8-1.6c0.2-0.1,0.4-0.1,0.6,0.1c0.1,0.2,0.1,0.4-0.1,0.6c-0.9,0.8-2.1,1.4-3.1,1.8c-0.5,0.2-0.9,0.3-1.4,0.3
		c-0.2,0-0.4,0-0.6-0.1c-0.2-0.1-0.4-0.3-0.4-0.5c-0.1-0.3,0-0.5,0-0.8c0.1-0.5,0.3-1.1,0.5-1.6c0.2-0.5,0.3-1.1,0.4-1.5
		c0-0.2,0-0.4,0-0.5c0-0.1,0-0.1,0-0.1c0,0-0.1,0-0.2,0c-0.1,0-0.3,0-0.4,0.1c-0.8,0.3-1.8,1.4-2.4,2.4c-0.1,0.1-0.2,0.3-0.3,0.5
		c-0.1,0.2-0.2,0.4-0.5,0.5c-0.1,0-0.3,0-0.4-0.1c-0.1-0.1-0.2-0.2-0.2-0.3c-0.1-0.1-0.1-0.3,0-0.4c0-0.2,0.1-0.4,0.1-0.6
		c0.1-0.4,0.2-0.9,0.3-1.4C78.7,69.6,78.7,68.8,78.6,68.7"/>
	<path style="clip-path:url(#SVGID_00000152259266654208108200000012156607520647475870_);" d="M5.9,85c0.2-0.1,0.4-0.1,0.6,0.1
		c0.1,0.2,0.1,0.4-0.1,0.6c0,0,0.1-0.1,0.1-0.1c0,0,0.1-0.1,0.1-0.1c0,0.1,0-0.3,0-0.2c0,0.1-0.1-0.2-0.1-0.2c0,0-0.1-0.1-0.1-0.1
		c0,0-0.1,0,0,0c0,0,0,0,0,0c0,0,0.1,0,0.3,0c0.3,0,0.7,0,1.2,0c0.8,0,1.6-0.2,2.3-0.2c0.8,0,1.6,0.1,2.1,0.6c0.1,0.2,0.1,0.4,0,0.6
		c-0.2,0.1-0.4,0.1-0.6,0c-0.3-0.3-0.7-0.4-1.4-0.3c-0.7,0-1.5,0.2-2.3,0.2c-0.5,0-0.9,0-1.3,0c-0.2,0-0.3,0-0.5-0.1
		c-0.1,0-0.2,0-0.3-0.2c-0.1-0.1-0.1-0.2-0.1-0.4C5.8,85.1,5.8,85,5.9,85"/>
	<path style="clip-path:url(#SVGID_00000152259266654208108200000012156607520647475870_);" d="M5.9,87.7c0-0.2,0.2-0.4,0.4-0.4
		c0.2,0,0.4,0.2,0.4,0.4c0,0-0.1-0.1,0-0.1c0,0,0,0,0,0c0.1,0,0.4,0,0.7-0.1c0.7-0.1,1.5-0.5,2.4-0.8c0.9-0.3,1.9-0.4,2.8,0.1
		c0.2,0.1,0.3,0.4,0.2,0.6c-0.1,0.2-0.4,0.3-0.6,0.2c-1.3-0.6-3,0.4-4.6,0.8c-0.4,0.1-0.7,0.1-1,0.1c-0.2,0-0.3-0.1-0.5-0.2
		C6,88.1,5.9,87.9,5.9,87.7"/>
	<path style="clip-path:url(#SVGID_00000152259266654208108200000012156607520647475870_);" d="M34.9,81.7c0-0.2,0.2-0.4,0.4-0.4
		c0.2,0,0.4,0.2,0.4,0.4c0,0.9-0.2,2.1-0.4,3.5c-0.1,0.9-0.1,1.8-0.2,2.6c0,0.3-0.1,0.5-0.1,0.7c0,0.2-0.1,0.4-0.3,0.5
		c-0.1,0.1-0.2,0.1-0.4,0.1c-0.2,0-0.3-0.1-0.3-0.2c-0.3-0.3-0.2-0.7-0.3-1c0-0.4-0.1-0.8,0-1.3c0.1-0.4,0.2-0.9,0.3-1.4
		c0.3-0.9,0.6-2.1,1-3.1c0.4-1,0.8-1.7,1.2-2.3c0.4-0.6,0.8-1,1.4-1.1c0.4-0.1,1,0.1,1.3,0.5c0.5,0.6,0.4,1.5,0.4,2.4
		c0,0.6-0.2,1.3-0.4,1.8c-0.2,0.5-0.5,0.8-0.6,0.9c-0.1,0.2-0.2,0.3-0.2,0.3c0,0,0-0.1,0-0.1c0,0,0,0,0,0c0,0,0,0,0.1,0.1
		c0.1,0.1,0.3,0.2,0.4,0.3c0.9,0.7,1.3,2,1.2,3.1c0,0.4-0.2,0.8-0.6,1.1c-0.3,0.3-0.7,0.5-1.2,0.7c-0.7,0.2-1.6,0.2-2.2-0.1
		c-0.3-0.1-0.6-0.4-0.8-0.8c-0.1-0.4,0-0.8,0.2-1.3c0.1-0.2,0.4-0.3,0.6-0.2c0.2,0.1,0.3,0.4,0.2,0.6c-0.2,0.3-0.2,0.6-0.2,0.7
		c0,0.1,0.1,0.2,0.3,0.3c0.4,0.2,1.1,0.2,1.7,0c0.4-0.1,0.7-0.3,0.9-0.5c0.2-0.2,0.3-0.4,0.3-0.6c0.1-0.9-0.3-1.9-0.9-2.4
		c-0.1-0.1-0.3-0.2-0.4-0.3c-0.1-0.1-0.2-0.1-0.2-0.2c-0.1-0.1-0.1-0.3-0.1-0.5c0.1-0.3,0.2-0.4,0.3-0.6c0.2-0.3,0.4-0.5,0.5-0.8
		c0.2-0.4,0.3-1,0.3-1.6c0.1-0.8,0-1.6-0.2-1.9c-0.1-0.2-0.3-0.2-0.5-0.2c-0.2,0-0.5,0.3-0.9,0.8c-0.4,0.5-0.8,1.3-1.1,2.2
		c-0.4,1-0.7,2.1-1,3c-0.1,0.5-0.3,0.9-0.3,1.3c-0.1,0.4,0,0.8,0,1.1c0,0.3,0.1,0.6,0.1,0.6c0,0-0.1-0.1-0.1-0.1c0,0-0.2-0.1-0.1,0
		c0,0-0.2,0-0.1,0c0,0-0.1,0.1-0.1,0c0,0,0,0,0,0c0,0,0,0,0-0.1c0-0.2,0.1-0.4,0.1-0.7c0.1-0.7,0.1-1.7,0.2-2.6
		C34.6,83.6,34.9,82.5,34.9,81.7"/>
	<path style="clip-path:url(#SVGID_00000152259266654208108200000012156607520647475870_);" d="M46.4,81c0.2-0.2,0.4-0.1,0.6,0
		c0.2,0.2,0.1,0.4,0,0.6c0,0,0,0,0,0.1c-0.1,0.3-0.2,0.9-0.3,1.7c-0.1,1-0.2,2.3-0.2,3.4c0,1-0.1,1.8,0,2.4c0,0.2,0.1,0.4,0.2,0.5
		c0,0.1,0.1,0.1,0.1,0.1c0,0,0.1,0,0.2-0.1c0.1-0.1,0.3-0.5,0.6-1c0.7-1.3,1.3-2.8,2-4.1c0.3-0.6,0.7-1.2,1-1.6
		c0.2-0.2,0.3-0.4,0.5-0.5c0.2-0.1,0.4-0.2,0.6-0.2c0.2,0,0.4,0.2,0.4,0.4c0,0.2-0.2,0.4-0.4,0.4c0,0,0,0-0.1,0.1
		c-0.1,0.1-0.2,0.2-0.4,0.4c-0.3,0.4-0.6,0.9-0.9,1.5c-0.7,1.2-1.4,2.7-2,4c-0.2,0.4-0.4,1-0.8,1.3c-0.2,0.2-0.5,0.2-0.7,0.2
		c-0.2,0-0.5-0.2-0.6-0.3c-0.2-0.2-0.3-0.5-0.4-0.9c-0.1-0.7,0-1.6,0-2.5c0-1.1,0.1-2.4,0.2-3.4c0.1-0.5,0.1-1,0.2-1.4
		C46.1,81.5,46.2,81.2,46.4,81"/>
	<path style="clip-path:url(#SVGID_00000152259266654208108200000012156607520647475870_);" d="M54.9,83.4c0-0.2,0.2-0.4,0.5-0.4
		c0.2,0,0.4,0.2,0.4,0.5c-0.1,1-0.4,2.5-0.6,3.9c-0.1,0.6-0.2,1.1-0.2,1.5c0,0.4,0,0.8,0,1c0,0.1,0,0.1,0,0.1c0,0,0,0,0,0
		c0,0-0.1-0.1,0-0.1c0,0-0.1-0.1-0.1-0.1c0,0-0.3-0.1-0.2-0.1c0.1,0-0.3,0-0.2,0c0.1,0-0.1,0.1-0.1,0.1c0,0-0.1,0.1-0.1,0.1
		c0,0,0,0,0,0c0.2-0.4,0.3-1.4,0.5-2.6c0.2-1.1,0.5-2.2,0.7-3.1c0.2-0.6,0.3-1.2,0.5-1.6c0.1-0.4,0.4-0.7,0.7-0.9
		c0.3-0.2,0.6-0.2,0.9-0.2c1,0.1,2.1,0.6,2.6,1.4c0.3,0.5,0.3,1,0.1,1.6c-0.2,0.5-0.5,1-0.8,1.4c-0.4,0.4-0.9,0.7-1.4,0.8
		c-0.5,0.1-1.1-0.1-1.6-0.6c-0.1-0.2-0.1-0.4,0-0.6c0.2-0.1,0.4-0.1,0.6,0c0.3,0.3,0.5,0.4,0.8,0.3c0.3-0.1,0.6-0.3,0.9-0.6
		c0.3-0.3,0.5-0.7,0.6-1.1c0.1-0.4,0.1-0.7,0-0.9c-0.3-0.5-1.2-1-1.9-1c-0.2,0-0.3,0-0.4,0.1c-0.1,0.1-0.2,0.2-0.3,0.4
		c-0.1,0.4-0.3,0.9-0.4,1.5c-0.2,1-0.5,2-0.7,3.1c-0.2,1.1-0.3,2.1-0.6,2.7c0,0.1,0,0.1-0.2,0.2c-0.1,0.1-0.2,0.1-0.4,0.1
		c-0.2,0-0.2-0.1-0.3-0.2c-0.1-0.2-0.1-0.3-0.1-0.4c0-0.3,0-0.7,0-1.1c0-0.5,0.1-1,0.2-1.6C54.5,85.8,54.8,84.3,54.9,83.4"/>
	<path style="clip-path:url(#SVGID_00000152259266654208108200000012156607520647475870_);" d="M5.8,101.7c-0.2,0.1-0.4-0.1-0.5-0.3
		c-0.1-0.2,0.1-0.4,0.3-0.5c0.6-0.2,1.6-0.2,2.7-0.3c0.5-0.1,1-0.2,1.4-0.4c0.4-0.2,0.6-0.3,0.7-0.5c0.1-0.2,0.3-0.3,0.5-0.2
		c0.2,0.1,0.3,0.3,0.2,0.5c-0.2,0.5-0.6,0.7-1.1,0.9c-0.5,0.2-1.1,0.3-1.6,0.4C7.2,101.6,6.1,101.6,5.8,101.7"/>
	<path style="clip-path:url(#SVGID_00000152259266654208108200000012156607520647475870_);" d="M9.9,97.3c0.1,0.2,0.1,0.4-0.1,0.6
		C9.6,98,9.4,98,9.2,97.8c0,0,0.3,0.1,0.2,0.1c-0.1,0,0.3,0,0.2,0c0,0,0.1-0.1,0.1,0c0,0,0.1-0.1,0.1,0c0,0,0,0,0,0.1
		c-0.1,0.1-0.2,0.3-0.3,0.6C9.3,99,9,99.8,8.8,100.6c-0.2,0.8-0.4,1.6-0.4,2.3c0,0.3,0,0.6,0,0.8c0,0.2,0.1,0.3,0.1,0.3
		c0.2,0.1,0.2,0.4,0,0.6c-0.1,0.2-0.4,0.2-0.6,0c-0.2-0.2-0.4-0.5-0.4-0.8c-0.1-0.3-0.1-0.7,0-1c0.1-0.8,0.2-1.6,0.4-2.4
		c0.2-0.8,0.5-1.6,0.7-2.2c0.1-0.3,0.2-0.5,0.3-0.7c0-0.1,0.1-0.2,0.2-0.2c0,0,0.1-0.1,0.2-0.1C9.5,97.1,9.8,97.2,9.9,97.3"/>
	<path style="clip-path:url(#SVGID_00000152259266654208108200000012156607520647475870_);" d="M40.2,98.9c-0.1,0.2-0.3,0.3-0.5,0.2
		c-0.2-0.1-0.3-0.3-0.2-0.5c0.3-0.6,0.4-1.3,0.4-1.8c0-0.2-0.1-0.3-0.2-0.3c-0.2-0.1-0.4-0.1-0.8,0c-0.5,0.1-1.1,0.7-1.4,1.4
		c-0.3,0.5-0.3,1-0.3,1.5c0.1,0.6,0.9,1.2,1.6,1.7c0.3,0.3,0.7,0.5,0.8,0.9c0.1,0.3,0.1,0.8-0.2,1.1c-0.3,0.5-0.8,0.8-1.3,1
		c-0.9,0.5-2,0.6-2.9,0.4c-0.4-0.1-0.8-0.2-1.1-0.5c-0.3-0.3-0.4-0.7-0.3-1.2c0.1-0.2,0.3-0.3,0.5-0.3c0.2,0.1,0.3,0.3,0.3,0.5
		c0,0.2,0,0.3,0.1,0.4c0.1,0.1,0.4,0.2,0.7,0.3c0.7,0.1,1.6,0,2.4-0.4c0.4-0.2,0.8-0.5,1-0.7c0.1-0.2,0.1-0.3,0.1-0.5
		c0-0.1-0.2-0.3-0.5-0.5c-0.6-0.5-1.7-1.1-1.9-2.2c-0.1-0.6,0-1.3,0.4-2c0.4-0.8,1.1-1.6,1.9-1.8c0.5-0.1,1-0.1,1.4,0.1
		c0.3,0.2,0.5,0.6,0.6,0.9C40.7,97.4,40.5,98.2,40.2,98.9"/>
	<path style="clip-path:url(#SVGID_00000152259266654208108200000012156607520647475870_);" d="M45.5,95.7c0.2-0.1,0.4,0,0.5,0.2
		c0.1,0.2,0,0.4-0.2,0.5c0,0-0.1,0.1-0.2,0.3c-0.1,0.3-0.2,0.7-0.4,1.2c-0.5,1.6-1.2,4-1.4,5.6c-0.1,0.3-0.1,0.5-0.1,0.7
		c0,0.1,0,0.1,0,0.2c0,0,0,0,0,0c0,0-0.2-0.1-0.1-0.1c0,0-0.1,0,0,0c0.1,0,0.2-0.1,0.4-0.3c0.5-0.5,1.1-1.5,1.8-2.4
		c0.9-1.1,1.8-2.1,2.7-2.8c0.4-0.3,0.8-0.6,1.2-0.7c0.2-0.1,0.3-0.1,0.5-0.2c0.2,0,0.4,0,0.5,0.1c0.2,0.1,0.3,0.4,0.2,0.6
		c-0.1,0.2-0.4,0.3-0.6,0.2c0,0,0,0,0,0c-0.1,0-0.2,0-0.3,0.1c-0.3,0.1-0.6,0.3-1,0.6c-0.8,0.6-1.7,1.5-2.6,2.6
		c-0.7,0.9-1.3,1.9-1.9,2.6c-0.2,0.2-0.5,0.4-0.7,0.4c-0.1,0-0.3,0-0.4,0c-0.1,0-0.3-0.2-0.4-0.3c-0.2-0.4-0.1-0.9,0-1.4
		c0.3-1.7,0.9-4.1,1.4-5.7c0.2-0.5,0.3-0.9,0.4-1.2C45.1,96.1,45.3,95.8,45.5,95.7"/>
	<path style="clip-path:url(#SVGID_00000152259266654208108200000012156607520647475870_);" d="M47.5,101.1c0-0.2,0.3-0.4,0.5-0.3
		c0.2,0,0.4,0.3,0.3,0.5c-0.1,0.8-0.5,1.8-0.7,2.6c-0.1,0.4-0.1,0.7,0,0.8c0,0.1,0.1,0.1,0.1,0.1c0.1,0,0.1,0.1,0.3,0.1
		c0.2,0,0.4,0.2,0.4,0.4c0,0.2-0.2,0.4-0.4,0.4c-0.3,0-0.5-0.1-0.7-0.2c-0.2-0.1-0.4-0.3-0.4-0.5c-0.2-0.4-0.1-0.8,0-1.3
		C47,102.8,47.4,101.8,47.5,101.1"/>
	<path style="clip-path:url(#SVGID_00000152259266654208108200000012156607520647475870_);" d="M53.8,102.3c0.2-0.1,0.4-0.1,0.6,0
		c0.1,0.2,0.1,0.4,0,0.6c-0.3,0.3-0.6,1.1-0.7,1.8c0,0.4,0,0.7,0.1,0.7c0,0,0.1,0,0.2,0.1c0.1,0,0.4,0,0.6-0.1
		c0.5-0.2,1-0.5,1.5-0.9c0.5-0.4,0.7-1,0.9-1.6c0.1-0.2,0-0.4,0-0.6c0-0.1-0.1-0.2-0.3-0.3c-0.2-0.1-0.5-0.1-0.7-0.1
		c-0.3,0-0.5,0.1-0.7,0.1c-0.2,0.1-0.3,0.2-0.3,0.3c-0.1,0.2-0.3,0.3-0.5,0.2s-0.3-0.3-0.2-0.5c0.1-0.4,0.4-0.6,0.8-0.7
		c0.3-0.1,0.7-0.2,1.1-0.2c0.4,0,0.7,0.1,1.1,0.2c0.3,0.1,0.6,0.4,0.8,0.8c0.1,0.3,0.1,0.7,0,1c-0.1,0.7-0.5,1.4-1.1,2
		c-0.5,0.5-1.2,0.9-1.8,1.1c-0.3,0.1-0.6,0.2-0.9,0.2c-0.3,0-0.6-0.1-0.8-0.4c-0.3-0.4-0.3-0.9-0.2-1.3
		C52.9,103.8,53.1,102.8,53.8,102.3"/>
	<path style="clip-path:url(#SVGID_00000152259266654208108200000012156607520647475870_);" d="M61.8,101.9c-0.2,0.2-0.4,0.2-0.6,0
		c-0.2-0.2-0.2-0.4,0-0.6c0,0,0.1-0.2,0.4-0.1c0.2,0,0.3,0.2,0.3,0.3c0,0.1,0,0.1,0,0.2C61.9,101.8,61.9,101.8,61.8,101.9
		c0.1,0,0,0.1-0.1,0.3c-0.1,0.3-0.3,0.7-0.5,1.1c-0.2,0.4-0.4,0.7-0.5,0.9c0,0.1,0,0.1,0,0.2c0,0-0.1-0.1-0.1-0.1
		c0,0-0.2-0.1-0.2-0.1c0,0-0.1,0-0.1,0c0,0,0.1-0.1,0.2-0.2c0.2-0.1,0.3-0.3,0.5-0.5c0.7-0.6,1.4-1.3,2.1-1.6
		c0.3-0.1,0.6-0.2,0.9-0.1c0.2,0.1,0.4,0.3,0.4,0.5c0.1,0.2,0.1,0.3,0.1,0.5c0,0.3-0.1,0.7-0.1,1c-0.1,0.4-0.2,0.8-0.2,0.9
		c0,0,0,0.1,0,0.1c0,0,0.2,0.1,0.3,0.1c0.4,0.1,0.9,0,1.6-0.2c0.2-0.1,0.4,0.1,0.5,0.3c0.1,0.2-0.1,0.4-0.3,0.5
		c-0.8,0.2-1.5,0.3-2,0.2c-0.3-0.1-0.5-0.2-0.7-0.3c-0.2-0.2-0.3-0.4-0.3-0.7c0-0.4,0.2-0.7,0.3-1.1c0.1-0.3,0.1-0.6,0.1-0.9
		c0-0.1,0-0.2,0-0.2c0,0,0,0,0,0c0,0,0.1,0.1,0.1,0.1c0,0-0.2,0-0.3,0c-0.5,0.2-1.2,0.8-1.8,1.5c-0.2,0.2-0.3,0.4-0.5,0.5
		c-0.2,0.2-0.3,0.4-0.7,0.4c-0.1,0-0.3-0.1-0.4-0.2c-0.1-0.1-0.1-0.2-0.2-0.3c0-0.2,0-0.4,0.1-0.6c0.1-0.3,0.3-0.7,0.5-1
		c0.2-0.4,0.4-0.8,0.5-1.1c0.1-0.1,0.1-0.3,0.1-0.3c0,0,0,0,0,0c0,0,0,0.1,0,0.1c0,0,0,0.1,0,0.1c0,0,0,0.1,0,0.1
		c0,0,0.1,0.2,0.1,0.1c0,0,0.2,0.1,0.1,0.1c0,0,0.2,0.1,0.1,0.1c-0.1,0,0.2,0,0.2,0C61.6,102,61.8,101.9,61.8,101.9
		C61.8,102,61.8,101.9,61.8,101.9"/>
	<path style="clip-path:url(#SVGID_00000152259266654208108200000012156607520647475870_);" d="M68.9,101c-0.1-0.2-0.1-0.4,0.1-0.6
		c0.2-0.1,0.4-0.1,0.6,0.1c0,0-0.1-0.1-0.1-0.1c0,0-0.1,0,0,0c0,0,0,0,0,0c0,0,0,0,0.1,0c0.1,0,0.2,0.1,0.3,0.1
		c0.3,0.1,0.6,0.2,0.9,0.3c0.5,0.2,1.2,0.2,2.1,0.3c0.2,0,0.4,0.2,0.3,0.5c0,0.2-0.2,0.4-0.5,0.3c-0.8-0.1-1.6-0.1-2.3-0.3
		c-0.3-0.1-0.7-0.2-0.9-0.3c-0.1-0.1-0.2-0.1-0.3-0.1c0,0-0.1,0-0.1,0C69.1,101.1,69.1,101.2,68.9,101 M73.5,95.5
		c0.2,0,0.4,0.3,0.3,0.5c0,0.2-0.3,0.4-0.5,0.3c0,0,0.1,0,0.1,0c0,0,0.1,0,0.1,0c0,0,0,0,0,0c0,0-0.1,0.1-0.2,0.2
		c-0.2,0.2-0.4,0.4-0.6,0.8c-0.5,0.7-1,1.6-1.5,2.7c-0.6,1.4-1,2.9-1.1,4.2c-0.1,0.6-0.1,1.1-0.1,1.5c0,0.1,0,0.2,0,0.2c0,0,0,0,0,0
		c0,0-0.2-0.1-0.1-0.1c0.1,0-0.3,0-0.2,0c0.1,0-0.2,0.1-0.1,0.1c0,0,0,0,0,0c0.1-0.3,0.2-1.6,0.1-2.7c0-0.6-0.1-1.1-0.3-1.5
		c-0.1-0.1-0.2-0.3-0.3-0.4c-0.1,0-0.1-0.1-0.2-0.1c0,0,0,0-0.1-0.1c0,0,0,0-0.1-0.1c0,0-0.1-0.1-0.1-0.3c0-0.2,0.3-0.4,0.5-0.3
		c0.2,0,0.4,0.3,0.3,0.5c0,0.1,0-0.2,0-0.1c0,0.1-0.1-0.2-0.1-0.1c0,0-0.1-0.1-0.1-0.1c0,0,0,0,0,0c0,0,0,0,0,0c0,0,0.1,0.1,0.2,0.2
		c0.2,0.1,0.4,0.4,0.5,0.7c0.2,0.5,0.3,1.1,0.3,1.7c0,0.6,0,1.2,0,1.7c0,0.5,0,1-0.2,1.4c-0.1,0.1-0.2,0.2-0.3,0.3
		c-0.1,0-0.2,0-0.3,0c-0.1,0-0.2-0.1-0.2-0.1c-0.2-0.2-0.2-0.4-0.2-0.7c0-0.4,0-1,0.1-1.7c0.2-1.4,0.6-3,1.2-4.4
		c0.5-1.1,1-2.1,1.5-2.8c0.2-0.4,0.5-0.6,0.7-0.9c0.1-0.1,0.2-0.2,0.3-0.3C73.1,95.5,73.2,95.4,73.5,95.5"/>
	<path style="clip-path:url(#SVGID_00000152259266654208108200000012156607520647475870_);" d="M76.2,101.1c0.2,0,0.4,0.2,0.4,0.4
		c0,0.2-0.2,0.4-0.4,0.4c0,0,0.1,0,0.1,0c0,0,0,0-0.1,0.1c-0.1,0.1-0.2,0.2-0.4,0.4c-0.3,0.4-0.6,0.8-0.8,1.3
		c-0.2,0.5-0.4,0.9-0.4,1.3c0,0.3,0.1,0.4,0.2,0.5c0.2,0.1,0.7,0.2,1.3,0c0.8-0.2,1.8-1.2,2.4-2.1c0.3-0.4,0.5-0.8,0.5-1.1
		c0-0.1,0-0.2,0-0.2c0-0.1-0.1-0.1-0.3-0.2c-0.8-0.3-2.3,0-2.8,0.4c-0.2,0.1-0.4,0.1-0.6-0.1c-0.1-0.2-0.1-0.4,0.1-0.6
		c0.4-0.3,1-0.5,1.7-0.6c0.6-0.1,1.3-0.1,1.9,0.1c0.3,0.1,0.5,0.3,0.7,0.5c0.2,0.2,0.2,0.6,0.2,0.9c-0.1,0.5-0.3,0.9-0.7,1.4
		c-0.7,1-1.7,2-2.8,2.4c-0.7,0.2-1.5,0.3-2-0.2c-0.4-0.3-0.5-0.7-0.5-1.2c0-0.5,0.2-1.1,0.4-1.6c0.2-0.5,0.6-1,0.9-1.4
		c0.2-0.2,0.3-0.4,0.5-0.5C75.8,101.3,75.9,101.1,76.2,101.1"/>
	<path style="clip-path:url(#SVGID_00000152259266654208108200000012156607520647475870_);" d="M6,115.9c-0.2-0.2-0.2-0.4,0-0.6
		c0.2-0.2,0.4-0.2,0.6,0c0.4,0.4,1.1,0.5,2,0.5c0.9,0,1.9-0.1,2.7,0c0.2,0,0.4,0.2,0.4,0.4c0,0.2-0.2,0.4-0.4,0.4
		c-0.7-0.1-1.7,0-2.7,0C7.7,116.6,6.7,116.5,6,115.9"/>
	<path style="clip-path:url(#SVGID_00000152259266654208108200000012156607520647475870_);" d="M7.3,118.4c0.2-0.1,0.4,0.1,0.5,0.3
		c0.1,0.2-0.1,0.4-0.3,0.5c-0.2,0-0.3,0.1-0.3,0.1c0,0,0,0,0,0c0,0,0.1-0.1,0.1-0.1c0,0,0-0.1,0-0.1c0,0.1,0-0.2,0-0.2
		c0,0.1-0.1-0.1-0.1-0.1c0,0-0.1,0-0.1,0c0,0,0.2,0.1,0.5,0.1c0.8,0,2.1-0.1,3.3-0.4c0.2-0.1,0.4,0.1,0.5,0.3
		c0.1,0.2-0.1,0.4-0.3,0.5c-1.4,0.4-2.7,0.5-3.6,0.5c-0.4,0-0.7,0-1-0.3c-0.1-0.1-0.2-0.3-0.1-0.5c0.1-0.2,0.2-0.2,0.2-0.3
		C6.9,118.5,7.1,118.4,7.3,118.4"/>
	<path style="clip-path:url(#SVGID_00000152259266654208108200000012156607520647475870_);" d="M35.4,111.3c0.2,0.2,0.2,0.4,0,0.6
		c-0.2,0.2-0.4,0.2-0.6,0c-0.1-0.1-0.3-0.2-0.1-0.5c0.1-0.3,0.4-0.3,0.4-0.3c0.2,0,0.3,0,0.5,0.1c0.4,0.1,0.9,0.3,1.4,0.5
		c0.5,0.2,1,0.4,1.4,0.9c0.2,0.3,0.3,0.8,0.1,1.2c-0.3,0.7-1.1,1.1-1.7,1.7c-1.1,1-1.9,2.5-2.2,3.5c-0.1,0.4-0.1,0.7,0,0.9
		c0.1,0.2,0.4,0.3,0.7,0.4c0.7,0.1,1.7-0.2,2.2-0.9c0.1-0.2,0.4-0.2,0.6-0.1c0.2,0.1,0.2,0.4,0.1,0.6c-0.7,0.9-2,1.4-3,1.2
		c-0.5-0.1-1-0.3-1.3-0.7c-0.3-0.4-0.3-1-0.1-1.6c0.4-1.2,1.2-2.7,2.5-3.8c0.7-0.7,1.4-1.2,1.5-1.4c0.1-0.2,0.1-0.3,0-0.4
		c-0.1-0.2-0.5-0.4-1-0.6c-0.4-0.2-0.9-0.4-1.3-0.5c-0.2,0-0.3-0.1-0.3-0.1c0,0,0.1,0,0.1,0c0,0,0.1-0.1,0.1-0.1
		c0,0,0.2-0.2,0.1-0.2c0,0.1,0-0.3,0-0.2C35.5,111.5,35.5,111.4,35.4,111.3C35.5,111.4,35.4,111.3,35.4,111.3
		C35.5,111.3,35.4,111.3,35.4,111.3"/>
	<path style="clip-path:url(#SVGID_00000152259266654208108200000012156607520647475870_);" d="M36,116.8c0.2,0.1,0.2,0.4,0.1,0.6
		c-0.1,0.2-0.4,0.2-0.6,0.1c-0.2-0.2-0.4-0.3-0.5-0.4c-0.1-0.1-0.1-0.1-0.2-0.2c0,0-0.1-0.1-0.1-0.2c0-0.2,0.1-0.3,0.3-0.4
		c0.3-0.2,0.4,0,0.5,0c0.1,0,0.3,0.1,0.5,0.1c0.9,0.2,2.2,0.4,3.4-0.2c0.2-0.1,0.4,0,0.5,0.2c0.1,0.2,0,0.4-0.2,0.5
		c-1.5,0.7-3,0.4-3.9,0.2c-0.2-0.1-0.4-0.1-0.5-0.1c-0.1,0-0.1,0-0.1,0c0,0,0,0,0,0c0,0,0.1,0,0,0c0,0,0.1,0,0.1,0
		c0,0,0.2-0.2,0.2-0.1c0,0.1,0.1-0.3,0.1-0.2c0,0.1,0-0.2,0-0.1c0,0.1,0-0.1,0-0.1c0,0,0,0,0,0C35.7,116.5,35.8,116.7,36,116.8"/>
	<path style="clip-path:url(#SVGID_00000152259266654208108200000012156607520647475870_);" d="M46,112.3c0.2,0,0.4,0.3,0.3,0.5
		c0,0.2-0.3,0.4-0.5,0.3c-0.1,0,0.2,0,0.2,0c-0.1,0,0.1,0,0.1,0c0,0,0,0,0,0c0,0-0.1,0.1-0.1,0.2c-0.1,0.2-0.3,0.6-0.4,1
		c-0.3,0.8-0.6,1.9-0.8,3c-0.2,1.2-0.1,2.3,0.2,2.8c0.1,0.2,0.2,0.3,0.4,0.3c0.1,0,0.3,0,0.6-0.1c0.8-0.4,1.8-2.2,2.6-3.8
		c0.4-0.9,0.8-1.7,1.2-2.3c0.2-0.3,0.4-0.6,0.6-0.8c0.2-0.2,0.5-0.4,0.8-0.4c0.2,0,0.4,0.1,0.4,0.4c0,0.2-0.1,0.4-0.4,0.4
		c-0.1,0-0.2,0.1-0.3,0.2c-0.1,0.1-0.3,0.3-0.4,0.6c-0.3,0.6-0.7,1.3-1.1,2.2c-0.9,1.7-1.8,3.5-2.9,4.2c-0.4,0.2-0.8,0.3-1.1,0.2
		c-0.4-0.1-0.7-0.3-0.9-0.7c-0.5-0.8-0.5-2-0.3-3.3c0.2-1.2,0.5-2.3,0.8-3.2c0.2-0.4,0.3-0.8,0.5-1.1c0.1-0.1,0.2-0.2,0.2-0.3
		C45.6,112.4,45.7,112.2,46,112.3"/>
	<path style="clip-path:url(#SVGID_00000152259266654208108200000012156607520647475870_);" d="M53.4,118.8c0.1-0.2,0.4-0.3,0.6-0.2
		c0.2,0.1,0.3,0.4,0.2,0.6c-0.3,0.5-0.5,1.2-0.7,1.7c-0.1,0.3-0.3,0.6-0.4,0.8c0,0.1-0.1,0.1-0.2,0.2c0,0-0.1,0.1-0.3,0.2
		c-0.1,0-0.2,0-0.3-0.1c-0.1-0.1-0.1-0.1-0.2-0.2c-0.2-0.3-0.1-0.5,0-0.8c0.1-0.3,0.2-0.6,0.2-1c0.1-0.4,0.2-0.9,0.4-1.4
		c0.3-0.9,0.7-1.9,1.1-2.9c0.3-0.8,0.7-1.6,1-2.3c0.3-0.6,0.5-1.1,0.7-1.5c0.2-0.3,0.3-0.5,0.6-0.7c0.2-0.1,0.4-0.1,0.5,0
		c0.1,0.1,0.3,0.1,0.4,0.2c0.2,0.2,0.4,0.4,0.6,0.6c0.3,0.3,0.7,0.7,1,1.1c0.2,0.2,0.3,0.5,0.3,0.8c0,0.4-0.1,0.7-0.4,1
		c-0.2,0.3-0.6,0.5-0.9,0.7c-0.7,0.4-1.5,0.7-2.2,0.9c-0.2,0.1-0.4-0.1-0.5-0.3c-0.1-0.2,0.1-0.4,0.3-0.5c0.6-0.1,1.4-0.4,2-0.8
		c0.3-0.2,0.6-0.4,0.7-0.5c0.1-0.2,0.2-0.3,0.2-0.4c0-0.1-0.1-0.3-0.2-0.5c-0.2-0.3-0.5-0.6-0.9-1c-0.2-0.2-0.3-0.4-0.5-0.5
		c-0.1-0.1-0.1-0.1-0.1-0.1c0,0,0,0,0,0c0,0,0.1,0,0.1,0c0,0-0.1,0.2-0.3,0.4c-0.2,0.3-0.4,0.8-0.6,1.3c-0.3,0.7-0.6,1.5-0.9,2.3
		c-0.4,1-0.8,2-1.1,2.9c-0.2,0.5-0.3,1-0.4,1.4c-0.1,0.4-0.2,0.7-0.2,1c0,0.1,0,0.2-0.1,0.3c0,0,0,0.1,0,0.1c0,0,0-0.1,0-0.1
		c0,0-0.1-0.1,0-0.1c0,0-0.1-0.1-0.1-0.1c0,0-0.2-0.1-0.1-0.1c0.1,0-0.2,0-0.1,0c0,0-0.1,0-0.1,0c0,0-0.1,0.1-0.1,0c0,0,0,0,0,0
		c0,0,0,0,0.1-0.1c0.1-0.1,0.2-0.4,0.3-0.7C52.9,120,53.1,119.3,53.4,118.8"/>
	<path style="clip-path:url(#SVGID_00000152259266654208108200000012156607520647475870_);" d="M33.9,115.5c0.2-0.1,0.4,0,0.6,0.2
		s0,0.4-0.2,0.6c0,0-0.1,0-0.1,0.1c0,0,0,0,0,0c0,0,0-0.1,0-0.1c0,0,0-0.2,0-0.1c0,0-0.1-0.2,0-0.1c0,0-0.1-0.1-0.1-0.1
		c0,0-0.1,0-0.1,0c0,0,0.1,0,0.3,0c0.2,0,0.4-0.1,0.8-0.1c0.4-0.1,0.8-0.1,1.2-0.1c0.2,0,0.5,0,0.6-0.1c0.1,0,0.1,0,0.2,0
		c0,0,0,0,0,0c0,0,0,0,0,0c0,0-0.1,0.1-0.1,0.1c0.2-0.2,0.4-0.1,0.6,0c0.2,0.2,0.1,0.4,0,0.6c-0.2,0.2-0.3,0.1-0.4,0.1
		c-0.1,0-0.1,0-0.2,0c-0.1,0-0.3,0-0.4,0c-0.6,0-1.4,0-2.1,0.1c-0.3,0.1-0.6,0.1-0.7,0.2c-0.1,0.1-0.2,0.1-0.1,0.3
		c0,0.2-0.2,0.4-0.4,0.4c-0.2,0-0.4-0.2-0.4-0.4c0-0.4,0.2-0.8,0.5-1c0.3-0.2,0.7-0.3,1.1-0.4c0.8-0.1,1.6-0.1,2.2-0.1
		c0.2,0,0.3,0,0.5,0c0.1,0,0.1,0,0.1,0c0,0,0,0,0,0c0,0-0.1,0-0.1,0c0,0-0.1,0.1-0.1,0.1l0.6,0.6c-0.2,0.2-0.2,0.1-0.3,0.1
		c-0.2,0-0.5,0.1-0.9,0.1c-0.4,0-0.8,0-1.1,0.1c-0.3,0-0.6,0.1-0.9,0.1c-0.3,0-0.5,0-0.8-0.2c-0.1-0.1-0.1-0.2-0.2-0.3
		c0-0.1,0-0.3,0.1-0.3C33.7,115.7,33.8,115.6,33.9,115.5"/>
	<path style="clip-path:url(#SVGID_00000152259266654208108200000012156607520647475870_);" d="M6.6,133.6c-0.2,0-0.4-0.2-0.3-0.5
		c0-0.2,0.2-0.4,0.5-0.3c1.5,0.2,4.6,0.1,6-0.8c0.2-0.1,0.4-0.1,0.6,0.1c0.1,0.2,0.1,0.4-0.1,0.6c-0.8,0.5-2.1,0.8-3.3,0.9
		C8.6,133.8,7.4,133.8,6.6,133.6"/>
	<path style="clip-path:url(#SVGID_00000152259266654208108200000012156607520647475870_);" d="M11,128.8c0,0.2-0.2,0.4-0.4,0.4
		c-0.2,0-0.4-0.2-0.4-0.4c0,0,0,0,0,0c0,0,0,0.1,0,0.1c0,0,0,0.1,0,0.1c0,0,0.1,0.1,0.1,0.1c0,0,0.2,0.1,0.2,0.1c-0.1,0,0.3,0,0.2,0
		c-0.1,0,0.2-0.1,0.1,0c-0.1,0,0.1-0.1,0.1-0.1C10.9,128.9,11,128.8,11,128.8C11,128.9,11,128.8,11,128.8c-0.1,0.1-0.1,0.1-0.1,0.3
		c-0.1,0.3-0.2,0.8-0.3,1.3c-0.3,1.1-0.7,2.4-0.9,3.6c-0.2,1.1-0.2,2.1,0.1,2.6c0.1,0.2,0.1,0.4-0.1,0.6s-0.4,0.1-0.6-0.1
		c-0.5-0.8-0.4-1.9-0.2-3.1c0.2-1.2,0.6-2.5,0.9-3.6c0.1-0.5,0.3-1,0.3-1.3c0-0.2,0.1-0.3,0.1-0.4c0,0,0-0.1,0.2-0.2
		c0.1-0.1,0.4,0,0.5,0.1c0.1,0.1,0.1,0.2,0.1,0.2C11.1,128.7,11,128.7,11,128.8"/>
	<path style="clip-path:url(#SVGID_00000152259266654208108200000012156607520647475870_);" d="M35,129c0.2-0.1,0.4,0,0.5,0.2
		c0.1,0.2,0,0.4-0.2,0.5c-0.1,0,0.1-0.1,0.1-0.1c0,0,0.1-0.1,0.1-0.1c0,0,0-0.1,0,0c0,0,0,0,0,0c0,0,0,0.2,0,0.3
		c-0.1,1.2-0.5,3-0.7,4.5c-0.1,0.8-0.1,1.4-0.2,1.8c0,0.2,0,0.4,0,0.4l-0.8-0.1c0,0,0-0.5,0-1.1c0-0.9-0.1-1.9-0.1-3
		c0-0.4,0-0.8,0-1.2c0.1-1,0.5-2.1,0.9-3c0.4-0.9,1-1.4,1.7-1.6c0.6-0.2,1.3-0.1,1.8,0.3c0.4,0.4,0.7,1,0.8,1.6c0.1,0.6,0,1.3-0.3,2
		c-0.2,0.6-0.6,1-0.9,1.3c-0.3,0.4-0.6,0.6-0.8,0.8c-0.1,0.1-0.1,0.2-0.1,0.3c0,0.2,0,0.4,0.1,0.7c0.2,0.7,0.3,1.5,0.6,2.1
		c0.3,0.6,0.7,1.2,1.5,1.4c0.2,0.1,0.3,0.3,0.3,0.5c-0.1,0.2-0.3,0.3-0.5,0.3c-1-0.3-1.7-1-2-1.8c-0.4-0.8-0.5-1.6-0.6-2.3
		c-0.1-0.3-0.1-0.6-0.1-0.9c0-0.3,0.1-0.6,0.3-0.9c0.2-0.3,0.5-0.5,0.8-0.8c0.3-0.3,0.6-0.7,0.7-1c0.2-0.5,0.3-1.1,0.2-1.6
		c-0.1-0.5-0.3-0.9-0.5-1.1c-0.3-0.2-0.6-0.3-1-0.2c-0.4,0.1-0.8,0.5-1.2,1.2c-0.4,0.8-0.7,1.8-0.8,2.7c0,0.4,0,0.8,0,1.2
		c0,1,0,2.1,0.1,3c0,0.4,0,0.6,0,0.9c0,0.2,0,0.3,0,0.4c0,0.2-0.2,0.4-0.4,0.4c-0.2,0-0.4-0.2-0.4-0.4c0,0,0-0.2,0-0.4
		c0-0.4,0.1-1.1,0.2-1.9c0.2-1.6,0.6-3.4,0.7-4.5c0-0.2,0-0.3,0.1-0.4c0,0,0-0.1,0-0.1C34.8,129.2,34.8,129.1,35,129 M35.6,129.4
		c0,0.2-0.1,0.4-0.4,0.5c-0.2,0-0.4-0.1-0.5-0.4c0,0,0,0,0,0c0,0,0,0.1,0,0.1c0,0,0.1,0.1,0,0.1c0,0,0.2,0.1,0.1,0.1
		c-0.2-0.1-0.3-0.4-0.2-0.6s0.4-0.3,0.6-0.2c0.2,0.1,0.2,0.2,0.2,0.3C35.6,129.4,35.6,129.4,35.6,129.4"/>
	<path style="clip-path:url(#SVGID_00000152259266654208108200000012156607520647475870_);" d="M46.3,132.5c0,0.2-0.2,0.4-0.5,0.4
		c-0.2,0-0.4-0.2-0.4-0.5c0,0,0,0.1,0,0.1c0,0,0,0-0.1-0.1c-0.1-0.1-0.3-0.1-0.6-0.1c-0.3,0-0.7,0.3-1,0.6c-0.3,0.3-0.5,0.8-0.7,1.3
		c-0.1,0.3-0.1,0.5-0.1,0.7c0,0,0,0.1,0,0.1c0,0,0.1,0,0.2,0c0.2,0,0.6-0.3,1.1-0.6c0.4-0.2,0.7-0.5,1-0.7c0.1-0.1,0.2-0.1,0.4-0.1
		c0.1,0,0.3,0,0.5,0.1c0.2,0.1,0.3,0.3,0.3,0.5c0,0.1,0,0.3,0,0.4c0,0.3,0,0.6,0,0.9c0,0.3,0.1,0.5,0.1,0.5c0,0,0,0,0.1,0.1
		c0.1,0,0.2,0,0.3,0c0.2,0,0.4,0.1,0.5,0.3c0,0.2-0.1,0.4-0.3,0.5c-0.2,0-0.5,0.1-0.7,0c-0.2-0.1-0.4-0.2-0.5-0.3
		c-0.2-0.3-0.3-0.7-0.3-1c0-0.3,0-0.7,0-0.9c0-0.1,0-0.2,0-0.2c0,0,0,0,0,0c0,0,0.2,0.1,0.1,0.1c0,0,0.1,0,0.1,0c0,0,0,0,0,0
		c0,0-0.1,0-0.2,0.1c-0.2,0.1-0.6,0.4-1,0.6c-0.4,0.3-0.9,0.7-1.5,0.7c-0.2,0-0.5,0-0.7-0.2c-0.2-0.1-0.3-0.4-0.4-0.6
		c-0.1-0.3,0-0.7,0.1-1c0.2-0.5,0.4-1.2,0.9-1.7c0.4-0.4,0.9-0.8,1.5-0.8c0.4,0,0.7,0,1,0.2c0.1,0.1,0.3,0.2,0.4,0.3
		C46.3,132.1,46.4,132.3,46.3,132.5"/>
	<path style="clip-path:url(#SVGID_00000152259266654208108200000012156607520647475870_);" d="M52.3,128.2c0,0.2-0.1,0.4-0.4,0.4
		c-0.2,0-0.4-0.1-0.4-0.4c0-0.2,0-0.5,0-0.8c0-0.2,0-0.3,0.1-0.4c0,0,0.1-0.2,0.3-0.2c0.1,0,0.3,0,0.3,0.1c0.1,0.1,0.1,0.1,0.1,0.2
		c0,0.1,0,0.2,0,0.3c-0.1,0.5-0.3,1.2-0.6,2c-0.2,0.7-0.5,1.4-0.7,2c-0.3,0.7-0.5,1.2-0.6,1.5c0,0.1,0,0.2,0,0.2c0,0,0,0,0,0
		c0,0-0.1-0.1,0-0.1c0,0-0.1-0.1-0.1-0.1c0,0-0.1,0-0.1,0c0,0,0,0,0,0c0,0,0.1,0,0.2,0c0.2-0.1,0.5-0.2,0.7-0.3
		c0.4-0.2,0.8-0.3,1.1-0.4c0.4-0.1,0.8,0,1.1,0.2c0.5,0.4,0.6,1,0.7,1.6c0,0.2,0.1,0.5,0,0.8c-0.1,0.5-0.4,1-0.9,1.2
		c-0.4,0.3-0.9,0.4-1.4,0.4c-0.5,0-1-0.2-1.3-0.6c-0.3-0.4-0.3-1.1-0.1-1.8c0.1-0.2,0.3-0.3,0.5-0.2c0.2,0.1,0.3,0.3,0.2,0.5
		c-0.2,0.5-0.1,0.8,0,1c0.1,0.2,0.3,0.3,0.7,0.3c0.3,0,0.7-0.1,1-0.3c0.3-0.2,0.4-0.4,0.5-0.6c0-0.2,0-0.4,0-0.6
		c-0.1-0.5-0.2-1-0.4-1.1c-0.1-0.1-0.3-0.1-0.5-0.1c-0.3,0-0.6,0.2-0.9,0.3c-0.2,0.1-0.5,0.2-0.8,0.3c-0.1,0-0.3,0.1-0.4,0.1
		c-0.1,0-0.2,0-0.2,0c-0.1,0-0.2-0.1-0.3-0.2c-0.2-0.3-0.1-0.6,0-0.8c0.1-0.4,0.4-0.9,0.6-1.6c0.2-0.6,0.5-1.3,0.7-1.9
		c0.3-0.8,0.5-1.6,0.6-1.9c0,0,0,0,0,0c0,0,0,0,0,0c0,0,0,0.1,0,0.1c0,0,0,0.1,0,0.1c0,0,0.2,0.2,0.1,0.1c0,0,0.2,0.1,0.1,0.1
		c0,0,0.2,0,0.1,0c-0.1,0,0.2-0.1,0.1,0c-0.1,0,0.1-0.1,0.1-0.1c0,0,0-0.1,0,0c0,0,0-0.1,0,0c0,0,0,0,0,0.1
		C52.3,127.8,52.3,128.1,52.3,128.2"/>
	<path style="clip-path:url(#SVGID_00000152259266654208108200000012156607520647475870_);" d="M59.6,131.6c0.2,0,0.4,0.2,0.4,0.4
		c0,0.2-0.2,0.4-0.4,0.4c-0.2,0-0.2,0-0.3-0.1c-0.1,0-0.2,0-0.4,0c-0.2,0-0.5,0.2-0.8,0.5c-0.4,0.3-0.8,1-1,1.6
		c-0.2,0.5-0.2,0.9-0.2,1c0,0,0,0,0,0c0,0,0,0,0.1,0c0.3,0,0.9-0.3,1.4-0.7c0.4-0.2,0.6-0.5,1-0.6c0.2-0.1,0.5,0,0.7,0.1
		c0.2,0.2,0.2,0.3,0.2,0.5c0.1,0.6-0.1,1.3,0,1.7c0,0,0,0.1,0,0.1c0,0-0.1-0.1,0,0c0,0-0.1-0.1-0.1-0.1c0,0-0.2-0.1-0.2-0.1
		c0,0-0.1,0-0.1,0c0,0,0.2-0.2,0.6-0.6c0.1-0.2,0.4-0.2,0.6-0.1c0.2,0.1,0.2,0.4,0.1,0.6c-0.4,0.5-0.6,0.7-0.9,0.9
		c-0.2,0.1-0.5,0-0.6-0.2c-0.1-0.2-0.1-0.3-0.1-0.4c0-0.5,0.1-1.2,0.1-1.6c0-0.1,0,0,0-0.1c0,0,0.1,0.1,0.1,0c0,0,0.1,0,0.1,0
		c-0.1,0-0.5,0.3-0.9,0.6c-0.5,0.3-1.1,0.7-1.8,0.8c-0.2,0-0.3,0-0.5-0.1c-0.2-0.1-0.3-0.2-0.4-0.4c-0.2-0.5-0.1-1.1,0.2-1.7
		c0.3-0.7,0.6-1.5,1.3-2c0.4-0.3,0.7-0.5,1.2-0.6c0.3-0.1,0.5,0,0.7,0C59.5,131.6,59.5,131.6,59.6,131.6
		C59.6,131.6,59.6,131.6,59.6,131.6C59.6,131.6,59.6,131.6,59.6,131.6C59.6,131.6,59.5,131.6,59.6,131.6"/>
	<path style="clip-path:url(#SVGID_00000152259266654208108200000012156607520647475870_);" d="M68.2,125.3c0-0.2,0.1-0.4,0.3-0.5
		c0.2,0,0.4,0.1,0.5,0.3c0.1,0.4,0,0.9-0.2,1.5c-0.2,0.7-0.6,1.7-1.1,2.8c-0.4,0.8-0.8,1.8-1.1,2.7c-0.5,1.1-1,2.1-1.3,3.1
		c-0.5,1.4-0.7,2.7-0.6,3.3c0,0.1,0,0.1,0,0.1c0,0,0,0,0,0c0,0-0.2,0-0.1,0c0,0,0,0,0,0c0.1-0.1,0.5-0.4,0.9-1.1
		c0.1-0.2,0.4-0.3,0.6-0.1c0.2,0.1,0.3,0.4,0.1,0.6c-0.5,0.7-0.8,1.2-1.2,1.4c-0.2,0.1-0.5,0.1-0.7,0c-0.2-0.2-0.3-0.4-0.3-0.6
		c-0.2-0.9,0.1-2.2,0.6-3.7c0.4-1.1,0.9-2.1,1.3-3.2c0.4-0.9,0.8-1.8,1.1-2.7c0.5-1.1,0.9-2,1.1-2.7
		C68.2,125.9,68.2,125.6,68.2,125.3"/>
	<path style="clip-path:url(#SVGID_00000152259266654208108200000012156607520647475870_);" d="M68.9,137.4c0.1,0.2,0,0.4-0.2,0.5
		c-0.2,0.1-0.4,0-0.5-0.2c0-0.1,0-0.1,0-0.1c0-0.1,0-0.2,0-0.4c0-0.6,0-1.7,0-2.4c0-0.2,0.2-0.4,0.4-0.4c0.2,0,0.4,0.2,0.4,0.4
		c0.1,0.8,0,1.9,0,2.5c0,0.1,0,0.2,0,0.2C68.9,137.5,68.9,137.5,68.9,137.4C68.9,137.5,68.9,137.4,68.9,137.4 M72.4,127.6
		c0.2,0.2,0.2,0.4,0,0.6c-0.2,0.2-0.4,0.2-0.6,0c0,0,0.2,0.1,0.2,0.1c-0.1,0,0.2,0,0.1,0c-0.1,0,0.2-0.1,0.1,0c0,0,0.1-0.1,0.1-0.1
		c0,0,0,0,0,0c0,0,0,0,0,0.1c0,0.1-0.1,0.2-0.2,0.4c-0.2,0.3-0.4,0.8-0.6,1.3c-0.2,0.4-0.3,0.8-0.5,1.3c-0.3,0.8-0.8,1.6-1.1,2.4
		c-0.4,1.1-0.7,2.2-0.9,3.1c-0.1,0.3-0.1,0.6-0.1,0.8c0,0.1,0,0.1,0,0.2c0,0,0,0,0,0.1c-0.1,0.2-0.4,0.3-0.6,0.2
		c-0.2-0.1-0.3-0.4-0.2-0.6c0,0,0,0.1,0,0.1c0,0,0,0,0,0c0,0,0,0,0,0c0-0.1,0-0.5,0.1-0.9c0.2-0.9,0.4-2.1,0.9-3.2
		c0.4-0.9,0.8-1.7,1.1-2.4c0.2-0.5,0.3-0.9,0.5-1.4c0.2-0.6,0.5-1,0.7-1.4c0.1-0.2,0.2-0.3,0.2-0.4c0-0.1,0.1-0.1,0.1-0.1
		c0,0,0-0.1,0.1-0.1c0,0,0.1-0.1,0.2-0.1C72.1,127.4,72.3,127.5,72.4,127.6"/>
	<path style="clip-path:url(#SVGID_00000152259266654208108200000012156607520647475870_);" d="M64.5,133.2c0-0.2,0.1-0.4,0.4-0.4
		c0.2,0,0.4,0.1,0.4,0.4c0,0.1,0-0.1,0-0.1c0,0,0-0.1,0,0c0,0,0,0,0,0c0,0,0,0,0.1,0c0.4,0.1,1.5-0.1,3-0.1c1.5-0.1,3.4-0.1,5.5,0.4
		c0.2,0,0.4,0.3,0.3,0.5c0,0.2-0.3,0.4-0.5,0.3c-2-0.4-3.8-0.4-5.3-0.4c-1.4,0.1-2.5,0.3-3.2,0.1c-0.2,0-0.3-0.1-0.4-0.2
		c-0.1,0-0.1-0.1-0.1-0.2C64.5,133.3,64.5,133.3,64.5,133.2 M66.8,133.1c0.2-0.1,0.4,0.1,0.5,0.3c0.1,0.2-0.1,0.4-0.3,0.5
		c-0.6,0.2-1,0.1-1.4,0c-0.4-0.1-0.7-0.2-0.9-0.3c0,0,0.1,0,0,0c-0.2-0.1-0.3-0.3-0.3-0.5c0.1-0.2,0.3-0.3,0.5-0.3c0,0,0,0,0,0
		c0.1,0,0.5,0.2,0.8,0.3C66.1,133.1,66.4,133.2,66.8,133.1"/>
	<path style="clip-path:url(#SVGID_00000152259266654208108200000012156607520647475870_);" d="M49.9,135.5c0,0.2-0.2,0.4-0.4,0.4
		c-0.2,0-0.4-0.2-0.4-0.4c0-0.2,0-0.1,0-0.1c0,0,0-0.1,0.1-0.2c0.1-0.2,0.1-0.4,0.2-0.6c0.2-0.5,0.5-1.1,0.8-1.6
		c0.4-0.5,0.8-1,1.4-1.1c0.5,0,0.9,0.3,1.2,0.6c0.6,0.9,0.4,2.1,0.4,3.2c0,0.6-0.1,1.2-0.2,1.7c-0.1,0.3-0.3,0.5-0.5,0.6
		c-0.2,0.1-0.5,0.1-0.7,0.1c-0.5,0-0.9-0.1-1.4-0.2c-0.4-0.1-0.8-0.1-1-0.1c-0.1,0,0,0,0,0c0,0,0,0.1,0,0.2c0.1,0.2-0.1,0.4-0.3,0.5
		c-0.2,0.1-0.4-0.1-0.5-0.3c-0.1-0.3-0.1-0.5,0-0.8c0.1-0.2,0.4-0.4,0.6-0.4c0.4-0.1,0.9,0,1.3,0.1s0.9,0.2,1.2,0.2
		c0.2,0,0.3,0,0.3-0.1c0.1,0,0.1,0,0.1-0.1c0.1-0.3,0.2-0.9,0.2-1.5c0.1-1.1,0.1-2.2-0.2-2.7c-0.1-0.2-0.4-0.3-0.4-0.3
		c-0.2,0-0.5,0.3-0.8,0.7c-0.3,0.4-0.6,1-0.7,1.5C50,135,50,135.2,49.9,135.5C49.9,135.4,49.9,135.5,49.9,135.5
		C49.9,135.5,49.9,135.5,49.9,135.5C49.9,135.5,49.9,135.5,49.9,135.5C49.9,135.5,49.9,135.5,49.9,135.5
		C49.9,135.5,49.9,135.4,49.9,135.5 M52.9,127.4c0.1,0.2-0.1,0.4-0.3,0.5c-0.2,0.1-0.4-0.1-0.5-0.3c-0.1-0.3-0.1-0.5-0.1-0.8
		c0,0,0,0,0,0c0,0,0.1,0.1,0.1,0.1c0,0,0.3,0,0.2,0c-0.1,0,0.1-0.1,0.1-0.1c0,0-0.2,1-0.4,2c-0.3,1.6-0.9,3.3-1.4,4.6
		c-0.2,0.6-0.5,1.2-0.6,1.6c-0.1,0.2-0.1,0.3-0.2,0.5c0,0,0,0,0,0.1c-0.1,0.2-0.4,0.2-0.6,0.1c-0.2-0.1-0.2-0.4-0.1-0.6
		c0,0,0,0.1,0,0.1c0,0,0,0,0,0c0,0,0.1-0.2,0.2-0.5c0.2-0.4,0.4-0.9,0.6-1.6c0.5-1.3,1.1-2.9,1.3-4.4c0.1-0.5,0.1-0.9,0.2-1.4
		c0.1-0.4,0.1-0.7,0.3-1c0.1-0.1,0.2-0.2,0.3-0.2c0.1,0,0.3,0,0.4,0.1c0.2,0.1,0.3,0.3,0.3,0.5C52.8,127.1,52.9,127.3,52.9,127.4"/>
	<path style="clip-path:url(#SVGID_00000152259266654208108200000012156607520647475870_);" d="M6,148.1c-0.2-0.2-0.2-0.4,0-0.6
		c0.2-0.2,0.4-0.2,0.6,0c0.2,0.2,0.6,0.3,1.1,0.4c0.5,0,1.1,0,1.7-0.1c0.6-0.1,1.2-0.2,1.8-0.3c0.5-0.1,1-0.1,1.4,0
		c0.2,0.1,0.3,0.3,0.3,0.5c-0.1,0.2-0.3,0.3-0.5,0.3c-0.3-0.1-1.5,0.1-2.8,0.3c-0.6,0.1-1.3,0.1-1.9,0.1C7,148.7,6.4,148.5,6,148.1"
		/>
	<path style="clip-path:url(#SVGID_00000152259266654208108200000012156607520647475870_);" d="M6.6,150.3c0.2,0,0.4,0.1,0.4,0.4
		c0,0.2-0.1,0.4-0.4,0.4c-0.1,0-0.1,0-0.1,0c0,0,0,0-0.1,0c0,0-0.1,0-0.2-0.1c-0.1-0.1-0.1-0.3-0.1-0.4c0.1-0.3,0.2-0.2,0.2-0.3
		C6.5,150.3,6.5,150.3,6.6,150.3c0.3-0.1,0.8-0.1,1.3-0.2c1.2-0.1,2.7-0.3,4-0.3c0.2,0,0.4,0.2,0.4,0.4c0,0.2-0.2,0.4-0.4,0.4
		c-1.3,0.1-2.8,0.2-3.9,0.3c-0.5,0.1-1,0.1-1.2,0.2c-0.1,0-0.1,0-0.1,0c0,0,0,0,0,0c0,0,0.1,0,0,0c0,0,0.1,0,0.1,0c0,0,0.1,0,0,0
		c0,0,0.1-0.1,0.1-0.1c0,0,0.1-0.2,0.1-0.2c0,0.1-0.1-0.3,0-0.2c0,0.1-0.1-0.2-0.1-0.1C6.8,150.4,6.7,150.4,6.6,150.3
		C6.7,150.4,6.6,150.3,6.6,150.3C6.6,150.3,6.5,150.3,6.6,150.3C6.6,150.3,6.6,150.3,6.6,150.3"/>
	<path style="clip-path:url(#SVGID_00000152259266654208108200000012156607520647475870_);" d="M36.6,143.8c-0.2,0.2-0.4,0.1-0.6,0
		c-0.2-0.2-0.1-0.4,0-0.6c0,0,0.2-0.3,0.5-0.6c0.1-0.1,0.1-0.3,0.5-0.4c0.1,0,0.2,0,0.3,0c0.1,0,0.1,0.1,0.2,0.1
		c0.1,0.1,0.1,0.2,0.1,0.3c0,0.2,0.1,0.4,0,0.6c0,0.5-0.1,1.1-0.4,1.8c-0.3,1-0.9,2.1-1.4,3.2c-0.3,0.7-0.7,1.3-1,1.9
		c-0.5,0.8-0.8,1.4-1,1.8c-0.1,0.2-0.1,0.4-0.1,0.5c0,0.1,0,0.1,0,0.1c0,0-0.1,0-0.1,0c0,0,0,0,0.1,0c0.1,0,0.3-0.1,0.5-0.2
		c1.2-0.4,2.5-0.4,4.4,0.3c0.2,0.1,0.3,0.3,0.2,0.5c-0.1,0.2-0.3,0.3-0.5,0.2c-0.9-0.4-1.6-0.6-2.2-0.6c-0.6,0-1,0.1-1.6,0.3
		c-0.2,0.1-0.4,0.1-0.6,0.2c-0.2,0.1-0.5,0.1-0.8-0.1c-0.2-0.2-0.3-0.4-0.4-0.7c0-0.3,0-0.5,0.2-0.8c0.2-0.5,0.6-1.1,1-1.9
		c0.3-0.6,0.7-1.2,1-1.8c0.5-1.1,1.1-2.1,1.3-3c0.2-0.7,0.3-1.2,0.3-1.6c0-0.1,0-0.3,0-0.3c0,0,0,0,0,0c0,0,0,0.1,0,0
		c0,0,0.2,0.1,0.1,0.1c0,0,0.2,0,0.1,0c0,0,0.2,0,0.1,0c0,0,0.1,0,0.1,0c0,0-0.1,0.1-0.2,0.2C37,143.4,36.8,143.6,36.6,143.8"/>
	<path style="clip-path:url(#SVGID_00000152259266654208108200000012156607520647475870_);" d="M46.5,145c0,0.2-0.2,0.4-0.4,0.4
		c-0.2,0-0.4-0.2-0.4-0.4c0-0.2,0-0.4,0-0.5c0-0.1,0-0.1,0.1-0.3c0.1-0.1,0.5-0.2,0.6,0c0.1,0.1,0.1,0.1,0.1,0.2
		c0.1,0.3,0.1,0.5,0.1,1c0,0.6,0,1.3,0,2c0,1.8-0.2,3.8-0.1,4.9c0.1,0.4,0.2,0.5,0.2,0.6c0.1,0,0.1,0,0.2,0c0.1,0,0.4-0.5,0.6-1
		c0.6-1,1.2-2,2-3.1c0.8-1.1,1.7-2.3,2.9-3.5c0.2-0.2,0.4-0.2,0.6,0c0.2,0.2,0.2,0.4,0,0.6c-1.1,1.2-2.1,2.3-2.8,3.4
		c-0.8,1-1.4,2-1.9,3c-0.3,0.5-0.4,1.1-1,1.3c-0.3,0.2-0.7,0.2-1,0c-0.4-0.2-0.6-0.7-0.7-1.2c-0.2-1.3,0-3.2,0-5c0-0.7,0-1.4,0-1.9
		c0-0.4-0.1-0.7-0.1-0.7c0,0,0,0.1,0,0c0,0,0.1,0.1,0.1,0.1c0,0,0.1,0.1,0.1,0.1c0,0,0.2,0.1,0.1,0c-0.1,0,0.3-0.1,0.2,0
		c-0.1,0,0.2-0.1,0.1-0.1c0,0,0.1-0.1,0.1-0.1c0,0,0,0,0,0c0,0,0,0,0,0C46.5,144.7,46.5,144.8,46.5,145"/>
	<path style="clip-path:url(#SVGID_00000152259266654208108200000012156607520647475870_);" d="M55.7,150.4c0.1-0.2,0.4-0.2,0.6-0.1
		c0.2,0.1,0.2,0.4,0.1,0.6c-0.1,0.1-0.3,0.9-0.5,1.6c-0.1,0.3-0.1,0.6-0.1,0.9c0,0.2,0,0.3,0,0.4c0,0,0-0.1,0,0c0,0-0.1-0.1,0-0.1
		c0,0-0.2-0.1-0.1-0.1c0.1,0-0.3,0-0.2-0.1c0.1,0-0.2,0.1-0.2,0.1c0,0-0.1,0.1-0.1,0.1c0,0,0,0,0,0c0.1-0.1,0.2-0.9,0.4-1.8
		c0.2-1.2,0.5-2.7,0.9-4c0.4-1.3,0.6-2.3,1.2-2.9c0.3-0.3,0.6-0.4,0.9-0.4c0.3,0,0.6,0.1,0.9,0.3c0.5,0.3,1.2,0.6,1.6,1.2
		c0.3,0.3,0.5,0.8,0.5,1.3c0,0.9-0.7,1.7-1.5,2.2c-0.4,0.3-0.8,0.4-1.2,0.5c-0.4,0.1-0.8,0.1-1.2-0.2c-0.2-0.1-0.2-0.4-0.1-0.6
		c0.1-0.2,0.4-0.2,0.6-0.1c0.1,0.1,0.3,0.1,0.5,0c0.3-0.1,0.6-0.2,0.9-0.4c0.6-0.4,1.1-1,1.1-1.5c0-0.3-0.1-0.5-0.3-0.8
		c-0.3-0.4-0.8-0.7-1.3-1c-0.2-0.1-0.5-0.2-0.6-0.2c-0.1,0-0.2,0-0.3,0.1c-0.3,0.3-0.6,1.3-1,2.6c-0.4,1.3-0.7,2.7-0.9,3.9
		c-0.2,0.8-0.2,1.6-0.5,2.1c0,0-0.1,0.1-0.1,0.2c-0.1,0.1-0.3,0.1-0.5,0c-0.1-0.1-0.2-0.2-0.2-0.2c0-0.1,0-0.1,0-0.1
		c0-0.2,0-0.3,0-0.6c0-0.3,0.1-0.6,0.1-1C55.3,151.5,55.4,150.8,55.7,150.4"/>
	<path style="clip-path:url(#SVGID_00000152259266654208108200000012156607520647475870_);" d="M0.4,142.3c-0.2,0-0.4-0.2-0.4-0.4
		s0.2-0.4,0.4-0.4h205.9c0.2,0,0.4,0.2,0.4,0.4s-0.2,0.4-0.4,0.4H0.4z"/>
	<path style="clip-path:url(#SVGID_00000152259266654208108200000012156607520647475870_);" d="M0.4,110.6c-0.2,0-0.4-0.2-0.4-0.4
		c0-0.2,0.2-0.4,0.4-0.4h205.9c0.2,0,0.4,0.2,0.4,0.4c0,0.2-0.2,0.4-0.4,0.4H0.4z"/>
	<path style="clip-path:url(#SVGID_00000152259266654208108200000012156607520647475870_);" d="M0.4,78.9c-0.2,0-0.4-0.2-0.4-0.4
		c0-0.2,0.2-0.4,0.4-0.4h205.9c0.2,0,0.4,0.2,0.4,0.4c0,0.2-0.2,0.4-0.4,0.4H0.4z"/>
	<path style="clip-path:url(#SVGID_00000152259266654208108200000012156607520647475870_);" d="M0.4,47.2C0.2,47.2,0,47,0,46.8
		s0.2-0.4,0.4-0.4h205.9c0.2,0,0.4,0.2,0.4,0.4s-0.2,0.4-0.4,0.4H0.4z"/>
	<path style="clip-path:url(#SVGID_00000152259266654208108200000012156607520647475870_);" d="M116.2,1.8c0.2,0,0.4,0.2,0.4,0.4
		s-0.2,0.4-0.4,0.4c-0.1,0-0.2,0-0.3,0.1c-0.1,0.1-0.2,0.2-0.3,0.4c-0.1,0.1-0.1,0.3-0.1,0.4c0,0,0,0,0,0c0,0,0.1,0.1,0.2,0.1
		c0.3,0,0.8-0.1,1.1-0.3c0.2-0.1,0.4-0.4,0.6-0.6c0-0.1,0.1-0.2,0-0.3c0-0.1-0.1-0.2-0.1-0.2c0,0,0,0-0.1,0c-0.1,0-0.3,0-0.5,0
		c-0.4,0-0.6,0-0.6,0c0,0,0-0.1,0,0c0,0,0,0.2,0,0.4c0,0.2-0.1,0.4-0.3,0.5c-0.2,0-0.4-0.1-0.5-0.3c0-0.3-0.1-0.5,0-0.7
		c0.1-0.2,0.2-0.4,0.4-0.5c0.4-0.2,0.7-0.1,1-0.1c0.1,0,0.3,0,0.5,0c0.2,0,0.5,0,0.7,0.2c0.2,0.2,0.3,0.4,0.4,0.7
		c0.1,0.3,0,0.6-0.1,0.8c-0.2,0.4-0.5,0.7-0.9,1c-0.5,0.3-1.1,0.5-1.7,0.4c-0.2,0-0.4-0.1-0.5-0.2c-0.2-0.1-0.3-0.3-0.3-0.5
		c-0.1-0.3,0-0.6,0.1-0.9c0.1-0.3,0.3-0.5,0.6-0.7C115.6,1.9,115.9,1.8,116.2,1.8"/>
	<path style="clip-path:url(#SVGID_00000152259266654208108200000012156607520647475870_);" d="M112.6,13.4
		c-0.2-0.1-0.2-0.4-0.1-0.6c0.1-0.2,0.4-0.2,0.6-0.1c0.1,0-0.2-0.1-0.2-0.1c0.1,0-0.2,0-0.2,0c0,0-0.1,0-0.1,0c0,0-0.1,0-0.1,0
		c0,0,0,0,0,0c0.1-0.1,0.3-0.2,0.5-0.5c0.2-0.3,0.5-0.7,0.9-1.2c0.4-0.5,0.9-1.1,1.4-1.8c1-1.3,2.3-2.9,3.5-4.3
		c1.4-1.7,2.7-3,3.8-3.9c0.5-0.4,1-0.7,1.4-0.9c0.2-0.1,0.4-0.1,0.6-0.1c0.2,0,0.4,0.1,0.6,0.3c0.1,0.2,0.1,0.4,0,0.6
		c-0.2,0.1-0.4,0.1-0.6,0c0,0,0,0,0,0c0,0-0.2,0-0.3,0.1c-0.3,0.1-0.7,0.4-1.2,0.8c-1,0.8-2.3,2.1-3.7,3.8c-1.2,1.4-2.4,3-3.5,4.3
		c-0.5,0.7-1,1.3-1.4,1.8c-0.4,0.5-0.7,0.9-1,1.2c-0.3,0.3-0.5,0.5-0.6,0.6c0,0,0,0.1-0.2,0.1C112.9,13.4,112.8,13.5,112.6,13.4
		 M112.7,12.6c0.2-0.2,0.4-0.2,0.6,0c0.2,0.2,0.2,0.4,0,0.6c-0.1,0.1-0.1,0.1-0.1,0.1c0,0,0-0.1,0-0.1c0,0,0-0.2,0-0.1
		c0,0,0-0.2,0-0.1c0,0.1-0.1-0.2-0.1-0.2c0.1,0.2,0.1,0.4-0.1,0.6c-0.2,0.1-0.4,0.1-0.6-0.1c-0.2-0.2-0.1-0.4,0-0.4c0,0,0-0.1,0-0.1
		C112.6,12.7,112.6,12.7,112.7,12.6"/>
	<path style="clip-path:url(#SVGID_00000152259266654208108200000012156607520647475870_);" d="M119.4,10.2c0.1-0.2,0.3-0.3,0.5-0.2
		c0.2,0.1,0.3,0.3,0.2,0.5c0,0.1,0,0,0,0c0,0,0,0,0,0c0.1,0.1,0.3,0.1,0.6,0.1c0.1,0,0.3-0.1,0.5-0.3c0.1-0.1,0.1-0.1,0.1-0.1
		c0,0,0,0,0,0c0,0,0,0-0.1,0c-0.1,0-0.2,0-0.3,0c-0.2,0-0.5,0-0.8-0.1c-0.2-0.1-0.3-0.3-0.3-0.5c0.1-0.2,0.3-0.3,0.5-0.3
		c0.1,0,0.4,0,0.7,0.1c0.3,0,0.6,0,0.9,0.3c0.2,0.2,0.2,0.5,0.2,0.7c-0.1,0.2-0.2,0.4-0.4,0.6c-0.2,0.2-0.5,0.4-0.9,0.4
		c-0.4,0-0.7,0-1.1-0.1c-0.2-0.1-0.3-0.2-0.4-0.4C119.3,10.6,119.3,10.4,119.4,10.2"/>
	<path style="clip-path:url(#SVGID_00000152259266654208108200000012156607520647475870_);" d="M187.7,3.1c-0.1,0.2-0.4,0.2-0.6,0.1
		c-0.2-0.1-0.2-0.4-0.1-0.6c0.4-0.6,0.6-1.1,0.6-1.2c0,0,0,0,0,0c0,0,0,0,0,0c-0.1,0-0.3,0-0.7,0.2c-0.7,0.4-1.5,1.2-2.2,2.2
		c-1,1.2-1.6,2.8-1.8,4c-0.2,0.8-0.1,1.4,0.1,1.9c0.2,0.4,0.5,0.7,1,0.8c1.2,0.3,3.4-0.7,4.5-1.7c0.2-0.1,0.4-0.1,0.6,0
		c0.1,0.2,0.1,0.4,0,0.6c-0.6,0.5-1.5,1.1-2.4,1.4c-0.9,0.4-1.9,0.6-2.8,0.4c-0.7-0.2-1.2-0.6-1.5-1.3c-0.3-0.6-0.4-1.5-0.2-2.4
		c0.3-1.4,0.9-3,2-4.4c0.8-1,1.6-1.9,2.5-2.4c0.4-0.2,0.8-0.4,1.2-0.3c0.2,0,0.3,0.1,0.5,0.2c0.1,0.1,0.2,0.3,0.2,0.5
		C188.6,2,188.1,2.5,187.7,3.1"/>
	<path style="clip-path:url(#SVGID_00000152259266654208108200000012156607520647475870_);" d="M187,4.1c0.1-0.2,0.3-0.3,0.5-0.3
		c0.2,0.1,0.3,0.3,0.3,0.5c0,0.2-0.1,0.2-0.1,0.2c-0.1,0.1-0.1,0.1-0.2,0.1c-0.3,0.2-0.9,0.4-1.5,0.7c-0.8,0.3-1.8,0.5-2.5,0.7
		c-0.3,0.1-0.6,0.1-0.8,0.2c-0.1,0-0.1,0-0.1,0c0,0,0.1-0.1,0,0c0,0,0.1-0.1,0-0.1c0,0,0-0.3,0-0.2c0,0.1-0.1-0.2-0.1-0.2
		c0,0.1-0.2-0.1-0.1-0.1c0,0-0.1,0-0.1,0c0,0,0,0,0,0c0,0,0.1,0,0.2,0c0.2,0,0.4,0,0.6,0c1,0,2.3,0,3.7,0.1c0.2,0,0.4,0.2,0.4,0.4
		c0,0.2-0.2,0.4-0.4,0.4c-1.3-0.1-2.6-0.1-3.6-0.1c-0.2,0-0.4,0-0.6,0c-0.1,0-0.2,0-0.3,0c0,0-0.1,0-0.1,0c-0.1,0-0.3,0-0.3-0.3
		c0-0.2,0-0.3,0.1-0.4c0.1-0.1,0.1-0.1,0.2-0.1c0.1-0.1,0.2-0.1,0.4-0.2c0.2-0.1,0.5-0.1,0.8-0.2c0.7-0.2,1.6-0.4,2.4-0.7
		c0.6-0.2,1.1-0.5,1.4-0.6c0,0,0,0,0.1,0c0,0-0.1,0,0,0c0,0-0.1,0.1,0,0C187.1,4,187.1,4,187,4.1C187.1,4,187,4.2,187,4.1
		 M182.5,4.6c0.2,0,0.4,0.3,0.3,0.5s-0.3,0.4-0.5,0.3c-0.1,0-0.2,0-0.3-0.1c0,0-0.1,0-0.1-0.1c-0.1,0-0.2-0.2-0.2-0.4
		c0-0.2,0.2-0.3,0.2-0.3c0.1,0,0.1,0,0.1,0c0.2,0,0.3,0,0.6,0c0.8,0,2.1-0.2,3.1-0.4c0.4-0.1,0.8-0.2,1.1-0.2c0.2,0,0.3-0.1,0.4-0.1
		c0,0,0,0,0.2,0c0,0,0.1,0,0.1,0c0.2,0.1,0.2,0.4,0.1,0.6s-0.4,0.2-0.6,0.1c0,0,0.1,0.1,0.1,0c0,0,0.1,0,0.1,0c-0.1,0,0.1,0,0.1,0
		c0,0-0.2,0-0.3,0.1c-0.3,0-0.7,0.1-1.2,0.2c-1.1,0.2-2.4,0.4-3.3,0.4c-0.2,0-0.4,0-0.4,0c0,0,0.1,0,0.1,0c0,0,0.1-0.1,0.1-0.1
		c0,0,0.1-0.1,0.1-0.1c0,0,0.1-0.2,0-0.1c0,0.1,0-0.2,0-0.2C182.6,4.9,182.4,4.7,182.5,4.6c0,0.1-0.1,0-0.1,0c0,0,0,0,0,0
		C182.3,4.6,182.4,4.6,182.5,4.6"/>
	<path style="clip-path:url(#SVGID_00000152259266654208108200000012156607520647475870_);fill:#ED3624;" d="M232.4,70.1
		c-0.1,0.2-0.3,0.3-0.5,0.2c-0.2-0.1-0.3-0.3-0.2-0.5c0,0,0,0,0,0c0,0,0-0.1,0-0.1c0-0.1-0.1-0.2-0.2-0.4c-0.2-0.3-0.4-0.6-0.7-0.7
		c-0.2-0.1-0.5-0.2-0.8,0c-0.3,0.1-0.7,0.4-0.9,0.8c-0.3,0.5-0.5,1.2-0.5,1.8c0,0.2,0,0.4,0.1,0.5c0.1,0.1,0.1,0.2,0.2,0.2
		c0.2,0.1,0.6,0.1,0.9,0c0.5-0.2,1.1-1,1.6-1.6c0.1-0.2,0.2-0.3,0.3-0.4c0.1-0.1,0.1-0.1,0.2-0.2c0.1,0,0.1-0.1,0.2-0.1
		c0.1,0,0.2,0.1,0.3,0.1c0.2,0.2,0.2,0.3,0.2,0.4c0,0.1,0,0.2,0,0.3c0,0.2,0,0.4,0,0.5c0,0.3,0,0.4,0,0.4c0,0,0,0,0,0c0,0,0,0,0.1,0
		c0.1,0,0.2,0.1,0.3,0.1c0.3,0.1,1-0.3,1.7-0.7c0.3-0.2,0.5-0.4,0.8-0.5c0.1-0.1,0.3-0.2,0.4-0.2c0.1-0.1,0.3-0.2,0.6-0.1
		c0.2,0.1,0.3,0.3,0.3,0.3c0,0.1,0,0.1,0,0.2c0,0.1,0,0.2-0.1,0.3c-0.1,0.2-0.1,0.5-0.2,0.6c-0.1,0.3,0,0.5,0,0.5
		c0,0-0.1-0.1-0.1-0.1c0,0,0,0,0,0c0,0,0.1,0,0.2,0c0.2,0,0.4-0.1,0.6-0.2c0.5-0.2,0.9-0.3,1.4-0.2c0.5,0.1,1,0.4,1.4,1
		c0.1,0.2,0.1,0.4-0.1,0.6c-0.2,0.1-0.4,0.1-0.6-0.1c-0.4-0.5-0.7-0.7-1-0.7c-0.3-0.1-0.6,0-1,0.1c-0.2,0.1-0.4,0.2-0.7,0.2
		c-0.1,0-0.3,0.1-0.4,0.1c-0.1,0-0.3,0-0.5-0.2c-0.3-0.3-0.3-0.8-0.2-1.3c0.1-0.2,0.1-0.5,0.2-0.6c0-0.1,0-0.2,0-0.2c0,0,0,0.1,0,0
		c0,0,0.1,0.2,0,0.1c0,0,0.1,0.1,0.1,0.1c0,0,0.2,0.1,0.1,0.1c0,0,0.1,0,0.1,0c0,0,0,0,0,0c-0.1,0-0.2,0.1-0.3,0.2
		c-0.2,0.1-0.4,0.3-0.7,0.5c-0.7,0.5-1.5,1.1-2.3,0.8c-0.1,0-0.3-0.1-0.5-0.1c-0.2-0.1-0.4-0.2-0.5-0.4c-0.1-0.3-0.1-0.6-0.1-0.7
		c0-0.2,0-0.4,0-0.6c0-0.1,0-0.1,0-0.2c0,0,0,0,0,0c0,0,0,0.1,0,0c0,0,0.1,0.1,0.1,0.1c0,0,0.2,0.1,0.1,0.1c0,0,0.2,0,0.1,0
		c0,0,0.1,0,0.1,0c0,0,0.1,0,0.1,0c0,0,0,0,0,0c-0.1,0.1-0.2,0.2-0.3,0.4c-0.4,0.6-1,1.5-1.9,1.9c-0.5,0.2-1.1,0.3-1.6,0
		c-0.3-0.1-0.5-0.4-0.6-0.6c-0.1-0.3-0.2-0.5-0.2-0.8c0-0.7,0.2-1.6,0.6-2.3c0.3-0.5,0.8-0.9,1.3-1.1c0.5-0.2,1.1-0.2,1.5,0.1
		c0.4,0.2,0.7,0.6,0.9,1c0.1,0.2,0.2,0.4,0.3,0.6C232.4,69.7,232.5,69.9,232.4,70.1"/>
	<path style="clip-path:url(#SVGID_00000152259266654208108200000012156607520647475870_);fill:#ED3624;" d="M246.1,63.7
		c0,0.2-0.2,0.4-0.4,0.4c-0.2,0-0.4-0.2-0.4-0.4c0-0.1,0-0.2,0-0.2c0,0,0,0,0,0c0,0,0,0.1,0,0c0,0,0.1,0.1,0,0.1
		c0,0,0.2,0.1,0.1,0.1c0,0,0.2,0,0.1,0c-0.1,0,0.2-0.1,0.2,0c0,0,0.1-0.1,0.1-0.1c0,0,0,0,0,0c0,0,0,0,0,0c-0.1,0.2-0.3,0.7-0.4,1.3
		c-0.2,0.7-0.4,1.5-0.6,2.4c-0.2,1-0.4,2.2-0.6,3.4c-0.2,1.5-0.4,3.1-0.5,4.5c-0.1,1.4-0.1,2.6-0.2,3.4c0,0.4,0,0.7-0.1,1
		c-0.1,0.3-0.4,0.5-0.6,0.6c-0.3,0-0.5-0.1-0.7-0.2c-0.5-0.2-0.9-0.6-1.3-1c-0.4-0.4-0.9-0.9-1.2-1.5c-0.1-0.3-0.1-0.6,0-0.9
		c0.1-0.3,0.4-0.5,0.7-0.8c0.6-0.5,1.6-0.9,3-1.3c0.2-0.1,0.4,0,0.5,0.3c0.1,0.2,0,0.4-0.3,0.5c-1.4,0.5-2.3,0.9-2.8,1.2
		c-0.2,0.2-0.4,0.3-0.4,0.4c0,0.1,0,0.2,0,0.3c0.2,0.4,0.6,0.8,1,1.2c0.4,0.4,0.8,0.7,1.1,0.9c0.1,0.1,0.2,0.1,0.3,0.1
		c0,0-0.1,0.1,0,0c0-0.1,0.1-0.4,0.1-0.8c0-0.8,0-2,0.2-3.4c0.1-1.4,0.3-2.9,0.5-4.5c0.2-1.2,0.4-2.4,0.6-3.5c0.2-1,0.5-1.8,0.7-2.5
		c0.2-0.7,0.3-1.1,0.5-1.5c0-0.1,0.1-0.1,0.2-0.2c0.1,0,0.1-0.1,0.3-0.1c0.1,0,0.3,0.1,0.4,0.1C246.1,63.3,246.1,63.5,246.1,63.7"/>
	<path style="clip-path:url(#SVGID_00000152259266654208108200000012156607520647475870_);fill:#ED3624;" d="M254.7,72.9
		c0.2-0.1,0.4-0.1,0.6,0.1c0.1,0.2,0.1,0.4-0.1,0.6c0,0,0,0-0.1,0.1c0,0-0.1,0.1-0.3,0c-0.2-0.1-0.3-0.3-0.3-0.4
		C254.5,73,254.6,73,254.7,72.9C254.6,73,254.6,72.9,254.7,72.9c0,0,0-0.1,0.1-0.2c0.2-0.2,0.4-0.4,0.7-0.7c0.6-0.6,1.5-1.5,2.3-2.4
		c1-1,2-1.9,2.7-2.6c0.4-0.4,0.6-0.7,1.2-0.7c0.1,0,0.2,0,0.3,0.1c0.1,0.1,0.1,0.2,0.2,0.2c0.1,0.2,0.1,0.3,0.1,0.4
		c0,0.3-0.1,0.6-0.3,1c-0.4,0.9-1.2,1.9-1.6,2.7c-0.2,0.4-0.3,0.7-0.3,0.7c0,0-0.1-0.1,0-0.1c0,0-0.1-0.1-0.1-0.1c0,0,0.1,0,0.2,0
		c0.2-0.1,0.4,0.1,0.5,0.3c0.1,0.2-0.1,0.4-0.3,0.5c-0.2,0.1-0.5,0.1-0.7,0c-0.2-0.1-0.4-0.3-0.5-0.5c0-0.4,0.2-0.7,0.4-1.2
		c0.5-0.8,1.2-1.8,1.6-2.7c0.2-0.3,0.2-0.6,0.2-0.7c0-0.1,0,0,0-0.1c0,0,0.1,0.1,0.1,0.1c-0.1,0,0.2,0.1,0.2,0.1c0,0,0.1,0,0.1,0
		c0,0-0.3,0.2-0.7,0.6c-0.7,0.6-1.7,1.6-2.7,2.6c-0.9,0.9-1.7,1.7-2.3,2.3c-0.3,0.3-0.5,0.5-0.7,0.7c-0.1,0.1-0.1,0.1-0.1,0.2
		c0,0,0,0,0,0c0,0,0-0.1,0,0c0,0,0-0.1,0,0c0,0,0-0.2,0-0.1c0,0,0-0.2,0-0.1c0,0-0.1-0.2-0.1-0.1c0,0.1-0.2-0.2-0.1-0.1
		c0,0-0.2-0.1-0.1-0.1c0.1,0-0.2,0-0.2,0C254.9,72.8,254.7,72.9,254.7,72.9C254.8,72.8,254.7,72.9,254.7,72.9"/>
	<path style="clip-path:url(#SVGID_00000152259266654208108200000012156607520647475870_);fill:#ED3624;" d="M265.1,68.6
		c0.2-0.1,0.4,0,0.5,0.2c0.1,0.2,0,0.4-0.2,0.5c-0.2,0.1-0.8,0.8-1.1,1.5c-0.2,0.6-0.1,1.3,0.2,1.7c0.1,0.2,0.4,0.3,0.6,0.3
		c0.3,0,0.5,0,0.8-0.2c0.7-0.3,1.4-1.3,2-2.2c0.5-0.8,0.7-1.6,0.7-1.9c0,0,0-0.1-0.1-0.1c0,0-0.1-0.1-0.3-0.1c-0.3,0-0.7,0-1.1,0.1
		c-0.4,0.1-0.8,0.4-1.1,0.6c-0.3,0.2-0.4,0.5-0.3,0.7c0,0.2-0.1,0.4-0.4,0.5c-0.2,0-0.4-0.1-0.5-0.4c-0.1-0.6,0.2-1.1,0.6-1.4
		c0.4-0.4,0.9-0.6,1.4-0.8c0.5-0.2,1-0.2,1.5-0.2c0.2,0,0.5,0.1,0.7,0.2c0.2,0.1,0.4,0.4,0.4,0.6c0.1,0.7-0.2,1.6-0.8,2.5
		c-0.6,1-1.3,2-2.3,2.5c-0.4,0.2-0.8,0.3-1.2,0.2c-0.5,0-1-0.2-1.3-0.6c-0.5-0.7-0.6-1.6-0.3-2.4C263.9,69.7,264.4,68.9,265.1,68.6"
		/>
	<path style="clip-path:url(#SVGID_00000152259266654208108200000012156607520647475870_);fill:#ED3624;" d="M269.8,71.2
		c0.2-0.2,0.4-0.2,0.6,0c0.2,0.2,0.2,0.4,0,0.6c-0.1,0.1-0.1,0.1-0.1,0.1c0,0,0-0.1,0,0c0.1,0.1,0.4,0.2,0.8,0.3
		c0.5,0.1,1.2,0.2,1.8,0.1c1.3-0.2,2.5-1.1,2.9-1.7c0.1-0.2,0.1-0.3,0.1-0.4c0-0.1-0.3-0.2-0.6-0.3c-0.4-0.1-0.8-0.2-1.3-0.2
		c-1,0-1.9,0.1-2.2,0.3c-0.2,0.1-0.4,0.1-0.6-0.1c-0.1-0.2-0.1-0.4,0.1-0.6c0.6-0.5,1.7-0.5,2.8-0.5c0.5,0,1,0.1,1.5,0.2
		c0.4,0.1,0.8,0.3,1.1,0.7c0.2,0.4,0.1,0.9-0.1,1.2c-0.6,1-2,1.9-3.5,2.1c-0.8,0.1-1.5,0-2.1-0.1c-0.5-0.1-0.9-0.2-1.3-0.5
		c-0.2-0.1-0.3-0.4-0.3-0.6C269.5,71.5,269.7,71.3,269.8,71.2"/>
	<path style="clip-path:url(#SVGID_00000152259266654208108200000012156607520647475870_);fill:#ED3624;" d="M229.8,101.2
		c0.1-0.2,0.3-0.3,0.5-0.3c0.2,0.1,0.3,0.3,0.3,0.5c-0.3,1.2-1.3,3.4-1.2,4.3c0,0.2-0.1,0.4-0.4,0.5c-0.2,0-0.4-0.1-0.5-0.4
		C228.4,104.4,229.5,102.3,229.8,101.2"/>
	<path style="clip-path:url(#SVGID_00000152259266654208108200000012156607520647475870_);fill:#ED3624;" d="M230.8,97.8
		c0.2,0.1,0.3,0.3,0.3,0.5c-0.1,0.2-0.3,0.3-0.5,0.3c-0.6-0.2-0.9-0.1-1,0.1c-0.2,0.1-0.2,0.2-0.2,0.2c0,0,0,0.1,0,0.1
		c0,0.1,0.1,0.1,0.1,0.1c0,0-0.1-0.1-0.1,0c0,0-0.1,0-0.1,0c0,0,0,0,0,0c0.1,0,0.2-0.1,0.3-0.2c0.2-0.2,0.5-0.4,0.6-0.6
		c0-0.1,0,0,0,0c0,0,0,0.1,0,0.1c0,0,0.1,0.1,0.1,0.1c0,0,0.1,0,0.1,0c0,0,0,0,0,0c-0.1,0-0.2,0.1-0.3,0.2c-0.2,0.2-0.4,0.1-0.6,0
		c-0.2-0.2-0.1-0.4,0-0.6c0.2-0.2,0.4-0.3,0.6-0.4c0.2-0.1,0.4-0.1,0.6,0c0.2,0.1,0.3,0.4,0.3,0.6c0,0.2-0.1,0.4-0.2,0.6
		c-0.2,0.2-0.5,0.5-0.8,0.7c-0.2,0.1-0.3,0.2-0.5,0.3c-0.1,0-0.2,0.1-0.3,0.1c-0.1,0-0.3,0-0.4-0.1c-0.2-0.1-0.3-0.3-0.3-0.5
		c-0.1-0.2-0.1-0.4,0-0.7c0.1-0.3,0.3-0.4,0.4-0.5C229.4,97.7,230.1,97.6,230.8,97.8"/>
	<path style="clip-path:url(#SVGID_00000152259266654208108200000012156607520647475870_);fill:#ED3624;" d="M233.4,101.4
		c0-0.2,0.3-0.4,0.5-0.3c0.2,0,0.4,0.3,0.3,0.5c-0.1,0.6-0.5,1.4-0.7,2.1c-0.1,0.4-0.2,0.7-0.2,0.8c0,0,0-0.1,0,0
		c0,0-0.2-0.2-0.1-0.1c0.1,0-0.2,0-0.1,0c0,0,0,0,0,0c0.2-0.1,0.8-0.8,1.3-1.3c0.3-0.2,0.5-0.4,0.8-0.5c0.3-0.1,0.5-0.3,0.9-0.2
		c0.1,0,0.2,0.1,0.3,0.2c0.1,0.1,0.1,0.2,0.1,0.2c0,0.1,0.1,0.3,0.1,0.5c0,0.3,0,0.6,0,0.9c0,0.4,0,0.8,0,0.9c0,0,0,0.1,0.1,0.1
		c0.1,0,0.3,0,0.6,0c0.2,0,0.4,0.1,0.5,0.3c0,0.2-0.1,0.4-0.3,0.5c-0.4,0.1-0.7,0.1-0.9,0c-0.3-0.1-0.5-0.3-0.6-0.5
		c-0.2-0.4-0.1-0.9-0.1-1.3c0-0.3,0-0.6,0-0.9c0-0.1,0-0.2,0-0.3c0,0,0,0,0,0c0,0,0.1,0.1,0,0.1c0,0,0.1,0.1,0.1,0.1c0,0,0,0,0,0
		c-0.1,0-0.2,0.1-0.3,0.1c-0.2,0.1-0.4,0.2-0.6,0.4c-0.5,0.5-0.9,1.1-1.5,1.4c-0.1,0-0.2,0.1-0.3,0.1c-0.1,0-0.2,0-0.3-0.1
		c-0.1-0.1-0.2-0.2-0.2-0.3c0-0.1,0-0.2,0-0.3c0-0.3,0.1-0.7,0.3-1.1C233,102.6,233.4,101.8,233.4,101.4"/>
	<path style="clip-path:url(#SVGID_00000152259266654208108200000012156607520647475870_);fill:#ED3624;" d="M255.8,102.9
		c0.2,0.1,0.3,0.3,0.3,0.5c-0.1,0.2-0.3,0.3-0.5,0.3c-0.1,0-0.1-0.1-0.2-0.1c-0.1-0.1-0.1-0.2-0.1-0.3c0-0.2,0.1-0.3,0.2-0.4
		c0.1-0.1,0.3-0.3,0.5-0.4c0.8-0.5,2-1.7,3.1-2.7c0.5-0.5,0.9-1,1.3-1.3c0.2-0.2,0.4-0.3,0.6-0.3c0.1,0,0.3-0.1,0.4,0
		c0.2,0.1,0.3,0.2,0.3,0.4c0.1,0.4,0,0.7-0.2,1c-0.1,0.3-0.3,0.7-0.5,1.1c-0.5,1.1-1,2.2-1.2,2.8c0,0.1,0,0.2,0,0.2c0,0,0-0.1,0,0
		c0,0-0.1-0.1-0.1-0.1c0,0-0.1,0-0.1,0c0,0,0,0,0.2-0.1c0.2-0.1,0.4-0.2,0.6-0.4c0.2-0.1,0.4-0.1,0.6,0.1c0.1,0.2,0.1,0.4-0.1,0.6
		c-0.6,0.4-0.9,0.7-1.4,0.6c-0.2,0-0.5-0.3-0.5-0.5c0-0.2,0-0.4,0-0.6c0.2-0.8,0.7-1.9,1.2-3c0.3-0.7,0.6-1.5,0.6-1.6
		c0,0,0.1,0.1,0,0.1c0,0,0.2,0.1,0.1,0.1c0,0,0.1,0,0.1,0c0,0,0,0,0,0c0,0-0.2,0.1-0.3,0.2c-0.3,0.2-0.7,0.7-1.3,1.2
		c-1.1,1-2.2,2.2-3.2,2.8c-0.2,0.1-0.4,0.3-0.4,0.3c0,0,0,0,0,0c0,0,0-0.1,0-0.1c0,0,0-0.2,0-0.1c0,0,0-0.2,0-0.2
		c0,0-0.1-0.1-0.1-0.1C256,103,255.8,102.9,255.8,102.9C255.9,102.9,255.8,102.9,255.8,102.9"/>
	<path style="clip-path:url(#SVGID_00000152259266654208108200000012156607520647475870_);fill:#ED3624;" d="M263.7,101.2
		c0.1-0.2,0.4-0.2,0.6-0.1c0.2,0.1,0.2,0.4,0.1,0.6c-0.2,0.2-0.5,1-0.5,1.6c0,0.2,0.1,0.4,0.2,0.5c0.1,0.1,0.2,0.2,0.4,0.2
		c0.2,0,0.6-0.2,1-0.6c0.4-0.4,0.8-0.9,1.2-1.4c0.3-0.4,0.4-0.8,0.5-1.2c0-0.2,0-0.3,0-0.4c0-0.1-0.1-0.1-0.1-0.1
		c-0.2-0.1-0.8,0-1.2,0.2c-0.2,0.1-0.4,0.3-0.5,0.4c0,0,0,0,0,0c0,0-0.1-0.2,0-0.1c0.1,0.2,0.1,0.4-0.1,0.6
		c-0.2,0.1-0.4,0.1-0.6-0.1c-0.1-0.2-0.2-0.4-0.1-0.6c0-0.2,0.1-0.3,0.2-0.4c0.2-0.2,0.5-0.4,0.8-0.5c0.6-0.3,1.4-0.5,2-0.2
		c0.3,0.1,0.4,0.4,0.5,0.6c0.1,0.3,0.1,0.5,0,0.8c-0.1,0.5-0.3,1-0.6,1.5c-0.4,0.6-0.8,1.1-1.3,1.6c-0.5,0.5-1,0.8-1.6,0.8
		c-0.4,0-0.7-0.2-1-0.5c-0.2-0.3-0.3-0.6-0.4-1C262.9,102.5,263.3,101.7,263.7,101.2"/>
	<path style="clip-path:url(#SVGID_00000152259266654208108200000012156607520647475870_);fill:#ED3624;" d="M269.1,101.4
		c0.2-0.1,0.4-0.1,0.6,0.1c0.1,0.2,0.1,0.4-0.1,0.6c-0.1,0.1-0.4,0.6-0.5,1.2c0,0.4-0.1,0.7,0,0.9c0,0,0.1,0.1,0.2,0.2
		c0.1,0.1,0.3,0.1,0.6,0.1c0.3,0,0.6,0.1,0.9,0c0.6-0.1,1.3-0.9,1.9-1.5c0.5-0.6,0.9-1.1,0.9-1.5c0-0.2,0-0.3,0-0.3
		c0,0-0.1-0.1-0.4-0.2c-0.3-0.1-0.7-0.1-1.1-0.1c-0.8,0-1.7,0-2.3,0c-0.2,0-0.4-0.2-0.4-0.4c0-0.2,0.2-0.4,0.4-0.4
		c0.5,0,1.4,0,2.3,0c0.4,0,0.9,0.1,1.2,0.2c0.4,0.1,0.7,0.2,0.9,0.6c0.2,0.3,0.1,0.6,0,0.9c-0.1,0.6-0.6,1.2-1.1,1.9
		c-0.6,0.7-1.3,1.6-2.3,1.8c-0.4,0.1-0.9,0-1.2,0c-0.3,0-0.6-0.1-0.8-0.2c-0.3-0.1-0.5-0.3-0.6-0.6c-0.1-0.4-0.1-0.9,0-1.2
		C268.4,102.4,268.6,101.7,269.1,101.4"/>
	<path style="clip-path:url(#SVGID_00000152259266654208108200000012156607520647475870_);fill:#ED3624;" d="M228.3,131.5
		c0-0.2,0.2-0.4,0.4-0.4c0.2,0,0.4,0.2,0.4,0.4c0,0.4-0.3,1.2-0.5,2.1c-0.2,0.7-0.4,1.3-0.5,1.6c0,0,0,0.1,0,0.1c0,0,0-0.1,0,0
		c0,0,0-0.1,0-0.1c0,0-0.1-0.1,0-0.1c0,0-0.1-0.1-0.1-0.1c0,0-0.2-0.1-0.1-0.1c0.1,0-0.3,0-0.2,0c0,0-0.1,0-0.1,0c0,0-0.1,0.1-0.1,0
		c0,0,0,0,0,0c0,0,0.1-0.2,0.3-0.6c0.1-0.2,0.4-0.3,0.6-0.2c0.2,0.1,0.3,0.4,0.2,0.6c-0.2,0.4-0.3,0.6-0.5,0.7c0,0-0.1,0.2-0.3,0.1
		c-0.1,0-0.3-0.1-0.3-0.2c-0.1-0.1-0.1-0.1-0.1-0.2c0-0.2,0-0.2,0-0.3c0.1-0.4,0.3-1,0.5-1.7C228,132.6,228.2,131.7,228.3,131.5"/>
	<path style="clip-path:url(#SVGID_00000152259266654208108200000012156607520647475870_);fill:#ED3624;" d="M229.5,129.3
		c-0.2,0.1-0.4,0-0.5-0.3c-0.1-0.2,0-0.4,0.3-0.5c0.1,0,0.1,0,0.1,0c0,0,0,0,0.1,0c0,0,0.1,0,0.1,0c0.1,0,0.2,0,0.3,0
		c0,0-0.1,0.1-0.1,0.1c0,0,0,0,0,0c0,0,0,0,0-0.1c0,0,0-0.1,0-0.1c0,0,0,0,0,0c0,0,0,0,0,0c0,0,0,0-0.1,0c0,0-0.1,0-0.1,0
		c0,0,0-0.1,0,0c-0.1,0.2-0.3,0.3-0.5,0.3c-0.2-0.1-0.3-0.3-0.3-0.5c0.1-0.3,0.4-0.5,0.7-0.6c0.3-0.1,0.6,0,0.8,0.2
		c0.2,0.2,0.2,0.5,0.2,0.7c0,0.1,0,0.2-0.1,0.3c-0.1,0.1-0.2,0.3-0.3,0.3c-0.2,0.1-0.3,0.1-0.5,0.1
		C229.5,129.3,229.5,129.3,229.5,129.3C229.4,129.3,229.4,129.3,229.5,129.3C229.4,129.3,229.4,129.3,229.5,129.3
		C229.4,129.3,229.5,129.3,229.5,129.3 M230.9,128.1c0.2,0,0.4,0.2,0.4,0.4c0,0.2-0.2,0.4-0.4,0.4c-0.3,0-0.5,0-0.7,0
		c-0.1,0-0.2,0.1-0.3,0.1c0,0-0.1,0.1-0.1,0.1c0,0,0,0,0,0c0,0,0,0,0,0c0,0,0-0.1,0-0.1c-0.1,0.2-0.3,0.4-0.5,0.3
		c-0.2-0.1-0.4-0.3-0.3-0.5c0.1-0.3,0.2-0.4,0.4-0.5c0.2-0.1,0.4-0.2,0.7-0.3C230.3,128.1,230.6,128.1,230.9,128.1"/>
	<path style="clip-path:url(#SVGID_00000152259266654208108200000012156607520647475870_);fill:#ED3624;" d="M232.4,131.5
		c0-0.2,0.2-0.4,0.5-0.4s0.4,0.2,0.4,0.5c-0.1,0.6-0.5,1.5-0.9,2.3c-0.2,0.4-0.3,0.7-0.3,1c0,0.1,0,0.1,0,0.1c0,0,0-0.1,0,0
		c0,0-0.1-0.1-0.1-0.1c0,0-0.2-0.1-0.1-0.1c0,0-0.1,0-0.1,0c0,0,0,0,0,0c0.2-0.1,0.7-0.8,1.3-1.3c0.3-0.3,0.6-0.6,1-0.8
		c0.2-0.1,0.5-0.3,0.9-0.1c0.2,0.1,0.3,0.2,0.4,0.4c0.1,0.1,0.1,0.3,0.1,0.4c0,0.3,0,0.6,0,0.8c0,0.4-0.2,0.8-0.3,1.1
		c0,0.2,0,0.3,0,0.4c0,0.1,0,0,0,0c0,0,0.1,0,0.2,0c0.2,0,0.4-0.1,0.7-0.2c0.6-0.2,1.3-0.6,2.1-1.1c0.2-0.1,0.4,0,0.6,0.1
		c0.1,0.2,0,0.4-0.1,0.6c-0.8,0.5-1.5,0.9-2.2,1.1c-0.3,0.1-0.6,0.2-0.9,0.3c-0.3,0-0.5,0.1-0.8-0.1c-0.3-0.1-0.4-0.4-0.4-0.6
		c0-0.2,0-0.5,0-0.7c0.1-0.4,0.2-0.7,0.2-1c0-0.2,0-0.5,0-0.7c0-0.1,0-0.2,0-0.2c0,0,0,0,0,0c0,0,0.1,0.1,0.1,0.1c0,0,0,0,0,0
		c0,0-0.1,0-0.2,0.1c-0.2,0.1-0.5,0.3-0.8,0.6c-0.5,0.5-0.9,1.2-1.5,1.5c-0.1,0-0.2,0.1-0.4,0.1c-0.2,0-0.3-0.1-0.4-0.3
		c-0.1-0.2-0.1-0.4-0.1-0.7c0.1-0.3,0.2-0.7,0.4-1.1C231.9,132.7,232.3,131.7,232.4,131.5"/>
	<path style="clip-path:url(#SVGID_00000152259266654208108200000012156607520647475870_);fill:#ED3624;" d="M255.6,135.1
		c0.2-0.2,0.4-0.2,0.6,0c0.2,0.2,0.1,0.4,0,0.6c-0.1,0.1-0.1,0.2-0.3,0.2c-0.1,0-0.2,0-0.3-0.1c-0.2-0.1-0.2-0.3-0.2-0.4
		c0-0.1,0-0.1,0-0.1c0.1-0.2,0.2-0.4,0.4-0.6c0.4-0.6,0.9-1.3,1.5-2.1c0.6-0.8,1.3-1.5,1.8-2c0.3-0.3,0.5-0.5,0.8-0.6
		c0.1-0.1,0.3-0.1,0.5-0.1c0.1,0,0.2,0.1,0.3,0.2c0.1,0.1,0.1,0.2,0.1,0.3c0.1,0.6-0.3,1.1-0.5,1.6c-0.4,1-1,2.1-1.3,2.9
		c-0.1,0.2-0.1,0.3-0.1,0.4c0,0,0,0.1,0,0.1c0,0,0-0.1,0,0c0,0-0.1-0.1-0.1-0.1c0,0,0,0,0,0c0.1,0,0.2-0.1,0.4-0.2
		c0.2-0.1,0.4,0,0.6,0.2s0,0.4-0.2,0.6c-0.3,0.1-0.5,0.2-0.7,0.2c-0.2,0-0.5,0-0.7-0.2c-0.2-0.2-0.2-0.4-0.1-0.6
		c0-0.2,0.1-0.4,0.1-0.6c0.3-0.9,0.9-2,1.3-3c0.3-0.6,0.5-1.1,0.5-1.1c0,0,0,0.1,0,0.1c0,0,0.1,0.1,0.1,0.1
		c-0.1-0.1,0.2,0.1,0.2,0.1c0,0,0.1,0,0.1,0c0,0,0,0-0.1,0c-0.1,0.1-0.4,0.2-0.6,0.5c-0.5,0.5-1.2,1.2-1.8,1.9
		c-0.6,0.8-1.1,1.5-1.5,2.1c-0.2,0.2-0.3,0.4-0.3,0.5c0,0,0,0,0,0c0,0,0-0.1,0-0.1c0,0,0-0.2,0-0.1c0,0-0.1-0.2-0.1-0.1
		c0,0-0.1-0.1-0.1-0.1c0.1,0-0.2-0.1-0.2-0.1C255.9,135.1,255.7,135.1,255.6,135.1C255.7,135.1,255.6,135.1,255.6,135.1
		C255.6,135.1,255.6,135.1,255.6,135.1"/>
	<path style="clip-path:url(#SVGID_00000152259266654208108200000012156607520647475870_);fill:#ED3624;" d="M262.4,133
		c0-0.2,0.2-0.4,0.4-0.4s0.4,0.2,0.4,0.4c0,0.6-0.3,1.1-0.4,1.4c0,0.1,0,0.3,0.1,0.4c0.1,0.2,0.3,0.3,0.5,0.3
		c0.3,0.1,0.7-0.1,1.1-0.4c0.3-0.2,0.7-0.7,1-1.1c0.3-0.4,0.5-0.8,0.5-1.1c0,0,0,0,0,0c0,0,0,0-0.1-0.1c-0.1-0.1-0.3-0.1-0.6-0.2
		c-0.3,0-0.6-0.1-0.8,0c-0.1,0-0.1,0-0.1,0c0,0,0.1-0.2,0.1-0.1c0,0.1,0-0.1,0-0.1c0.1,0.2-0.1,0.4-0.3,0.5
		c-0.2,0.1-0.4-0.1-0.5-0.3c-0.1-0.2,0-0.5,0.2-0.6c0.2-0.1,0.3-0.2,0.5-0.2c0.3,0,0.7,0,1.1,0c0.3,0,0.6,0.1,0.9,0.3
		c0.1,0.1,0.3,0.2,0.4,0.3c0.1,0.1,0.2,0.3,0.1,0.5c0,0.5-0.3,1-0.6,1.5c-0.3,0.4-0.7,1-1.2,1.3c-0.5,0.4-1.2,0.6-1.7,0.5
		c-0.4-0.1-0.8-0.3-1-0.6c-0.2-0.3-0.4-0.7-0.3-1.1C262.2,133.6,262.5,133.3,262.4,133"/>
	<path style="clip-path:url(#SVGID_00000152259266654208108200000012156607520647475870_);fill:#ED3624;" d="M266.4,134.7
		c0-0.2,0.1-0.4,0.3-0.5c0.2,0,0.4,0.1,0.5,0.3c0.1,0.4,0.2,0.7,0.5,0.9c0.2,0.1,0.5,0.3,0.9,0.3c0.3,0,0.4,0,0.6,0
		c0.6-0.2,1.4-1.2,2-2.1c0.3-0.5,0.5-1,0.5-1.3c0-0.1,0-0.2,0-0.3c0,0,0,0,0,0c0,0,0,0.1,0,0.1c0,0,0,0-0.1,0c-0.1,0-0.3,0-0.5,0
		c-0.4,0-0.9,0.2-1.3,0.3c-0.8,0.2-1.2,0.5-1.3,0.9c-0.1,0.2-0.3,0.3-0.5,0.2c-0.2-0.1-0.3-0.3-0.2-0.5c0.3-0.7,1-1.1,1.9-1.4
		c0.4-0.1,1-0.2,1.4-0.3c0.2,0,0.5,0,0.7,0c0.2,0,0.5,0.1,0.6,0.3c0.1,0.2,0.2,0.4,0.1,0.5c0,0.1,0,0.2,0,0.3c0,0.5-0.3,1.1-0.6,1.6
		c-0.6,1-1.4,2.1-2.4,2.4c-0.4,0.1-0.7,0.1-0.9,0c-0.5,0-0.9-0.2-1.3-0.4C266.7,135.8,266.5,135.2,266.4,134.7"/>
	<path style="clip-path:url(#SVGID_00000152259266654208108200000012156607520647475870_);fill:#ED3624;" d="M222.7,64.1
		c-0.1,0.2-0.3,0.3-0.5,0.2c-0.2-0.1-0.3-0.3-0.2-0.5c0.1-0.4,0.3-1.1,0.4-1.5c0-0.1,0-0.2,0-0.3c0,0,0,0,0,0c0,0,0,0.1,0,0
		c0,0,0.1,0.2,0.1,0.1c0-0.1,0.2,0.2,0.2,0.1c-0.1,0,0.2,0,0.2,0c0,0,0.1,0,0.1,0c0,0,0.1,0,0,0c0,0,0,0,0,0c0,0-0.1,0.1-0.2,0.3
		c-0.3,0.6-0.8,1.7-1.2,3c-0.4,1.4-0.8,2.9-1,4.5c-0.2,1.5-0.3,3,0,4.2c0.2,1.1,0.8,2,1.6,2.3c0.2,0.1,0.3,0.3,0.2,0.5
		c-0.1,0.2-0.3,0.3-0.5,0.2c-1.2-0.4-1.9-1.6-2.2-2.9c-0.3-1.3-0.2-2.9,0-4.5c0.2-1.6,0.6-3.2,1.1-4.6c0.4-1.4,0.9-2.5,1.3-3.2
		c0.1-0.2,0.2-0.3,0.3-0.4c0-0.1,0.1-0.1,0.2-0.2c0,0,0.1-0.1,0.2-0.1c0.1,0,0.3,0.1,0.4,0.2c0.2,0.3,0.1,0.4,0.1,0.5
		c0,0.1,0,0.2,0,0.3C223.1,63,222.9,63.6,222.7,64.1"/>
	<path style="clip-path:url(#SVGID_00000152259266654208108200000012156607520647475870_);fill:#ED3624;" d="M278.5,63.6
		c-0.1,0.2-0.4,0.3-0.6,0.1c-0.2-0.1-0.3-0.4-0.1-0.6c0.2-0.3,0.5-0.5,0.8-0.5c0.3,0,0.7,0.1,1,0.3c0.7,0.6,0.8,1.7,0.9,2.9
		c0.2,1.6,0.3,3.6,0.2,5.6c-0.1,2-0.3,3.9-1,5.4c-0.1,0.2-0.3,0.3-0.5,0.2c-0.2-0.1-0.3-0.3-0.2-0.5c1.1-2.6,1.1-7.4,0.7-10.6
		c-0.1-1.2-0.4-2.2-0.6-2.4c-0.2-0.1-0.3-0.2-0.4-0.2C278.6,63.5,278.5,63.6,278.5,63.6"/>
	<path style="clip-path:url(#SVGID_00000152259266654208108200000012156607520647475870_);fill:#ED3624;" d="M222.9,94.1
		c0.1-0.2,0.4-0.3,0.6-0.1c0.2,0.1,0.3,0.4,0.1,0.6c-0.2,0.4-0.6,0.4-0.9,0.8c-0.8,0.8-1.7,2.8-2,5.1c-0.3,2.3,0.1,4.8,1.7,6.7
		c0.1,0.2,0.1,0.4,0,0.6c-0.2,0.1-0.4,0.1-0.6,0c-1.8-2.1-2.2-4.9-1.9-7.3c0.1-1.2,0.5-2.3,0.9-3.3c0.4-0.9,0.9-1.7,1.4-2.2
		c0.2-0.2,0.5-0.4,0.6-0.5C222.8,94.2,222.8,94.2,222.9,94.1C222.9,94.1,222.9,94.1,222.9,94.1C222.9,94.1,222.9,94.2,222.9,94.1"/>
	<path style="clip-path:url(#SVGID_00000152259266654208108200000012156607520647475870_);fill:#ED3624;" d="M277.1,95.5
		c-0.1-0.2,0-0.4,0.2-0.6c0.2-0.1,0.4,0,0.6,0.2c0,0-0.1-0.1,0-0.1c0,0,0,0,0,0c0,0,0,0,0,0c0.1,0.1,0.2,0.1,0.3,0.3
		c0.2,0.3,0.5,0.7,0.8,1.2c0.7,1.5,0.9,3.9,0.7,6.4c-0.2,2.5-0.7,5-1.8,6.7c-0.1,0.2-0.4,0.3-0.6,0.1s-0.3-0.4-0.1-0.6
		c0.9-1.6,1.5-4,1.6-6.4c0.2-2.4,0-4.7-0.6-5.9c-0.2-0.5-0.5-0.8-0.7-1c-0.1-0.1-0.2-0.2-0.2-0.2C277.2,95.6,277.2,95.6,277.1,95.5
		C277.2,95.6,277.1,95.6,277.1,95.5 M277.7,94.9c0.2,0.1,0.3,0.4,0.1,0.6c-0.1,0.2-0.4,0.3-0.6,0.1c0,0,0,0,0,0c0,0,0,0,0,0
		c0,0,0.1,0,0.1,0c-0.2-0.1-0.4-0.3-0.3-0.5c0.1-0.2,0.3-0.4,0.5-0.3C277.7,94.9,277.7,94.9,277.7,94.9"/>
	<path style="clip-path:url(#SVGID_00000152259266654208108200000012156607520647475870_);fill:#ED3624;" d="M224.4,127.3
		c0,0.2-0.2,0.4-0.5,0.3c-0.2,0-0.4-0.2-0.3-0.5c0-0.1,0-0.1,0-0.1c0,0,0.1,0.1,0,0c0,0,0.1,0,0,0c0,0-0.1,0-0.2,0.1
		c-0.9,0.6-2.3,3.1-2.8,5.9c-0.2,1.3-0.2,2.7,0.2,3.8c0.4,1.1,1.2,1.9,2.5,2.3c0.2,0.1,0.3,0.3,0.3,0.5c-0.1,0.2-0.3,0.3-0.5,0.3
		c-1.5-0.5-2.5-1.6-3-2.8c-0.5-1.3-0.5-2.8-0.2-4.2c0.3-1.4,0.7-2.8,1.3-4c0.6-1.1,1.2-2,1.8-2.4c0.2-0.1,0.3-0.2,0.5-0.2
		c0.2,0,0.4,0,0.5,0.1c0.1,0.1,0.2,0.3,0.3,0.4C224.4,127,224.4,127.1,224.4,127.3"/>
	<path style="clip-path:url(#SVGID_00000152259266654208108200000012156607520647475870_);fill:#ED3624;" d="M274.3,128.3
		c-0.2-0.2-0.1-0.4,0-0.6c0.2-0.2,0.4-0.1,0.6,0c0.1,0.1,0.8,0.6,1.4,1.4c0.9,1.3,1.3,3.4,1.2,5.6c-0.1,2.3-0.8,4.7-2.1,6.4
		c-0.1,0.2-0.4,0.2-0.6,0.1c-0.2-0.1-0.2-0.4-0.1-0.6c1.2-1.6,1.8-3.8,2-5.9c0.1-2.1-0.3-4.1-1-5.1
		C275.1,128.9,274.6,128.6,274.3,128.3"/>
</g>
</svg>
