<?xml version="1.0" encoding="utf-8"?>
<!-- Generator: Adobe Illustrator 26.0.2, SVG Export Plug-In . SVG Version: 6.00 Build 0)  -->
<svg version="1.1" id="Ebene_1" xmlns="http://www.w3.org/2000/svg" xmlns:xlink="http://www.w3.org/1999/xlink" x="0px" y="0px"
	 viewBox="0 0 238.4 190.9" style="enable-background:new 0 0 238.4 190.9;" xml:space="preserve">
<style type="text/css">
	.st0{clip-path:url(#SVGID_00000075860648437008691430000005472458868864722875_);}
	.st1{clip-path:url(#SVGID_00000075860648437008691430000005472458868864722875_);fill:#ED3624;}
</style>
<text transform="matrix(1 0 0 1 -79.6288 -43.5346)" style="font-family:'TimesNewRomanPSMT'; font-size:11.0361px;"> </text>
<g>
	<defs>
		<rect id="SVGID_1_" x="-90.6" y="-53.4" width="419.5" height="297.6"/>
	</defs>
	<clipPath id="SVGID_00000023256566495222548290000009697663428264177549_">
		<use xlink:href="#SVGID_1_"  style="overflow:visible;"/>
	</clipPath>
	<path style="clip-path:url(#SVGID_00000023256566495222548290000009697663428264177549_);" d="M0,0.4C0,0.2,0.2,0,0.4,0
		c0.2,0,0.4,0.2,0.4,0.4v190.1c0,0.2-0.2,0.4-0.4,0.4c-0.2,0-0.4-0.2-0.4-0.4V0.4z"/>
	<path style="clip-path:url(#SVGID_00000023256566495222548290000009697663428264177549_);" d="M0.4,190.9c-0.2,0-0.4-0.2-0.4-0.4
		s0.2-0.4,0.4-0.4H238c0.2,0,0.4,0.2,0.4,0.4s-0.2,0.4-0.4,0.4H0.4z"/>
	<path style="clip-path:url(#SVGID_00000023256566495222548290000009697663428264177549_);" d="M0.4,0.8C0.2,0.8,0,0.6,0,0.4
		S0.2,0,0.4,0H238c0.2,0,0.4,0.2,0.4,0.4s-0.2,0.4-0.4,0.4H0.4z"/>
	<path style="clip-path:url(#SVGID_00000023256566495222548290000009697663428264177549_);" d="M237.6,0.4c0-0.2,0.2-0.4,0.4-0.4
		c0.2,0,0.4,0.2,0.4,0.4v190.1c0,0.2-0.2,0.4-0.4,0.4c-0.2,0-0.4-0.2-0.4-0.4V0.4z"/>
	<path style="clip-path:url(#SVGID_00000023256566495222548290000009697663428264177549_);" d="M174.2,0.4c0-0.2,0.2-0.4,0.4-0.4
		c0.2,0,0.4,0.2,0.4,0.4v190.1c0,0.2-0.2,0.4-0.4,0.4c-0.2,0-0.4-0.2-0.4-0.4V0.4z"/>
	<path style="clip-path:url(#SVGID_00000023256566495222548290000009697663428264177549_);" d="M5.4,47.6c0.2,0,0.4,0.2,0.4,0.4
		c0,0.2-0.2,0.4-0.4,0.4c-0.9-0.1-1.8,0.2-3.2,0.4c-0.2,0-0.4-0.1-0.5-0.3c0-0.2,0.1-0.4,0.3-0.5C3.3,47.9,4.3,47.5,5.4,47.6"/>
	<path style="clip-path:url(#SVGID_00000023256566495222548290000009697663428264177549_);" d="M0.4,48.3c-0.2,0-0.4-0.2-0.4-0.4
		s0.2-0.4,0.4-0.4h174.2c0.2,0,0.4,0.2,0.4,0.4s-0.2,0.4-0.4,0.4H0.4z"/>
	<path style="clip-path:url(#SVGID_00000023256566495222548290000009697663428264177549_);" d="M110.9,47.9c0-0.2,0.2-0.4,0.4-0.4
		c0.2,0,0.4,0.2,0.4,0.4v142.6c0,0.2-0.2,0.4-0.4,0.4c-0.2,0-0.4-0.2-0.4-0.4V47.9z"/>
	<path style="clip-path:url(#SVGID_00000023256566495222548290000009697663428264177549_);" d="M0.4,111.7c-0.2,0-0.4-0.2-0.4-0.4
		s0.2-0.4,0.4-0.4h110.9c0.2,0,0.4,0.2,0.4,0.4s-0.2,0.4-0.4,0.4H0.4z"/>
	<path style="clip-path:url(#SVGID_00000023256566495222548290000009697663428264177549_);fill:#ED3624;" d="M76.1,18.8
		c-0.2,0.2-0.4,0.2-0.6,0s-0.2-0.4,0-0.6c0.1-0.1,0.2-0.4,0.3-0.7c0-0.3,0-0.5-0.2-0.6c-0.1-0.1-0.3-0.1-0.5-0.1
		c-0.2,0-0.5,0-0.9,0.2c-0.4,0.2-0.9,0.7-1.5,1.2c-0.9,0.9-1.9,2-2.4,3.2c-0.4,0.9-0.5,1.9-0.5,2.8c0,0.7,0,1.4,0.1,1.9
		c0.2,0.6,0.7,0.9,1.2,1.1c0.6,0.2,1.2,0.3,1.5,0.2c0.1,0,0.2-0.1,0.3-0.2c0.1-0.2,0.2-0.4,0.2-0.7c0.1-0.6,0.1-1.2,0.1-1.8
		c0-0.5,0-1,0.3-1.4c0.4-0.5,0.9-0.6,1.6-0.7c0.6-0.1,1.3-0.1,1.9,0c0.6,0.1,1.1,0.5,1.3,1c0.2,0.5,0.3,1.1,0.3,1.7
		c0,1.2-0.4,2.3-0.7,3.1c-0.1,0.2-0.3,0.3-0.6,0.2c-0.2-0.1-0.3-0.3-0.2-0.6c0.3-0.6,0.6-1.7,0.7-2.7c0-0.5-0.1-0.9-0.2-1.3
		c-0.1-0.3-0.4-0.5-0.7-0.5c-0.5-0.1-1.1-0.1-1.7,0c-0.5,0.1-0.9,0.3-1,0.4c-0.1,0.1-0.1,0.4-0.1,0.9c0,0.6,0,1.3-0.1,2
		c-0.1,0.3-0.1,0.6-0.3,0.9c-0.2,0.3-0.4,0.5-0.7,0.6c-0.6,0.2-1.3,0.1-2-0.2c-0.7-0.2-1.5-0.7-1.7-1.6c-0.2-0.6-0.2-1.4-0.2-2.1
		c0-1,0.1-2.1,0.6-3.1c0.6-1.4,1.6-2.5,2.6-3.5c0.6-0.6,1.1-1.1,1.7-1.4c0.4-0.2,0.8-0.3,1.2-0.3c0.4,0,0.7,0.1,1,0.3
		c0.4,0.3,0.5,0.9,0.5,1.4C76.6,18.2,76.4,18.6,76.1,18.8"/>
	<path style="clip-path:url(#SVGID_00000023256566495222548290000009697663428264177549_);fill:#ED3624;" d="M86.9,21
		c0.2,0.1,0.3,0.4,0.2,0.6c-0.1,0.2-0.4,0.3-0.6,0.2c0,0,0,0,0,0c-0.1,0-0.2,0.1-0.4,0.3c-0.3,0.3-0.7,0.7-1,1.2
		c-0.9,1.4-1.4,2.9-1.2,3.6c0,0.2,0.2,0.3,0.4,0.4c0.2,0.1,0.6,0.1,0.9,0c0.8-0.2,1.6-0.7,2.1-1.4c0.1-0.2,0.4-0.2,0.6-0.1
		c0.2,0.1,0.2,0.4,0.1,0.6c-0.6,1-1.6,1.6-2.6,1.8c-0.5,0.1-1,0.1-1.4,0c-0.4-0.1-0.8-0.5-0.9-1c-0.3-1.2,0.4-2.8,1.3-4.2
		c0.4-0.5,0.7-1,1.1-1.4c0.2-0.2,0.4-0.3,0.6-0.4C86.4,20.9,86.7,20.8,86.9,21"/>
	<path style="clip-path:url(#SVGID_00000023256566495222548290000009697663428264177549_);fill:#ED3624;" d="M87.2,22.4
		c0.2,0.1,0.2,0.4,0.1,0.6c-0.1,0.2-0.4,0.2-0.6,0.1c-0.2-0.2-0.4-0.4-0.4-0.7c0-0.3,0.1-0.5,0.3-0.6c0.1-0.1,0.3-0.1,0.4-0.1
		c0.1,0,0.2,0,0.3,0.1c0.2,0.1,0.3,0.2,0.5,0.4c0.2,0.2,0.2,0.5,0.2,0.8c0,0.3-0.1,0.5-0.2,0.8c-0.1,0.2-0.3,0.5-0.5,0.7
		c-0.2,0.2-0.6,0.3-0.9,0.2c-0.2-0.1-0.4-0.3-0.3-0.5c0.1-0.2,0.3-0.4,0.5-0.3c0.1,0,0.1,0,0.2-0.1c0.1-0.1,0.2-0.2,0.2-0.3
		c0.1-0.2,0.1-0.3,0.1-0.5c0-0.1,0-0.2,0-0.2c0-0.1-0.1-0.1-0.2-0.1c0,0,0,0,0,0c0,0,0.1,0,0.1,0C87,22.5,87.2,22.4,87.2,22.4
		C87.1,22.4,87.1,22.4,87.2,22.4C87.1,22.4,87.1,22.4,87.2,22.4"/>
	<path style="clip-path:url(#SVGID_00000023256566495222548290000009697663428264177549_);fill:#ED3624;" d="M94.4,20.8
		c0,0.2-0.1,0.4-0.4,0.5c-0.2,0-0.4-0.1-0.5-0.4c0-0.1,0-0.1,0-0.2c0,0,0,0,0,0c0,0,0,0.1,0,0c0,0,0.2,0.1,0.1,0.1
		c-0.1,0,0.2,0,0.2,0c-0.1,0,0.1,0,0.1,0c0,0,0,0,0,0c0,0-0.2,0.3-0.3,0.6c-0.3,0.8-0.5,2.1-0.7,3.3c-0.1,0.6-0.2,1.1-0.2,1.5
		c0,0.2,0,0.3,0,0.3c0,0-0.1-0.1,0-0.1c0,0-0.2-0.1-0.1-0.1c0,0-0.1,0-0.1,0c0,0,0,0,0,0c0.2-0.1,0.5-0.3,0.9-0.6
		c0.4-0.3,0.8-0.8,1.1-1.2c0.2-0.3,0.4-0.5,0.7-0.6c0.2-0.1,0.4-0.1,0.6-0.1c0.2,0,0.3,0.1,0.5,0.2c0.2,0.1,0.2,0.3,0.2,0.4
		c0,0.1,0,0.3,0,0.4c0,0.3-0.1,0.5-0.1,0.7c0,0.5,0,0.9,0.1,1.1c0,0,0,0,0,0c0,0-0.2-0.1-0.1,0c0,0,0,0,0,0c0,0,0.1,0,0.1-0.1
		c0.3-0.2,0.7-0.7,1.1-1.3c0.9-1.3,2-2.9,3-4.2c0.1-0.2,0.4-0.2,0.6,0c0.2,0.1,0.2,0.4,0,0.6c-1,1.2-2,2.8-3,4.1
		c-0.5,0.6-0.9,1.2-1.3,1.5c-0.2,0.2-0.4,0.3-0.7,0.3c-0.3,0-0.5-0.3-0.6-0.5c-0.1-0.4-0.2-0.9-0.1-1.4c0-0.3,0.1-0.5,0.1-0.7
		c0-0.1,0-0.2,0-0.2c0,0,0,0,0,0c0,0,0.1,0.1,0.1,0.1c0,0,0,0,0,0c0,0,0,0-0.1,0c-0.1,0-0.3,0.2-0.5,0.5c-0.3,0.4-0.7,0.9-1.2,1.3
		c-0.4,0.3-0.7,0.6-1.1,0.8c-0.1,0-0.3,0.1-0.4,0c-0.2-0.1-0.3-0.2-0.3-0.3c-0.1-0.2-0.1-0.4-0.1-0.6c0-0.4,0.1-1,0.2-1.6
		c0.2-1.2,0.4-2.5,0.7-3.4c0.1-0.4,0.2-0.7,0.5-0.9c0.1-0.1,0.2-0.1,0.3-0.2c0.2,0,0.3,0.1,0.4,0.2C94.3,20.4,94.4,20.6,94.4,20.8"
		/>
	<path style="clip-path:url(#SVGID_00000023256566495222548290000009697663428264177549_);fill:#ED3624;" d="M104.9,22.5
		c0-0.2,0.2-0.4,0.4-0.4c0.2,0,0.4,0.2,0.4,0.4c0,0.8-0.3,1.7-0.6,2.6c-0.1,0.4-0.3,0.8-0.3,1.1c0,0.1-0.1,0.2-0.1,0.3c0,0,0,0,0,0
		c0,0,0-0.1,0-0.1c0,0-0.2-0.2-0.1-0.1c0.2,0.1,0.2,0.4,0.1,0.6c-0.1,0.2-0.4,0.2-0.6,0.1c-0.3-0.2-0.2-0.4-0.2-0.5
		c0-0.1,0-0.3,0.1-0.4c0.1-0.3,0.2-0.7,0.3-1.1C104.6,24,104.9,23.1,104.9,22.5"/>
	<path style="clip-path:url(#SVGID_00000023256566495222548290000009697663428264177549_);fill:#ED3624;" d="M108.1,18.1
		c0.1,0.2,0.1,0.4-0.1,0.6c-0.2,0.1-0.4,0.1-0.6-0.1c0-0.1-0.1-0.1-0.1-0.1c0,0-0.1,0-0.1,0c-0.2,0-0.4,0.2-0.6,0.4
		c-0.2,0.2-0.4,0.4-0.5,0.6c0,0.1,0,0.1,0,0.2c0,0,0,0,0,0c0,0-0.1-0.1-0.1-0.1c0,0-0.1,0-0.1,0c0,0,0,0,0,0c0,0,0.1,0,0.1,0
		c0.1-0.1,0.3-0.1,0.4-0.2c0,0,0.1-0.1,0.1-0.1c0,0,0-0.1,0-0.1c0,0,0,0,0,0c0,0,0.1,0.1,0.1,0.1c0,0,0,0,0,0c0,0,0,0,0,0
		c-0.1,0-0.2,0-0.3,0.1c-0.3,0.1-0.5,0.3-0.5,0.3c-0.1,0.2-0.4,0.3-0.6,0.2c-0.2-0.1-0.3-0.4-0.2-0.6c0.2-0.4,0.5-0.5,0.9-0.7
		c0.2-0.1,0.4-0.1,0.6-0.2c0.1,0,0.2,0,0.3,0c0.1,0,0.2,0.1,0.4,0.2c0.2,0.2,0.2,0.5,0.2,0.7c0,0.2-0.1,0.5-0.4,0.7
		c-0.2,0.1-0.3,0.2-0.5,0.3c-0.1,0-0.2,0.1-0.3,0.1c-0.1,0-0.3,0-0.5-0.1c-0.2-0.1-0.3-0.3-0.3-0.5c0-0.2,0-0.4,0.1-0.6
		c0.1-0.3,0.4-0.6,0.7-0.9c0.3-0.3,0.6-0.5,1-0.6c0.2-0.1,0.4-0.1,0.6,0C107.7,17.7,107.9,17.9,108.1,18.1"/>
	<path style="clip-path:url(#SVGID_00000023256566495222548290000009697663428264177549_);fill:#ED3624;" d="M111,26.1
		c0,0.2-0.2,0.4-0.4,0.4c-0.2,0-0.4-0.2-0.4-0.4c0,0,0-0.1,0-0.1c0.1-0.4,0.3-0.7,0.6-1.2c0.6-1.1,1.5-2.1,2.5-2.8
		c0.4-0.3,0.8-0.4,1.2-0.5c0.2,0,0.5,0,0.7,0.2c0.2,0.2,0.3,0.4,0.4,0.7c0.1,0.8-0.4,1.5-0.7,2.3c-0.3,0.6-0.6,1.1-0.7,1.4
		c0,0.1-0.1,0.2-0.1,0.2c0,0,0-0.1,0,0c0,0-0.1-0.2-0.1-0.2c0,0,0,0,0,0c0,0,0.1,0,0.2,0c0.2,0,0.4,0,0.7-0.1
		c0.6-0.1,1.3-0.4,1.8-0.7c0.2-0.1,0.4-0.1,0.6,0.1c0.1,0.2,0.1,0.4-0.1,0.6c-0.6,0.4-1.4,0.7-2.1,0.8c-0.3,0.1-0.7,0.1-0.9,0.1
		c-0.3,0-0.6-0.1-0.8-0.3c-0.1-0.2-0.1-0.4-0.1-0.5c0-0.1,0.1-0.2,0.1-0.2c0.1-0.5,0.4-1,0.7-1.5c0.4-0.7,0.7-1.5,0.7-1.8
		c0-0.1,0-0.1,0-0.1c0,0,0,0-0.1,0c-0.2,0-0.5,0.1-0.7,0.3c-0.8,0.6-1.7,1.6-2.2,2.5C111.3,25.7,111.1,26.1,111,26.1
		C111,26.2,111,26.1,111,26.1 M111.6,21.2c0-0.2,0.2-0.4,0.4-0.4c0.2,0,0.4,0.2,0.4,0.4c0,0.6-0.2,1.4-0.4,2.4
		c-0.2,0.6-0.4,1.2-0.5,1.8c-0.1,0.3-0.2,0.6-0.2,0.8c0,0.1-0.1,0.2-0.1,0.3c0,0,0,0.1-0.1,0.1c0,0,0,0-0.1,0
		c-0.2,0.1-0.4,0.1-0.6-0.1c-0.1-0.2-0.1-0.4,0.1-0.6c0,0-0.1,0,0,0c0,0,0,0,0,0c0,0,0,0,0,0c0,0,0-0.1,0.1-0.1
		c0.1-0.2,0.1-0.4,0.2-0.7c0.2-0.5,0.4-1.1,0.5-1.7C111.4,22.4,111.6,21.6,111.6,21.2"/>
	<path style="clip-path:url(#SVGID_00000023256566495222548290000009697663428264177549_);fill:#ED3624;" d="M121.2,21.8
		c0-0.2,0.1-0.4,0.3-0.5c0.2,0,0.4,0.1,0.5,0.3c0.2,0.8-0.1,1.6-0.4,2.4c-0.1,0.3-0.2,0.7-0.3,1c-0.1,0.2-0.1,0.4-0.1,0.5
		c0,0,0,0,0,0c0,0,0-0.1,0,0c0,0-0.1-0.1-0.1-0.1c0,0-0.2-0.1-0.1-0.1c0,0-0.2,0-0.1,0c0,0-0.1,0-0.1,0c0,0-0.1,0,0,0c0,0,0,0,0,0
		c0,0,0.1-0.1,0.1-0.2c0.1-0.2,0.2-0.4,0.4-0.6c0.4-0.6,1-1.1,1.5-1.5c0.2-0.1,0.4-0.3,0.6-0.4c0.2-0.1,0.5,0,0.7,0.1
		c0.2,0.1,0.3,0.2,0.5,0.4c0.1,0.2,0.1,0.5,0.1,0.8c0,0.3-0.1,0.5-0.2,0.8c-0.2,0.5-0.4,1.1-0.5,1.5c-0.1,0.3-0.2,0.6-0.1,0.8
		c0,0.1,0.1,0.2,0.1,0.2c0,0,0.1,0,0.3,0c0.3-0.1,0.6-0.2,1-0.4c0.7-0.3,1.5-0.8,2.3-1c0.2-0.1,0.4,0.1,0.5,0.3
		c0.1,0.2-0.1,0.4-0.3,0.5c-0.6,0.1-1.3,0.6-2.1,0.9c-0.4,0.2-0.8,0.3-1.1,0.4c-0.3,0.1-0.7,0.1-1-0.1c-0.3-0.2-0.4-0.5-0.4-0.8
		c0-0.4,0.1-0.7,0.2-1.1c0.2-0.5,0.4-1,0.5-1.5c0.1-0.2,0.1-0.5,0.2-0.6c0-0.2,0-0.2,0-0.2c0,0-0.1-0.1-0.1-0.1c0,0-0.1,0-0.1,0
		c-0.1,0-0.2,0.1-0.4,0.3c-0.4,0.3-0.9,0.8-1.3,1.3c-0.1,0.2-0.2,0.4-0.4,0.6c-0.1,0.1-0.1,0.2-0.2,0.3c-0.1,0.1-0.2,0.2-0.4,0.2
		c-0.1,0-0.3,0-0.3-0.1c-0.1-0.1-0.1-0.2-0.2-0.2c-0.1-0.1-0.1-0.3,0-0.4c0-0.2,0.1-0.4,0.1-0.6c0.1-0.3,0.2-0.7,0.3-1
		C121.1,23,121.3,22.4,121.2,21.8"/>
	<path style="clip-path:url(#SVGID_00000023256566495222548290000009697663428264177549_);fill:#ED3624;" d="M199.8,81.5
		c0.2-0.1,0.4,0.1,0.5,0.3c0.1,0.2-0.1,0.4-0.3,0.5c-0.1,0,0.2-0.1,0.1-0.1c0,0,0.1-0.1,0.1-0.1c0,0,0-0.1,0-0.1c0,0,0,0,0,0
		c0,0-0.1,0.1-0.1,0.2c-0.1,0.2-0.2,0.4-0.3,0.7c-0.2,0.4-0.5,0.9-0.7,1.5c-0.5,1.2-0.9,2.6-1.1,3.8c-0.1,0.7-0.2,1.4-0.1,1.8
		c0,0.4,0.2,0.7,0.3,0.8c0.1,0,0.2,0.1,0.4,0c0.2,0,0.5-0.1,0.8-0.3c0.7-0.3,1.5-1,2.3-1.8c0.2-0.2,0.4-0.2,0.6,0
		c0.2,0.2,0.2,0.4,0,0.6c-0.9,0.8-1.7,1.5-2.5,1.9c-0.4,0.2-0.7,0.3-1.1,0.4c-0.3,0.1-0.7,0-1-0.2c-0.4-0.3-0.6-0.8-0.7-1.4
		c-0.1-0.6,0-1.3,0.1-2c0.2-1.3,0.6-2.8,1.2-4c0.3-0.6,0.5-1.1,0.7-1.5c0.1-0.2,0.2-0.4,0.3-0.6c0-0.1,0.1-0.2,0.1-0.2
		c0,0,0-0.1,0-0.1c0,0,0,0,0-0.1C199.6,81.7,199.6,81.6,199.8,81.5 M191.9,82.5c0,0.2-0.2,0.4-0.4,0.4c-0.2,0-0.4-0.2-0.4-0.4
		c0-0.6,0.4-1.1,0.9-1.5c0.3-0.2,0.6-0.4,0.9-0.6c0.4-0.2,0.7-0.4,1-0.5c0.1,0,0.3-0.1,0.5,0c0.1,0,0.3,0.2,0.3,0.3
		c0,0.1,0,0.2,0,0.3c-0.1,0.6-0.7,1.1-1.1,1.8c-0.5,0.9-0.9,2.2-1.2,3.5c-0.2,0.8-0.3,1.6-0.4,2.2c-0.1,0.9-0.1,1.4-0.1,1.5
		c0.1,0.1,0.2,0.2,0.4,0.3c0.2,0,0.5,0,0.8-0.1c0.3-0.1,0.8-0.5,1.3-1c1-1.1,2.1-2.7,3.1-4.2c0.5-0.7,1-1.4,1.4-1.8
		c0.2-0.2,0.4-0.5,0.5-0.6c0.1-0.1,0.1-0.1,0.2-0.2c0,0,0-0.1,0.1-0.1c0,0,0.1-0.2,0.4-0.1c0.2,0,0.4,0.3,0.3,0.5
		c0,0.2-0.3,0.4-0.5,0.3c-0.1,0,0.2,0,0.2,0c-0.1,0,0.1-0.1,0.1,0c0,0,0,0,0,0c0,0,0,0,0,0c0,0-0.1,0.1-0.1,0.2
		c-0.1,0.2-0.3,0.4-0.5,0.6c-0.4,0.5-0.9,1.1-1.4,1.8c-1.1,1.4-2.2,3.1-3.2,4.2c-0.6,0.6-1.1,1-1.6,1.2c-0.4,0.2-0.9,0.2-1.3,0.1
		c-0.4-0.1-0.7-0.3-1-0.6c-0.3-0.5-0.2-1.2-0.1-2c0.1-0.7,0.2-1.5,0.4-2.3c0.3-1.3,0.7-2.6,1.3-3.6c0.5-0.8,1-1.5,1-1.6c0,0,0,0,0,0
		c0,0,0,0.1,0,0.1c0,0,0.1,0.2,0.1,0.1c0,0,0.1,0.1,0.1,0.1c0,0,0.1,0,0.1,0c0,0,0,0-0.1,0c-0.1,0-0.4,0.2-0.8,0.4
		c-0.3,0.2-0.5,0.4-0.8,0.5C192.1,81.9,191.9,82.2,191.9,82.5"/>
	<path style="clip-path:url(#SVGID_00000023256566495222548290000009697663428264177549_);fill:#ED3624;" d="M207.1,81.3
		c0-0.2,0.3-0.4,0.5-0.3c0.2,0,0.4,0.3,0.3,0.5c0,0.1-0.2,0.6-0.4,1.3c-0.2,0.8-0.5,1.7-0.8,2.8c-0.3,1-0.6,1.9-0.9,2.7
		c-0.1,0.4-0.2,0.7-0.3,1c0,0.2-0.1,0.3-0.1,0.4c0,0,0,0,0,0c0,0,0-0.1,0-0.1c0,0-0.1-0.2-0.1-0.1c0,0-0.2-0.1-0.2-0.1
		c0.1,0-0.2,0-0.2,0c0,0-0.1,0.1-0.1,0c0,0,0,0,0,0c0.1-0.1,0.2-0.4,0.4-0.7c0.1-0.2,0.3-0.5,0.4-0.7c0.1-0.2,0.4-0.3,0.6-0.1
		c0.2,0.1,0.3,0.4,0.1,0.6c-0.1,0.2-0.2,0.4-0.4,0.7c-0.2,0.4-0.2,0.8-0.7,1.1c-0.1,0-0.2,0.1-0.3,0c-0.2,0-0.3-0.2-0.3-0.2
		c-0.1-0.1,0-0.2,0-0.3c0-0.2,0-0.3,0.1-0.5c0.1-0.3,0.2-0.7,0.3-1.1c0.3-0.8,0.6-1.7,0.9-2.7c0.3-1,0.6-2,0.8-2.7
		C206.9,81.8,207.1,81.3,207.1,81.3"/>
	<path style="clip-path:url(#SVGID_00000023256566495222548290000009697663428264177549_);fill:#ED3624;" d="M207.7,82.1
		c0,0.2-0.2,0.4-0.4,0.4s-0.4-0.2-0.4-0.4c0-0.1,0-0.2,0.1-0.2c0-0.1,0.1-0.2,0.2-0.2c0.2-0.1,0.4-0.1,0.5,0
		c0.6,0.2,1.6,0.4,2.8,0.4c0.7,0,1.3-0.1,2-0.2c0.3,0,0.6,0,0.8,0c0.1,0,0.3,0.1,0.4,0.2c0.1,0.1,0.2,0.2,0.3,0.4
		c0,0.2-0.1,0.4-0.3,0.5c-0.2,0-0.4-0.1-0.5-0.3c0,0,0.1,0.1,0.1,0.1c0,0,0,0-0.1,0c-0.1,0-0.3,0-0.6,0c-0.6,0-1.3,0.2-2,0.2
		c-1.3,0-2.4-0.2-3-0.4c0,0,0.1,0,0,0c0,0,0.2-0.1,0.1,0C207.5,82.3,207.7,82.1,207.7,82.1C207.6,82.2,207.7,82.1,207.7,82.1"/>
	<path style="clip-path:url(#SVGID_00000023256566495222548290000009697663428264177549_);fill:#ED3624;" d="M207.2,85.9
		c0.2,0,0.4,0.1,0.4,0.4c0,0.2-0.1,0.4-0.4,0.4c-0.2,0-0.3,0-0.4,0c0,0-0.1,0-0.1,0c0,0,0,0-0.1,0c0,0-0.2,0-0.3-0.2
		c-0.1-0.1,0-0.3,0-0.4c0.1-0.2,0.2-0.2,0.2-0.2c0,0,0.1,0,0.1,0c0.1,0,0.2,0,0.3,0c0.7-0.1,1.9-0.2,3-0.4c0.6-0.1,1.3-0.2,1.9-0.2
		c0.3,0,0.6,0,0.8,0.2c0.1,0.1,0.2,0.2,0.3,0.4c0,0.2,0,0.3,0,0.5c-0.1,0.2-0.3,0.4-0.5,0.3c-0.2-0.1-0.4-0.3-0.3-0.5
		c0-0.1,0-0.1,0-0.1c0,0,0,0,0,0c0,0-0.1,0-0.3-0.1c-0.4,0-1.1,0.1-1.7,0.2c-1.1,0.1-2.3,0.3-3,0.4c-0.1,0-0.2,0-0.2,0c0,0,0,0,0,0
		c0,0,0.1-0.1,0.1,0c0,0,0.1-0.1,0,0c0,0,0.1-0.1,0.1-0.1c0,0,0.1-0.3,0.1-0.2c0,0,0-0.2,0-0.1c0,0-0.1-0.2,0-0.1
		c0,0.1-0.1-0.2-0.1-0.1c0.1,0-0.1-0.1-0.1-0.1c0,0-0.1,0-0.1,0c0,0,0,0,0,0c0,0,0,0,0.1,0C206.9,85.9,207.1,85.9,207.2,85.9"/>
	<path style="clip-path:url(#SVGID_00000023256566495222548290000009697663428264177549_);fill:#ED3624;" d="M205.7,89.9
		c0.2,0,0.4,0.2,0.4,0.4c0,0.2-0.2,0.4-0.4,0.4c-0.2,0-0.2,0-0.2,0c0,0,0.1-0.1,0.1-0.1c0,0,0-0.2,0-0.2c0,0,0-0.1,0-0.1
		c0,0,0,0,0,0c0,0,0.1,0.1,0.2,0.1c0.4,0.2,1.3,0.4,2.3,0.4c1.1,0,2.3-0.1,3.7-0.4c0.2,0,0.4,0.1,0.5,0.3c0,0.2-0.1,0.4-0.3,0.5
		c-1.4,0.3-2.7,0.5-3.9,0.4c-1.1,0-2-0.1-2.7-0.5c-0.1-0.1-0.3-0.2-0.4-0.3c-0.1-0.1-0.2-0.2-0.2-0.5c0-0.1,0-0.2,0.1-0.3
		c0.1-0.1,0.2-0.2,0.2-0.2C205.3,90,205.5,90,205.7,89.9"/>
	<path style="clip-path:url(#SVGID_00000023256566495222548290000009697663428264177549_);fill:#ED3624;" d="M131,102.1
		c-0.1,0.2-0.4,0.2-0.6,0.1c-0.2-0.1-0.2-0.4-0.1-0.6c0.2-0.3,0.6-0.5,1-0.6c0.3-0.1,0.5-0.1,0.6-0.2c0.1-0.1,0.2-0.2,0.2-0.4
		c0-0.2-0.1-0.5-0.3-0.7c-0.2-0.2-0.5-0.4-1-0.4c-0.4,0-1.1,0.1-1.6,0.4c-0.6,0.3-1,0.9-1.2,1.5c-0.2,0.5-0.1,1.2,0.2,1.7
		c0.5,0.9,1.6,1.6,2.4,2.5c0.5,0.5,0.7,1.1,0.8,1.7c0,0.2,0.1,0.5,0,0.9c-0.2,0.7-0.9,0.9-1.6,1.3c-0.7,0.4-1.5,0.8-2.3,1.1
		c-0.6,0.2-1.2,0.4-1.8,0.4c-0.5,0-1-0.1-1.3-0.4c-0.3-0.3-0.5-0.7-0.4-1.2c0.1-0.5,0.4-0.9,0.9-1.4c0.2-0.1,0.4-0.1,0.6,0
		c0.1,0.2,0.1,0.4,0,0.6c-0.4,0.4-0.6,0.7-0.7,0.9c0,0.2,0,0.3,0.1,0.4c0.1,0.1,0.4,0.2,0.8,0.2c0.4,0,0.9-0.1,1.5-0.3
		c0.7-0.3,1.5-0.7,2.2-1.1c0.6-0.3,1.1-0.7,1.2-0.8c0-0.1,0-0.2,0-0.5c0-0.4-0.2-0.8-0.6-1.2c-0.7-0.8-1.9-1.5-2.6-2.7
		c-0.4-0.7-0.5-1.6-0.2-2.4c0.3-0.8,0.8-1.6,1.6-2c0.6-0.4,1.4-0.6,2.1-0.5c0.6,0.1,1.1,0.3,1.5,0.7c0.3,0.4,0.5,0.8,0.5,1.3
		c0,0.4-0.2,0.9-0.7,1.1c-0.3,0.1-0.5,0.1-0.6,0.2C131.4,101.8,131,102.1,131,102.1"/>
	<path style="clip-path:url(#SVGID_00000023256566495222548290000009697663428264177549_);fill:#ED3624;" d="M138.1,104.7
		c0.2,0.1,0.3,0.4,0.2,0.6c-0.1,0.2-0.4,0.3-0.6,0.2c0,0,0,0,0,0c0,0-0.1,0.1-0.2,0.2c-0.2,0.2-0.4,0.5-0.7,0.9
		c-0.4,0.6-0.7,1.3-0.8,2c-0.1,0.5-0.1,0.9,0,1.2c0.1,0.3,0.2,0.6,0.4,0.8c0.2,0.2,0.6,0.4,0.9,0.4c0.5,0.1,1.3-0.2,2-0.7
		c0.7-0.5,1.2-1.2,1.4-1.9c0.1-0.2,0.3-0.3,0.5-0.3c0.2,0.1,0.3,0.3,0.3,0.5c-0.3,0.9-0.9,1.7-1.7,2.3c-0.8,0.6-1.7,0.9-2.5,0.8
		c-0.5-0.1-1-0.3-1.4-0.6c-0.4-0.3-0.6-0.7-0.7-1.2c-0.1-0.5-0.1-1,0-1.6c0.2-0.7,0.5-1.5,0.9-2.2c0.2-0.4,0.5-0.8,0.8-1.1
		c0.2-0.1,0.3-0.3,0.5-0.3C137.7,104.6,137.9,104.6,138.1,104.7"/>
	<path style="clip-path:url(#SVGID_00000023256566495222548290000009697663428264177549_);fill:#ED3624;" d="M138.8,106.4
		c-0.2,0-0.4-0.2-0.4-0.4c0-0.2,0.2-0.4,0.4-0.4c0.2,0,0.3,0.2,0.4,0.3c0,0.1,0,0.2,0,0.2c0,0.1,0,0.2-0.1,0.3
		c-0.1,0.2-0.2,0.4-0.3,0.7c-0.2,0.2-0.3,0.4-0.7,0.5c-0.2,0-0.4,0-0.5-0.1c-0.2-0.1-0.3-0.2-0.4-0.4c-0.1-0.2-0.1-0.4,0.1-0.6
		c0.2-0.1,0.4-0.1,0.6,0.1c0,0.1,0.1,0.1,0.1,0.1c0,0-0.1,0-0.1,0c0,0,0.1-0.1,0.2-0.2c0.1-0.1,0.2-0.3,0.2-0.4c0-0.1,0-0.1,0-0.1
		c0,0,0,0.1,0,0c0,0,0,0.1,0,0.1c0,0,0.2,0.2,0.1,0.2c0,0,0.2,0.1,0.1,0.1C138.7,106.4,138.9,106.4,138.8,106.4"/>
	<path style="clip-path:url(#SVGID_00000023256566495222548290000009697663428264177549_);fill:#ED3624;" d="M147.2,98.8
		c0-0.2,0.1-0.4,0.4-0.4c0.2,0,0.4,0.1,0.4,0.4c0,0.6-0.1,1.4-0.3,2.5c-0.1,0.6-0.3,1.2-0.4,1.9c-0.2,0.8-0.3,1.6-0.4,2.4
		c-0.1,0.6-0.1,1.2-0.2,1.7c0,0.5-0.1,0.9-0.1,1.1c0,0.2,0,0.3,0,0.4c0,0.1,0,0,0,0c0,0,0,0,0.1,0c0.1,0,0.1,0,0.2,0
		c0.2-0.1,0.7-0.6,1.2-1.4c0.5-0.8,1-1.8,1.5-2.7c0.6-1.2,1.2-2.2,1.8-2.9c0.3-0.3,0.6-0.6,1-0.7c0.4-0.1,0.8,0.1,1.1,0.4
		c0.2,0.2,0.2,0.4,0,0.6c-0.2,0.2-0.4,0.2-0.6,0c-0.2-0.2-0.3-0.2-0.4-0.1c-0.1,0-0.3,0.2-0.6,0.4c-0.5,0.6-1.1,1.5-1.7,2.7
		c-0.5,0.9-1,1.9-1.5,2.7c-0.5,0.8-0.9,1.5-1.6,1.7c-0.2,0.1-0.5,0.1-0.7,0c-0.2-0.1-0.4-0.2-0.6-0.4c-0.2-0.3-0.1-0.6-0.1-0.7
		c0-0.3,0-0.7,0.1-1.2c0-0.5,0.1-1.1,0.2-1.7c0.1-0.8,0.3-1.7,0.4-2.4c0.1-0.7,0.3-1.3,0.4-1.9C147.1,99.9,147.3,99.1,147.2,98.8"/>
	<path style="clip-path:url(#SVGID_00000023256566495222548290000009697663428264177549_);fill:#ED3624;" d="M150.3,105.7
		c0-0.2,0.1-0.4,0.4-0.4c0.2,0,0.4,0.1,0.4,0.4c0,0.3,0,0.8-0.1,1.3c-0.1,0.6-0.1,1.2-0.1,1.7c0,0.5,0.1,1,0.2,1.2
		c0,0.1,0.1,0.1,0.1,0.1c0.1,0,0.2,0,0.4-0.1c0.2-0.1,0.4,0,0.6,0.2s0,0.4-0.2,0.6c-0.3,0.2-0.6,0.3-0.9,0.2c-0.3,0-0.5-0.2-0.7-0.4
		c-0.3-0.4-0.3-1-0.3-1.6C150.1,107.4,150.3,106,150.3,105.7"/>
	<path style="clip-path:url(#SVGID_00000023256566495222548290000009697663428264177549_);fill:#ED3624;" d="M157.3,105.8
		c0.2,0,0.4,0.2,0.4,0.4c0,0.2-0.2,0.4-0.4,0.4c0,0,0,0-0.1,0.1c-0.1,0.1-0.2,0.2-0.3,0.4c-0.2,0.3-0.3,0.8-0.4,1.2
		c-0.1,0.3,0,0.6,0.1,0.8c0.1,0.2,0.2,0.3,0.4,0.4c0.3,0.1,0.5,0,0.8-0.1c0.8-0.3,1.8-1.7,2.5-2.8c0.3-0.5,0.5-0.8,0.5-1.1
		c0-0.1,0-0.1,0-0.1c0,0-0.1-0.1-0.2-0.1c-0.4,0-1.2,0.2-1.9,0.4c-0.7,0.3-1.4,0.8-2,1.3c-0.2,0.1-0.4,0.1-0.6-0.1s-0.1-0.4,0.1-0.6
		c0.7-0.5,1.4-1.1,2.2-1.5c0.8-0.3,1.6-0.6,2.3-0.5c0.3,0,0.6,0.1,0.8,0.4c0.2,0.2,0.2,0.5,0.2,0.8c-0.1,0.4-0.3,0.9-0.6,1.3
		c-0.7,1.2-1.7,2.6-2.9,3.2c-0.5,0.2-0.9,0.2-1.3,0.1c-0.5-0.1-0.8-0.4-1-0.8c-0.2-0.4-0.2-0.9-0.1-1.3c0.1-0.5,0.3-1.1,0.5-1.5
		c0.1-0.2,0.3-0.4,0.4-0.6C156.8,105.9,157,105.8,157.3,105.8"/>
	<path style="clip-path:url(#SVGID_00000023256566495222548290000009697663428264177549_);fill:#ED3624;" d="M53,73.8
		c-0.1,0.2-0.4,0.2-0.6,0.1c-0.2-0.1-0.2-0.4-0.1-0.6c0.1-0.1,0.2-0.3,0.1-0.4c0-0.1-0.1-0.2-0.2-0.3c-0.1-0.1-0.3-0.1-0.6-0.1
		c-0.3,0-0.6,0.2-1,0.4c-0.8,0.6-1.5,2.1-2,3.7c-0.3,1-0.3,2-0.3,2.9c0,0.8,0.2,1.3,0.5,1.5c0.2,0.2,0.5,0.3,0.9,0.2
		c0.3-0.1,0.6-0.3,0.8-0.6c0.2-0.3,0.3-0.9,0.4-1.5c0-0.4,0-0.7,0-1c0-0.2,0-0.3,0-0.6c0-0.2,0-0.5,0.2-0.7c0.3-0.3,0.6-0.3,1-0.3
		c0.3,0,0.7,0.1,1,0.1c0.6,0.1,1.2,0.2,1.7,0.6c0.3,0.3,0.4,0.7,0.4,1.1c0,0.3,0,0.8-0.1,1.2c-0.1,0.7-0.6,1.2-0.9,1.7
		c-0.2,0.2-0.3,0.4-0.4,0.6c0,0.1-0.1,0.1-0.1,0.1c0,0,0,0,0,0c0.1,0.2,0,0.4-0.2,0.5c-0.2,0.1-0.4,0-0.5-0.2
		c-0.1-0.3,0-0.6,0.1-0.8c0.1-0.2,0.3-0.4,0.4-0.7c0.3-0.4,0.7-0.9,0.7-1.4c0.1-0.3,0.1-0.7,0.1-1c0-0.3-0.1-0.4-0.2-0.5
		c-0.2-0.2-0.7-0.3-1.2-0.4c-0.3,0-0.6-0.1-0.9-0.1c-0.1,0-0.2,0-0.3,0c-0.1,0,0,0-0.1,0c0,0,0,0,0,0c0,0,0,0.1,0,0.2
		c0,0.1,0,0.2,0,0.4c0,0.3,0,0.7,0,1.1c-0.1,0.6-0.1,1.3-0.5,1.9c-0.3,0.5-0.8,0.9-1.3,1c-0.6,0.1-1.2,0-1.6-0.4
		c-0.5-0.4-0.7-1.2-0.8-2.1c0-0.9,0-2,0.3-3.1c0.4-1.7,1.2-3.3,2.3-4.1c0.4-0.3,0.9-0.5,1.3-0.6c0.4-0.1,0.8,0,1.2,0.2
		c0.3,0.2,0.5,0.6,0.5,0.9C53.3,73.2,53.2,73.5,53,73.8"/>
	<path style="clip-path:url(#SVGID_00000023256566495222548290000009697663428264177549_);fill:#ED3624;" d="M62.1,72.1
		c0.2-0.2,0.4-0.2,0.6,0c0.2,0.2,0.2,0.4,0,0.6c-0.3,0.3-1.1,2.2-1.4,4.2c-0.2,1-0.2,2-0.2,2.8c0,0.4,0,0.7,0,1c0,0.3,0,0.4,0,0.4
		c0,0.1,0,0,0,0.1c0,0-0.1,0-0.1,0c0,0-0.1,0-0.1,0c0,0,0,0,0,0c0.1-0.1,0.2-0.4,0.4-0.7c0.5-0.9,1.2-2.1,1.9-3.2
		c1-1.5,2.1-2.5,3.1-3.1c1-0.6,1.8-0.9,2.3-1c0.2-0.1,0.4,0.1,0.5,0.3c0.1,0.2-0.1,0.4-0.3,0.5c-0.5,0.2-1.3,0.4-2.1,0.9
		c-0.9,0.6-1.9,1.5-2.8,2.8c-0.7,1.1-1.3,2.2-1.9,3.2c-0.2,0.3-0.2,0.8-0.8,1c-0.2,0.1-0.5,0-0.7-0.1c-0.2-0.1-0.2-0.3-0.3-0.5
		c-0.1-0.3,0-0.4,0-0.6c0-0.3,0-0.6,0-1.1c0-0.8,0.1-1.9,0.2-2.9c0.2-1.1,0.5-2.1,0.8-2.9C61.5,73,61.8,72.4,62.1,72.1"/>
	<path style="clip-path:url(#SVGID_00000023256566495222548290000009697663428264177549_);fill:#ED3624;" d="M64.8,77.7
		c0.1-0.2,0.3-0.3,0.5-0.2c0.2,0.1,0.3,0.3,0.2,0.5c-0.2,0.4-0.2,1.2,0,2.1c0.2,0.9,0.7,1.7,1.4,2c0.2,0.1,0.3,0.3,0.2,0.5
		c-0.1,0.2-0.3,0.3-0.5,0.2c-1-0.5-1.6-1.5-1.8-2.5C64.5,79.4,64.5,78.4,64.8,77.7"/>
	<path style="clip-path:url(#SVGID_00000023256566495222548290000009697663428264177549_);fill:#ED3624;" d="M49,147.3
		c0,0.2-0.2,0.4-0.5,0.4c-0.2,0-0.4-0.2-0.4-0.5c0-0.2,0-0.4,0.1-0.6c0,0,0.1-0.1,0.1-0.2c0.1-0.1,0.3-0.1,0.5,0
		c0.2,0.1,0.2,0.3,0.2,0.3c0.1,0.3,0.1,0.7,0,1.4c-0.1,0.7-0.3,1.5-0.5,2.3c-0.4,1.5-0.9,2.7-1.2,3.6c-0.1,0.3-0.2,0.6-0.2,0.8
		c0,0.1,0,0.1,0,0.1c0,0,0-0.1,0,0c0,0-0.1-0.1,0-0.1c0,0-0.1-0.1-0.1-0.1c0,0-0.2-0.1-0.1-0.1c0.1,0-0.3,0-0.2,0
		c0.1,0-0.1,0.1-0.1,0c0,0-0.1,0.1-0.1,0.1c0,0,0.1-0.1,0.2-0.4c0.1-0.3,0.3-0.8,0.5-1.5c0.1-0.2,0.3-0.3,0.5-0.3
		c0.2,0.1,0.3,0.3,0.3,0.5c-0.2,0.7-0.4,1.2-0.5,1.6c-0.1,0.3-0.1,0.5-0.4,0.7c-0.1,0.1-0.4,0.1-0.6-0.1c-0.1-0.1-0.1-0.2-0.1-0.3
		c0-0.1,0-0.2,0-0.3c0-0.2,0.1-0.5,0.2-0.9c0.3-0.9,0.8-2.2,1.2-3.6c0.2-0.8,0.4-1.6,0.5-2.2c0.1-0.6,0.1-1,0-1.1c0,0,0,0,0,0
		c0,0,0.1,0.1,0,0.1c0,0,0.2,0.1,0.1,0.1c0,0,0.1,0.1,0.1,0c-0.1,0,0.3,0,0.2,0c0,0,0.1-0.1,0.1-0.1c0,0,0.1-0.1,0.1-0.1
		c0,0,0,0,0,0C49,147,49,147.1,49,147.3"/>
	<path style="clip-path:url(#SVGID_00000023256566495222548290000009697663428264177549_);fill:#ED3624;" d="M49,148
		c0.2,0.2,0.1,0.4,0,0.6c-0.2,0.2-0.4,0.1-0.6,0c-0.1-0.2-0.2-0.4-0.2-0.5c0-0.2,0.1-0.4,0.1-0.5c0.2-0.3,0.4-0.6,0.7-0.8
		c0.9-0.7,2.2-0.8,3.4-0.8c1.5,0,3.5-0.5,3.7-0.6c0.2-0.1,0.4-0.1,0.6,0.1c0.1,0.2,0.1,0.4-0.1,0.6c-0.3,0.2-0.8,0.3-1.6,0.4
		c-0.8,0.2-1.7,0.3-2.5,0.3c-1.1,0-2.2,0.1-2.9,0.6c-0.2,0.2-0.4,0.4-0.5,0.5C49,148,49,148,49,148C49,148.1,49,148,49,148"/>
	<path style="clip-path:url(#SVGID_00000023256566495222548290000009697663428264177549_);fill:#ED3624;" d="M49.9,150.2
		c0.2,0,0.4,0.2,0.4,0.4s-0.2,0.4-0.4,0.4c-0.2,0-0.3,0-0.4,0c-0.1,0-0.2,0-0.3-0.2c-0.1-0.1-0.1-0.3,0-0.4c0-0.1,0.1-0.1,0.1-0.2
		c0.3-0.3,0.5-0.3,0.8-0.4c1.6-0.4,4.5-0.5,5.5-0.5c0.2,0,0.4,0.2,0.4,0.4c0,0.2-0.2,0.4-0.4,0.4c-0.9,0-3.9,0.1-5.3,0.5
		c-0.1,0-0.3,0.1-0.4,0.1c0,0-0.1,0-0.1,0c0,0,0.1-0.1,0,0c0,0,0.1-0.1,0,0c0,0,0.1-0.1,0-0.1c0,0,0-0.2,0-0.2
		c0,0.1-0.1-0.2-0.1-0.2C49.9,150.4,49.8,150.2,49.9,150.2c0,0.1-0.2,0-0.1,0c0,0,0,0,0,0C49.7,150.2,49.7,150.2,49.9,150.2"/>
	<path style="clip-path:url(#SVGID_00000023256566495222548290000009697663428264177549_);fill:#ED3624;" d="M49.5,153.7
		c0.2-0.1,0.4,0,0.6,0.2c0.1,0.2,0,0.4-0.2,0.6c-0.2,0.1-0.3,0.2-0.4,0.3c0,0-0.1,0.1-0.1,0.1c0,0,0,0,0,0c0,0,0-0.1,0-0.1
		c0,0,0-0.2,0-0.1c0,0.1-0.1-0.2-0.1-0.2c0,0-0.1-0.1-0.1-0.1c0,0-0.1,0,0,0c0,0,0,0,0.1,0c0.4,0,1.2,0,2.4-0.2
		c1.2-0.2,2.8-0.7,4.8-1.4c0.2-0.1,0.4,0,0.5,0.2c0.1,0.2,0,0.4-0.2,0.5c-2,0.7-3.7,1.2-4.9,1.4c-1.2,0.2-2,0.3-2.6,0.3
		c-0.1,0-0.3,0-0.4-0.1c-0.1,0-0.2-0.1-0.3-0.2c-0.1-0.1-0.1-0.3-0.1-0.4C48.7,154,49,153.9,49.5,153.7"/>
	<path style="clip-path:url(#SVGID_00000023256566495222548290000009697663428264177549_);fill:#ED3624;" d="M61.7,146.1
		c-0.1-0.2,0-0.4,0.2-0.5c0.2-0.1,0.4,0,0.5,0.2c0.2,0.5,0.1,1.3-0.1,2.2c-0.2,1-0.4,2.1-0.7,3.1c-0.2,1-0.5,1.8-0.6,2.4
		c0,0.2-0.1,0.3-0.1,0.5c0,0.1,0,0.1,0,0.1c0,0,0-0.1,0,0c0,0-0.1-0.1-0.1-0.1c0,0-0.1-0.1-0.1-0.1c0,0-0.1,0-0.1,0c0,0,0,0,0,0
		c0,0,0.1,0,0.2-0.1c0.1-0.1,0.3-0.5,0.6-0.9c1-1.7,2.4-3.6,3.7-4.9c0.6-0.6,1.2-1.1,1.8-1.4c0.3-0.1,0.6-0.2,0.9-0.1
		c0.3,0.1,0.5,0.4,0.6,0.7c0.1,0.2-0.1,0.4-0.3,0.5c-0.2,0.1-0.4-0.1-0.5-0.3c0-0.1-0.1-0.1-0.1-0.1c0,0-0.1,0-0.3,0.1
		c-0.4,0.2-0.9,0.6-1.5,1.2c-1.2,1.3-2.6,3.1-3.6,4.7c-0.2,0.4-0.4,0.8-0.7,1.1c-0.2,0.2-0.3,0.3-0.5,0.3c-0.1,0-0.2,0-0.4,0
		c-0.1,0-0.3-0.2-0.3-0.3c-0.2-0.4-0.1-0.7,0-1.1c0.1-0.7,0.4-1.5,0.6-2.5C61.4,148.9,61.8,146.5,61.7,146.1"/>
	<path style="clip-path:url(#SVGID_00000023256566495222548290000009697663428264177549_);fill:#ED3624;" d="M64.9,150.6
		c0.1-0.2,0.3-0.3,0.5-0.2c0.2,0.1,0.3,0.3,0.2,0.5c-0.1,0.4-0.1,0.7,0,1.1c0.1,0.4,0.3,0.7,0.7,1.1c0.7,0.7,1.7,1.3,2.7,1.8
		c0.2,0.1,0.3,0.3,0.2,0.5c-0.1,0.2-0.3,0.3-0.5,0.2c-1.1-0.5-2.2-1.1-3-2c-0.4-0.4-0.7-0.9-0.9-1.4
		C64.7,151.7,64.7,151.2,64.9,150.6"/>
</g>
</svg>
