<?xml version="1.0" encoding="utf-8"?>
<!-- Generator: Adobe Illustrator 26.0.2, SVG Export Plug-In . SVG Version: 6.00 Build 0)  -->
<svg version="1.1" id="Ebene_1" xmlns="http://www.w3.org/2000/svg" xmlns:xlink="http://www.w3.org/1999/xlink" x="0px" y="0px"
	 viewBox="0 0 286.5 120" style="enable-background:new 0 0 286.5 120;" xml:space="preserve">
<style type="text/css">
	.st0{opacity:0;}
	.st1{font-family:'.SFUI-Regular_wdth_opsz140000_GRAD_wght24E0000';}
	.st2{font-size:20.0656px;}
	.st3{font-family:'.SFUI-Regular_wdth_opsz110000_GRAD_wght24E0000';}
	.st4{font-size:14.0459px;}
	.st5{font-family:'.SFUI-Semibold';}
	.st6{font-size:28.0918px;}
	.st7{font-family:'.SFUI-Regular_wdth_opsz120000_GRAD_wght24E0000';}
	.st8{font-size:18.059px;}
	.st9{font-size:17.0557px;}
	.st10{font-size:16.0525px;}
	.st11{letter-spacing:-1;}
	.st12{clip-path:url(#SVGID_00000163791081374694664940000000101067254248396686_);}
	.st13{clip-path:url(#SVGID_00000163791081374694664940000000101067254248396686_);fill:#ED3624;}
	.st14{clip-path:url(#SVGID_00000163791081374694664940000000101067254248396686_);fill:#1749B3;}
</style>
<text transform="matrix(1 0 0 1 -54.4529 -54.741)" style="font-family:'TimesNewRomanPSMT'; font-size:11.0361px;"> </text>
<g>
	<text transform="matrix(1 0 0 1 3.6525 45.7238)" class="st0 st1 st2">i</text>
</g>
<g>
	<text transform="matrix(1 0 0 1 74.5358 30.4055)" class="st0"><tspan x="0" y="0" class="st3 st4">n</tspan><tspan x="8.6" y="0" class="st3 st4">o</tspan></text>
</g>
<g>
	<text transform="matrix(1 0 0 1 148.1462 32.8732)" class="st0"><tspan x="0" y="0" class="st5 st6">_</tspan><tspan x="14.4" y="0" class="st5 st6">r</tspan><tspan x="26" y="0" class="st5 st6">äudi</tspan><tspan x="86.2" y="0" class="st5 st6">g</tspan></text>
</g>
<g>
	<text transform="matrix(1 0 0 1 65.9792 62.4211)" class="st0"><tspan x="0" y="0" class="st7 st8">B</tspan><tspan x="10" y="0" class="st7 st8">P</tspan></text>
</g>
<g>
	<text transform="matrix(1 0 0 1 164.2253 61.6887)" class="st0"><tspan x="0" y="0" class="st3 st9">G</tspan><tspan x="11.9" y="0" class="st3 st9">k</tspan></text>
</g>
<g>
	<text transform="matrix(1 0 0 1 197.8181 60.5256)" class="st0"><tspan x="0" y="0" class="st3 st10">G</tspan><tspan x="11.3" y="0" class="st3 st10">w</tspan></text>
</g>
<g>
	<text transform="matrix(1 0 0 1 229.9587 62.1359)" class="st0"><tspan x="0" y="0" class="st3 st9">S</tspan><tspan x="8.8" y="0" class="st3 st9">k</tspan></text>
</g>
<g>
	<text transform="matrix(1 0 0 1 259.5485 62.7971)" class="st0"><tspan x="0" y="0" class="st7 st8">R</tspan><tspan x="10.9" y="0" class="st7 st8">a</tspan></text>
</g>
<g>
	<text transform="matrix(1 0 0 1 122.5705 99.3893)" class="st0"><tspan x="0" y="0" class="st3 st9 st11">L</tspan><tspan x="7.5" y="0" class="st3 st9">V</tspan><tspan x="18.2" y="0" class="st3 st9">P</tspan></text>
</g>
<g>
	<text transform="matrix(1 0 0 1 96.8942 116.1921)" class="st0"><tspan x="0" y="0" class="st3 st10">K</tspan><tspan x="10.2" y="0" class="st3 st10">F</tspan></text>
</g>
<g>
	<text transform="matrix(1 0 0 1 132.0724 116.5475)" class="st0"><tspan x="0" y="0" class="st3 st9">K</tspan><tspan x="10.4" y="0" class="st3 st9">a</tspan><tspan x="19.4" y="0" class="st3 st9">l</tspan><tspan x="23.9" y="0" class="st3 st9">k</tspan></text>
</g>
<g>
	<text transform="matrix(1 0 0 1 171.1432 116.8454)" class="st0"><tspan x="0" y="0" class="st3 st9">f</tspan><tspan x="5.6" y="0" class="st3 st9">a</tspan><tspan x="14.6" y="0" class="st3 st9">k</tspan><tspan x="24" y="0" class="st3 st9">t</tspan><tspan x="29.9" y="0" class="st3 st9">o</tspan><tspan x="39.9" y="0" class="st3 st9">r</tspan></text>
</g>
<g>
	<defs>
		<rect id="SVGID_1_" x="-65.4" y="-64.6" width="419.5" height="297.6"/>
	</defs>
	<clipPath id="SVGID_00000070817475881625811530000006059982223965412225_">
		<use xlink:href="#SVGID_1_"  style="overflow:visible;"/>
	</clipPath>
	<path style="clip-path:url(#SVGID_00000070817475881625811530000006059982223965412225_);" d="M2.4,40.6c0,0.2-0.2,0.4-0.5,0.4
		c-0.2,0-0.4-0.2-0.4-0.5c0-0.2,0-0.6-0.2-0.7c-0.2-0.2-0.2-0.4,0-0.6c0.2-0.2,0.4-0.2,0.6,0C2.4,39.6,2.4,40.2,2.4,40.6"/>
	<path style="clip-path:url(#SVGID_00000070817475881625811530000006059982223965412225_);" d="M0.5,36.7c0-0.2,0.2-0.4,0.4-0.4
		c0.2,0,0.4,0.2,0.4,0.4v31.7c0,0.2-0.2,0.4-0.4,0.4c-0.2,0-0.4-0.2-0.4-0.4V36.7z"/>
	<path style="clip-path:url(#SVGID_00000070817475881625811530000006059982223965412225_);" d="M0.9,68.8c-0.2,0-0.4-0.2-0.4-0.4
		c0-0.2,0.2-0.4,0.4-0.4h269.3c0.2,0,0.4,0.2,0.4,0.4c0,0.2-0.2,0.4-0.4,0.4H0.9z"/>
	<path style="clip-path:url(#SVGID_00000070817475881625811530000006059982223965412225_);" d="M0.9,37.1c-0.2,0-0.4-0.2-0.4-0.4
		s0.2-0.4,0.4-0.4h269.3c0.2,0,0.4,0.2,0.4,0.4s-0.2,0.4-0.4,0.4H0.9z"/>
	<path style="clip-path:url(#SVGID_00000070817475881625811530000006059982223965412225_);" d="M158.9,36.7c0-0.2,0.2-0.4,0.4-0.4
		c0.2,0,0.4,0.2,0.4,0.4v31.7c0,0.2-0.2,0.4-0.4,0.4c-0.2,0-0.4-0.2-0.4-0.4V36.7z"/>
	<path style="clip-path:url(#SVGID_00000070817475881625811530000006059982223965412225_);" d="M190.5,67.8
		c-0.2-0.1-0.3-0.3-0.2-0.5c0.1-0.2,0.3-0.3,0.5-0.2c0,0,0,0,0,0c0.1,0,0.1,0.1,0.1,0.1c0,0.1,0.1,0.1,0.1,0.2
		c0,0.1,0.1,0.2,0.1,0.4c0,0.1,0.1,0.4,0.1,0.4c0,0,0,0,0,0c0,0-0.1,0-0.1,0c0,0-0.2,0-0.1,0c0,0-0.2,0-0.1,0c0,0-0.1,0.1-0.1,0
		c0,0,0,0,0-0.1c0.1-0.2,0.3-0.3,0.5-0.2c0.2,0.1,0.3,0.3,0.2,0.5c-0.1,0.2-0.2,0.4-0.4,0.5c-0.1,0.1-0.3,0-0.4,0
		c-0.1-0.1-0.2-0.1-0.2-0.2c-0.2-0.3-0.3-0.6-0.3-0.8c0-0.1,0-0.1,0-0.1c0,0,0,0.1,0,0c0,0,0,0,0,0
		C190.4,67.7,190.5,67.8,190.5,67.8C190.5,67.8,190.5,67.8,190.5,67.8 M190.7,68.1c-0.2,0.1-0.4,0.1-0.6-0.1
		c-0.1-0.2-0.1-0.4,0.1-0.6c0,0,0,0,0,0c0,0,0,0,0,0c0,0,0,0,0-0.1c0-0.1,0.1-0.1,0.1-0.2c0.1-0.2,0.4-0.3,0.6-0.1
		c0.2,0.1,0.3,0.4,0.1,0.6c-0.1,0.1-0.1,0.2-0.2,0.2C190.8,67.9,190.8,68,190.7,68.1C190.8,68,190.8,68,190.7,68.1
		C190.8,68.1,190.7,68.1,190.7,68.1 M189.9,37.2c0-0.2,0.2-0.4,0.4-0.4c0.2,0,0.4,0.2,0.4,0.4c0,0,0,0,0,0.1c0,0.2,0,0.4,0,0.7
		c0,1.4,0,3.3,0,5.6c0,2.4,0.1,5,0.3,7.7c0.2,3.5,0.2,7.2,0,9.9c-0.1,1.5-0.2,2.7-0.2,3.7c0,0.5,0,0.9,0,1.4c0,0.3,0,0.6,0,0.8
		c0,0.2,0,0.3,0,0.4c0,0,0,0.1,0,0.1c0,0,0-0.1,0,0c0,0-0.1-0.1,0-0.1c0,0-0.1-0.1-0.1-0.1c0.2,0.1,0.2,0.4,0.1,0.6
		c-0.1,0.2-0.4,0.2-0.6,0.1c-0.2-0.1-0.2-0.2-0.2-0.3c0-0.1,0-0.1,0-0.2c0-0.1,0-0.3,0-0.4c0-0.3,0-0.5,0-0.8c0-0.5,0-0.9,0-1.4
		c0-1.1,0.1-2.3,0.2-3.7c0.2-2.6,0.2-6.3,0-9.8c-0.2-2.7-0.3-5.4-0.3-7.8c0-2.3,0-4.3,0-5.6C189.9,37.8,189.9,37.5,189.9,37.2
		C189.9,37.3,189.9,37.3,189.9,37.2 M190.7,38.2c0,0.2-0.2,0.4-0.4,0.4c-0.2,0-0.4-0.2-0.4-0.4c0-0.1,0-0.4,0-0.7c0-0.1,0-0.2,0-0.2
		c0,0,0,0,0,0c0-0.2,0.2-0.4,0.4-0.4c0.2,0,0.4,0.2,0.4,0.4c0,0,0,0,0,0c0,0,0,0.1,0,0.2C190.7,37.8,190.7,38.1,190.7,38.2"/>
	<path style="clip-path:url(#SVGID_00000070817475881625811530000006059982223965412225_);" d="M222.3,36.7c0-0.2,0.2-0.4,0.4-0.4
		c0.2,0,0.4,0.2,0.4,0.4v31.7c0,0.2-0.2,0.4-0.4,0.4c-0.2,0-0.4-0.2-0.4-0.4V36.7z"/>
	<path style="clip-path:url(#SVGID_00000070817475881625811530000006059982223965412225_);" d="M254,36.7c0-0.2,0.2-0.4,0.4-0.4
		c0.2,0,0.4,0.2,0.4,0.4v31.7c0,0.2-0.2,0.4-0.4,0.4c-0.2,0-0.4-0.2-0.4-0.4V36.7z"/>
	<path style="clip-path:url(#SVGID_00000070817475881625811530000006059982223965412225_);" d="M285.6,36.7c0-0.2,0.2-0.4,0.4-0.4
		c0.2,0,0.4,0.2,0.4,0.4v31.7c0,0.2-0.2,0.4-0.4,0.4c-0.2,0-0.4-0.2-0.4-0.4V36.7z"/>
	<path style="clip-path:url(#SVGID_00000070817475881625811530000006059982223965412225_);" d="M270.2,68.8c-0.2,0-0.4-0.2-0.4-0.4
		c0-0.2,0.2-0.4,0.4-0.4h15.8c0.2,0,0.4,0.2,0.4,0.4c0,0.2-0.2,0.4-0.4,0.4H270.2z"/>
	<path style="clip-path:url(#SVGID_00000070817475881625811530000006059982223965412225_);" d="M270.2,37.1c-0.2,0-0.4-0.2-0.4-0.4
		s0.2-0.4,0.4-0.4h15.8c0.2,0,0.4,0.2,0.4,0.4s-0.2,0.4-0.4,0.4H270.2z"/>
	<path style="clip-path:url(#SVGID_00000070817475881625811530000006059982223965412225_);" d="M0.9,68.8c0.1,0.2,0,0.4-0.2,0.5
		c-0.2,0.1-0.4,0-0.5-0.2c0-0.1,0-0.1-0.1-0.2c-0.1-0.2,0-0.1-0.1-0.3c-0.1-0.2,0.1-0.4,0.3-0.5c0.2-0.1,0.4,0.1,0.5,0.3
		C0.9,68.6,0.9,68.8,0.9,68.8C0.9,68.9,0.9,68.7,0.9,68.8C0.9,68.7,0.9,68.7,0.9,68.8"/>
	<path style="clip-path:url(#SVGID_00000070817475881625811530000006059982223965412225_);" d="M0.9,100.5c-0.2,0-0.4-0.2-0.4-0.4
		s0.2-0.4,0.4-0.4h285.1c0.2,0,0.4,0.2,0.4,0.4s-0.2,0.4-0.4,0.4H0.9z"/>
	<path style="clip-path:url(#SVGID_00000070817475881625811530000006059982223965412225_);" d="M0.9,116.3c-0.2,0-0.4-0.2-0.4-0.4
		c0-0.2,0.2-0.4,0.4-0.4h285.1c0.2,0,0.4,0.2,0.4,0.4c0,0.2-0.2,0.4-0.4,0.4H0.9z"/>
	<path style="clip-path:url(#SVGID_00000070817475881625811530000006059982223965412225_);" d="M0.5,20.9c0-0.2,0.2-0.4,0.4-0.4
		c0.2,0,0.4,0.2,0.4,0.4v15.8c0,0.2-0.2,0.4-0.4,0.4c-0.2,0-0.4-0.2-0.4-0.4V20.9z"/>
	<path style="clip-path:url(#SVGID_00000070817475881625811530000006059982223965412225_);" d="M285.6,20.9c0-0.2,0.2-0.4,0.4-0.4
		c0.2,0,0.4,0.2,0.4,0.4v15.8c0,0.2-0.2,0.4-0.4,0.4c-0.2,0-0.4-0.2-0.4-0.4V20.9z"/>
	<path style="clip-path:url(#SVGID_00000070817475881625811530000006059982223965412225_);" d="M158.9,20.9c0-0.2,0.2-0.4,0.4-0.4
		c0.2,0,0.4,0.2,0.4,0.4v15.8c0,0.2-0.2,0.4-0.4,0.4c-0.2,0-0.4-0.2-0.4-0.4V20.9z"/>
	<path style="clip-path:url(#SVGID_00000070817475881625811530000006059982223965412225_);" d="M0.5,68.4c0-0.2,0.2-0.4,0.4-0.4
		c0.2,0,0.4,0.2,0.4,0.4v47.5c0,0.2-0.2,0.4-0.4,0.4c-0.2,0-0.4-0.2-0.4-0.4V68.4z"/>
	<path style="clip-path:url(#SVGID_00000070817475881625811530000006059982223965412225_);" d="M285.6,68.4c0-0.2,0.2-0.4,0.4-0.4
		c0.2,0,0.4,0.2,0.4,0.4v47.5c0,0.2-0.2,0.4-0.4,0.4c-0.2,0-0.4-0.2-0.4-0.4V68.4z"/>
	<path style="clip-path:url(#SVGID_00000070817475881625811530000006059982223965412225_);" d="M3.5,114.3c0,0.2-0.2,0.4-0.4,0.4
		c-0.2,0-0.4-0.2-0.4-0.4c0,0,0,0,0-0.1c0,0,0-0.1,0-0.2c0-0.1,0.1-0.2,0.1-0.3c0.1-0.1,0.2-0.2,0.4-0.3c0.2,0,0.4,0.1,0.4,0.4
		c0,0.2-0.1,0.4-0.4,0.4C3.3,114.3,3.5,114.3,3.5,114.3C3.5,114.3,3.6,114.2,3.5,114.3C3.5,114.3,3.5,114.2,3.5,114.3
		C3.5,114.3,3.5,114.3,3.5,114.3C3.5,114.3,3.5,114.2,3.5,114.3 M2.7,114.2c0-0.2,0.2-0.4,0.4-0.4c0.2,0,0.4,0.2,0.4,0.4
		c0,0,0,0,0,0.1c0,0.2-0.2,0.4-0.5,0.3C2.8,114.7,2.7,114.5,2.7,114.2C2.7,114.2,2.7,114.2,2.7,114.2C2.7,114.2,2.7,114.3,2.7,114.2
		"/>
	<path style="clip-path:url(#SVGID_00000070817475881625811530000006059982223965412225_);" d="M0.9,29.7c-0.2,0-0.4-0.2-0.4-0.4
		s0.2-0.4,0.4-0.4h285.1c0.2,0,0.4,0.2,0.4,0.4s-0.2,0.4-0.4,0.4H0.9z"/>
	<path style="clip-path:url(#SVGID_00000070817475881625811530000006059982223965412225_);" d="M7.7,27.3c-0.2,0-0.4-0.1-0.4-0.4
		s0.1-0.4,0.4-0.4c0.1,0,0.1,0,0.2,0c0,0,0.1,0,0.2,0c0.1,0,0.1,0.1,0.2,0.2c0.1,0.1,0,0.3,0,0.4C8.1,27.4,8,27.3,8,27.3
		C7.9,27.3,7.9,27.4,7.7,27.3c-0.1,0.1-0.4,0.2-0.7,0.3c-0.7,0.3-1.7,0.6-2.5,1.1c-0.4,0.2-0.8,0.4-1.1,0.7
		c-0.2,0.2-0.4,0.4-0.5,0.5c-0.1,0.1-0.1,0.2-0.1,0.2c0,0,0,0,0,0c0,0,0-0.1,0-0.1c0,0.1-0.1-0.2-0.1-0.1c0,0,0.6,0.1,1.2,0.2
		c1.2,0.2,2.5,0.6,3.7,0.9c0.9,0.2,1.9,0.3,2.5,0.4c0.1,0,0.2,0,0.3,0c0,0,0,0,0,0c0,0-0.1,0-0.1,0c0,0-0.2,0.1-0.1,0
		c0,0-0.1,0.1-0.1,0.1c0,0-0.1,0.3-0.1,0.2c0-0.1,0,0.3,0,0.2c0,0,0.1,0.1,0.1,0.1c0,0,0.1,0.1,0.1,0.1c0,0,0.1,0,0.1,0
		c0,0,0,0-0.1,0c-0.1,0-0.2,0-0.4-0.1c-0.2,0-0.4-0.3-0.3-0.5c0-0.2,0.3-0.4,0.5-0.3c0.2,0,0.3,0.1,0.4,0.1c0.1,0,0.1,0,0.1,0
		c0,0,0.1,0,0.1,0c0.1,0,0.2,0.1,0.2,0.4c0,0.3-0.2,0.3-0.3,0.3c-0.1,0-0.2,0-0.2,0c-0.1,0-0.2,0-0.4,0c-0.6-0.1-1.6-0.2-2.5-0.4
		c-1.3-0.3-2.6-0.7-3.7-0.9c-0.5-0.1-1.2,0.1-1.6-0.4C2,30.4,2,30.3,2,30.1c0-0.1,0-0.2,0-0.3c0.1-0.2,0.2-0.3,0.3-0.4
		c0.2-0.2,0.4-0.4,0.6-0.6c0.4-0.3,0.8-0.6,1.2-0.8C5,27.5,6,27.2,6.7,26.9c0.3-0.1,0.6-0.2,0.8-0.3c0,0,0.1,0,0.1,0c0,0,0,0,0,0
		c0,0-0.1,0.1,0,0c0,0-0.1,0.1,0,0c0,0-0.1,0.1-0.1,0.1c0,0,0,0.2,0,0.2c0-0.1,0.1,0.2,0,0.2c0,0,0.1,0.1,0.1,0.1
		C7.5,27.2,7.7,27.3,7.7,27.3C7.6,27.3,7.8,27.3,7.7,27.3C7.7,27.3,7.8,27.3,7.7,27.3C7.8,27.3,7.8,27.3,7.7,27.3"/>
	<path style="clip-path:url(#SVGID_00000070817475881625811530000006059982223965412225_);" d="M153,27.9c-0.2,0-0.4-0.2-0.4-0.4
		c0-0.2,0.2-0.4,0.4-0.4c0.2,0,0.6,0.1,1.2,0.1c1.2,0.1,2.7,0.4,3.9,0.8c0.5,0.2,0.9,0.3,1.2,0.5c0.1,0.1,0.3,0.1,0.5,0.3
		c0.1,0.1,0.1,0.3,0,0.4c-0.1,0.1-0.1,0.1-0.2,0.2c-0.1,0-0.1,0.1-0.2,0.1c-0.1,0-0.2,0.1-0.4,0.1c-0.3,0.1-0.6,0.1-0.9,0.2
		c-1.8,0.3-3.6,1.6-5,2.2c-0.2,0.1-0.4,0-0.5-0.2c-0.1-0.2,0-0.4,0.2-0.5c1.3-0.5,3.1-1.9,5.2-2.3c0.3-0.1,0.7-0.1,0.9-0.2
		c0.1,0,0.2-0.1,0.3-0.1c0,0-0.1,0,0,0c0,0-0.1,0.1,0,0c0,0-0.1,0.1-0.1,0.1c0,0-0.1,0.3-0.1,0.2c0,0,0,0.2,0,0.1
		c0,0,0.1,0.1,0.1,0.1c0,0,0,0,0,0c0,0-0.1-0.1-0.3-0.1c-0.2-0.1-0.6-0.3-1.1-0.4c-1.1-0.3-2.6-0.6-3.8-0.7
		C153.6,27.9,153.2,27.9,153,27.9 M157.9,29.3c-0.2,0-0.4-0.2-0.4-0.4c0-0.2,0.2-0.4,0.4-0.4c0.2,0,0.3,0,0.3,0c0,0,0,0,0,0
		c0,0-0.1,0.1-0.1,0c0,0-0.1,0.1-0.1,0.1c0,0-0.1,0.2-0.1,0.2c0-0.1,0,0.2,0,0.2c0-0.1,0.1,0.2,0.1,0.1c0,0,0,0,0,0c0,0,0,0,0,0
		c-0.1,0-0.1-0.1-0.2-0.1c-0.6-0.2-1.5-0.5-2.4-0.7c-0.5-0.1-1-0.2-1.5-0.2c-0.3,0-0.5,0-0.7-0.1c-0.1,0-0.2,0-0.2,0c0,0,0,0-0.1,0
		c-0.2,0-0.4-0.3-0.3-0.5c0-0.2,0.3-0.4,0.5-0.3c0,0,0,0,0,0c0,0,0.1,0,0.2,0c0.2,0,0.4,0,0.8,0.1c0.5,0.1,1,0.1,1.6,0.3
		c1,0.2,2,0.5,2.6,0.8c0.1,0.1,0.2,0.1,0.3,0.2c0.1,0.1,0.2,0.1,0.3,0.4c0,0.2-0.1,0.4-0.2,0.5c-0.1,0.1-0.2,0.1-0.2,0.1
		C158.3,29.3,158.1,29.3,157.9,29.3"/>
	<path style="clip-path:url(#SVGID_00000070817475881625811530000006059982223965412225_);" d="M164.8,26.9c-0.2,0-0.4-0.1-0.4-0.4
		c0-0.2,0.1-0.4,0.4-0.4c0.1,0,0.2,0,0.4,0c0.1,0,0.2,0,0.3,0.2c0.1,0.2,0,0.4,0,0.5c-0.2,0.2-0.3,0.2-0.5,0.3
		c-0.3,0.1-0.7,0.3-1,0.5c-1,0.4-1.9,0.8-2.7,1.2c-0.4,0.2-0.9,0.3-1.1,0.5c-0.1,0.1-0.2,0.1-0.2,0.1c0,0,0,0,0,0c0,0,0-0.2,0-0.1
		c0,0,0-0.1,0-0.1c0,0,0,0,0,0c0,0,0.1,0.1,0.2,0.2c0.5,0.4,1.5,0.7,2.6,1c1.1,0.3,2.1,0.5,2.8,1.2c0.2,0.2,0.2,0.4,0,0.6
		c-0.2,0.2-0.4,0.2-0.6,0c-0.4-0.4-1.4-0.7-2.4-1c-1.1-0.3-2.1-0.5-2.9-1.1c-0.1-0.1-0.3-0.2-0.4-0.4c-0.1-0.1-0.1-0.2-0.1-0.3
		c0-0.1,0-0.3,0.1-0.4c0.2-0.3,0.4-0.3,0.5-0.4c0.4-0.2,0.8-0.4,1.2-0.6c0.8-0.4,1.8-0.8,2.7-1.2c0.4-0.2,0.7-0.3,1-0.5
		c0.1,0,0.2-0.1,0.2-0.1c0,0,0,0,0,0c0,0,0,0,0,0c0,0-0.1,0.1,0,0c0,0-0.1,0.2-0.1,0.1c0,0,0,0.2,0,0.1c0-0.1,0.1,0.2,0.1,0.2
		C164.6,26.6,164.8,26.8,164.8,26.9C164.7,26.7,164.9,26.8,164.8,26.9c0.1,0,0.1,0,0.1,0C164.9,26.8,164.9,26.9,164.8,26.9"/>
	<path style="clip-path:url(#SVGID_00000070817475881625811530000006059982223965412225_);" d="M278.8,27.2c-0.2,0-0.4-0.1-0.5-0.3
		c0-0.2,0.1-0.4,0.3-0.5c0,0-0.1,0-0.1,0c0,0,0,0,0,0c0,0,0,0,0,0c0,0,0.1,0,0.2-0.1c0.1-0.1,0.3-0.1,0.5-0.1
		c0.6-0.1,1.1,0.2,1.6,0.5c0.5,0.4,1,0.8,1.5,1.2c0.4,0.3,1,0.6,1.4,0.7c0.2,0.1,0.3,0.1,0.4,0.1c0.1,0,0.1,0,0.2,0c0,0,0.1,0,0.1,0
		c0,0,0,0,0,0c0,0-0.1,0.1-0.1,0l0.5,0.6c-0.3,0.2-0.4,0.1-0.6,0.2c-0.2,0-0.4,0.1-0.6,0.1c-0.7,0.2-1.7,0.8-2.7,1.1
		c-0.6,0.2-1,0.3-1.3,0.4c-0.3,0.1-0.4,0.2-0.4,0.5c0,0.2-0.3,0.4-0.5,0.3c-0.2,0-0.4-0.3-0.3-0.5c0.1-0.5,0.5-0.9,0.9-1.1
		c0.4-0.2,0.9-0.3,1.4-0.4c0.9-0.3,1.9-0.8,2.8-1.1c0.2-0.1,0.5-0.1,0.7-0.1c0.1,0,0.2,0,0.2,0c0,0,0,0,0,0c0,0,0,0,0,0
		c0,0-0.1,0.1-0.1,0c0.2-0.1,0.4-0.1,0.6,0.1c0.1,0.2,0.1,0.4-0.1,0.6c-0.2,0.1-0.2,0.1-0.3,0.1c-0.1,0-0.3,0.1-0.5,0
		c-0.2,0-0.4-0.1-0.6-0.2c-0.5-0.2-1.1-0.4-1.6-0.9c-0.5-0.4-1-0.8-1.5-1.1c-0.5-0.3-0.9-0.4-1-0.4c-0.1,0-0.2,0.1-0.4,0.1
		c-0.1,0-0.1,0-0.2,0.1C279,27.2,279,27.2,278.8,27.2C278.9,27.2,278.9,27.2,278.8,27.2 M284.3,29.1c-0.2,0-0.4-0.2-0.4-0.4
		c0-0.2,0.2-0.4,0.4-0.4c0.1,0,0.1,0,0.1,0c0,0-0.1,0,0,0c0,0-0.1,0.1-0.1,0.1c0,0-0.1,0.2-0.1,0.1c0,0,0,0.2,0,0.1c0,0,0,0.1,0,0.1
		c0,0,0,0,0,0c0,0-0.1-0.1-0.2-0.2c-0.5-0.3-1.6-0.6-2.7-0.8c-0.6-0.1-1.1-0.2-1.6-0.2c-0.2,0-0.4,0-0.6-0.1
		c-0.3-0.1-0.5-0.1-0.7-0.3c-0.1-0.2-0.1-0.4,0.1-0.6c0.2-0.1,0.4-0.1,0.6,0.1c0,0,0-0.1,0,0c0,0,0.1,0,0.3,0.1c0.1,0,0.3,0,0.5,0
		c0.5,0.1,1,0.1,1.7,0.2c1.1,0.2,2.3,0.5,3,1c0.2,0.1,0.4,0.2,0.6,0.6c0,0.1,0.1,0.2,0,0.4c-0.1,0.1-0.2,0.2-0.3,0.3
		C284.7,29.1,284.5,29.1,284.3,29.1"/>
	<path style="clip-path:url(#SVGID_00000070817475881625811530000006059982223965412225_);" d="M8.2,111.9c0.2-0.1,0.4-0.1,0.6,0.1
		c0.1,0.2,0.1,0.4-0.1,0.6c-0.1,0.1-0.1,0.1-0.1,0.1c-0.1,0-0.1,0-0.2,0.1c-0.2,0.1-0.5,0.2-0.9,0.3c-1.3,0.4-2.7,0.8-3.9,1.5
		c-0.5,0.2-0.8,0.5-1.2,0.7c-0.3,0.2-0.6,0.3-0.8,0.5c-0.2,0.1-0.4,0.2-0.4,0.2c0,0,0,0,0,0.1c0,0,0,0,0,0c0,0-0.1-0.1-0.1-0.1
		c0,0,0,0,0.1,0c0.1,0,0.3,0,0.5,0.1c1.1,0.3,2,1,3,1.6c0.9,0.5,2,0.7,2.8,0.8c0.6,0.1,0.9,0.3,1.2,0.5c0.3,0.1,0.4,0.2,0.6,0.2
		c0.2,0,0.4,0.1,0.5,0.4c0,0.2-0.1,0.4-0.4,0.5c-0.4,0-0.8-0.1-1.1-0.3c-0.3-0.2-0.6-0.3-1-0.4c-0.9-0.2-2.1-0.4-3.1-0.9
		c-1.2-0.6-2-1.3-2.8-1.6c-0.1,0-0.3,0-0.4-0.1c-0.2,0-0.4-0.1-0.6-0.3c-0.1-0.2-0.1-0.4-0.1-0.6c0-0.2,0.1-0.3,0.2-0.5
		c0.2-0.2,0.4-0.3,0.6-0.3c0.3-0.2,0.5-0.3,0.8-0.5c0.4-0.3,0.8-0.5,1.3-0.8c1.3-0.7,2.8-1.1,4.1-1.5C7.6,112.1,7.9,111.9,8.2,111.9
		C8.2,111.8,8.3,111.8,8.2,111.9C8.3,111.8,8.3,111.8,8.2,111.9C8.3,111.8,8.2,111.8,8.2,111.9C8.3,111.8,8.2,111.9,8.2,111.9
		 M8.5,112.6c-0.2,0.1-0.4-0.1-0.5-0.3c-0.1-0.2,0.1-0.4,0.3-0.5c0,0,0.1,0,0.1,0c0,0,0,0,0.1,0c0.2,0,0.4,0.2,0.4,0.4
		C8.8,112.4,8.7,112.6,8.5,112.6C8.4,112.6,8.5,112.6,8.5,112.6C8.5,112.6,8.5,112.6,8.5,112.6"/>
	<path style="clip-path:url(#SVGID_00000070817475881625811530000006059982223965412225_);" d="M284.7,114.7
		c0.2,0.1,0.2,0.4,0.1,0.6c-0.1,0.2-0.4,0.2-0.6,0.1c-0.4-0.3-1.5-0.7-2.6-0.9c-0.5-0.1-1-0.2-1.5-0.2c-0.3,0-0.5-0.1-0.8-0.1
		c-0.4,0-0.7-0.1-1-0.1c-0.1,0-0.3-0.1-0.4-0.2c-0.1-0.1-0.1-0.2-0.1-0.3c0-0.1,0-0.2,0.1-0.3c0.1-0.1,0.2-0.1,0.2-0.1
		c0.4-0.1,0.5,0.1,0.8,0.2c0.2,0.1,0.5,0.2,0.8,0.3c0.8,0.3,1.8,0.5,2.6,0.7c0.4,0.1,0.8,0.1,1.1,0.3c0.3,0.1,0.4,0.3,0.5,0.5
		c0.1,0.2,0.1,0.4,0.1,0.5c0,0.3-0.2,0.6-0.4,0.9c-0.2,0.2-0.5,0.4-0.8,0.6c-0.7,0.4-1.5,0.7-2.3,1c-0.8,0.3-1.6,0.6-2.1,0.9
		c-0.2,0.1-0.4,0.3-0.5,0.4c-0.1,0.1,0,0,0,0c0.1,0.2,0,0.4-0.2,0.6c-0.2,0.1-0.4,0-0.6-0.2c-0.2-0.3-0.1-0.7,0.1-0.9
		c0.2-0.2,0.4-0.4,0.7-0.6c0.6-0.4,1.4-0.7,2.2-1c0.8-0.3,1.6-0.7,2.2-1c0.3-0.2,0.5-0.3,0.7-0.5c0.1-0.1,0.2-0.2,0.2-0.3
		c0-0.1,0-0.2,0-0.2c0,0,0,0-0.1-0.1c-0.2-0.1-0.6-0.1-1-0.2c-0.8-0.2-1.8-0.4-2.7-0.7c-0.3-0.1-0.6-0.3-0.8-0.4
		c-0.1-0.1-0.2-0.1-0.3-0.1c0,0-0.1,0-0.1,0c0,0,0.1,0,0.1,0c0,0,0.1,0,0.1,0c0,0,0.1-0.1,0.1-0.1c0,0,0.1-0.2,0.1-0.1
		c0,0,0-0.2,0-0.1c0,0.1,0-0.2,0-0.2c0,0-0.1-0.1,0-0.1c0,0-0.1-0.1-0.1-0.1c0,0,0,0,0,0c0.2,0,0.5,0.1,0.9,0.1c0.3,0,0.5,0,0.8,0.1
		c0.5,0.1,1,0.1,1.6,0.3C283,113.9,284.1,114.2,284.7,114.7"/>
	<path style="clip-path:url(#SVGID_00000070817475881625811530000006059982223965412225_);fill:#ED3624;" d="M68,48.3
		c0-0.2,0.1-0.4,0.3-0.5c0.2,0,0.4,0.1,0.5,0.3c0.1,0.4,0,1,0,1.7c-0.1,0.8-0.2,1.7-0.3,2.6c-0.1,0.8-0.2,1.6-0.2,2.3
		c0,0.4,0,0.8,0,1.1c0,0.2,0,0.3,0,0.4c0,0.1,0,0.1-0.1,0.2c0,0,0,0.1-0.1,0.1c-0.1,0.1-0.2,0.2-0.4,0.1c-0.3-0.1-0.3-0.2-0.3-0.3
		c0-0.1,0-0.1-0.1-0.2c0-0.1,0-0.3-0.1-0.5c0-0.4-0.1-0.8-0.1-1.3c0-1,0-2,0-3c0.1-1.3,0.2-3,1-4.5c0.5-0.9,1.4-1.5,2.4-1.7
		c0.9-0.2,1.9-0.1,2.8,0.2c0.8,0.3,1.5,0.9,1.7,1.8c0,0.3,0.1,0.6,0,1c-0.2,0.7-0.9,1.2-1.4,1.7c-0.5,0.4-0.9,0.8-1.3,1.1
		c-0.1,0.1-0.2,0.1-0.2,0.2c0,0,0,0,0,0c0,0,0-0.2,0-0.1c0,0,0,0,0,0c0,0,0.1,0.1,0.1,0.2c0.2,0.2,0.7,0.5,1.2,0.9
		c0.6,0.5,1,1.2,1.2,2c0.1,0.4,0.2,0.8,0.2,1.2c0,0.5-0.2,0.9-0.6,1.3c-0.4,0.3-0.9,0.6-1.5,0.7c-1.1,0.3-2.4,0.3-3.6,0.3
		c-0.7,0-1.3-0.1-1.7-0.1c-0.4,0-0.6,0.1-0.7,0.2c-0.1,0.2-0.4,0.3-0.6,0.1s-0.3-0.4-0.1-0.6c0.3-0.5,0.8-0.6,1.4-0.6
		c0.5,0,1.1,0.1,1.7,0.1c1.1,0,2.4,0,3.4-0.2c0.5-0.1,0.9-0.3,1.1-0.5c0.2-0.2,0.3-0.4,0.3-0.7c0-0.3,0-0.6-0.1-0.9
		c-0.2-0.6-0.5-1.2-1-1.6c-0.4-0.3-0.9-0.6-1.2-0.9c-0.1-0.1-0.2-0.2-0.3-0.4c0-0.1-0.1-0.2-0.1-0.3c0-0.1,0-0.3,0.1-0.4
		c0.2-0.2,0.3-0.3,0.4-0.4c0.3-0.2,0.8-0.6,1.2-1c0.5-0.5,1.1-1,1.2-1.4c0.1-0.2,0-0.4,0-0.6c-0.1-0.4-0.5-0.9-1.2-1.1
		c-0.7-0.3-1.5-0.4-2.3-0.2c-0.8,0.2-1.4,0.6-1.8,1.3c-0.7,1.2-0.9,2.8-0.9,4.1c0,1,0,2,0,3c0,0.4,0,0.9,0.1,1.2c0,0.2,0,0.3,0,0.4
		c0,0,0,0,0,0.1c0,0-0.1-0.1,0-0.1c0,0-0.1-0.1-0.1-0.1c0,0-0.2-0.1-0.2-0.1c0.1,0-0.3,0.1-0.2,0c0.1,0-0.2,0.1-0.1,0.1
		c0,0-0.1,0.1-0.1,0.1c0,0,0,0,0,0c0-0.1,0-0.2,0-0.3c0-0.3,0-0.7,0-1.2c0-0.7,0.1-1.5,0.2-2.3C67.9,50.6,68.1,48.8,68,48.3"/>
	<path style="clip-path:url(#SVGID_00000070817475881625811530000006059982223965412225_);fill:#ED3624;" d="M84.5,55.7
		c0.1,0.2-0.1,0.4-0.3,0.5c-0.2,0.1-0.4-0.1-0.5-0.3c0,0,0,0,0-0.1c0,0,0,0,0-0.1c0-0.1,0-0.2,0-0.3c0-0.2-0.1-0.6-0.1-0.9
		c-0.1-1.4,0-3.1,0.3-4.8c0.2-1,0.5-1.9,0.7-2.6c0.2-0.5,0.4-0.8,0.7-1.1c0.3-0.3,0.6-0.4,1-0.4c0.7,0,1.3,0.3,1.9,0.8
		c0.7,0.5,0.9,1.4,1,2.1c0,0.4,0,0.8-0.2,1.2c-0.4,0.7-1.3,1.1-2.1,1.4c-0.8,0.3-1.5,0.5-2.1,0.4c-0.2-0.1-0.4-0.3-0.3-0.5
		c0.1-0.2,0.3-0.4,0.5-0.3c0.2,0,0.9-0.1,1.6-0.3c0.7-0.3,1.4-0.7,1.7-1.1c0.1-0.2,0.1-0.4,0.1-0.7c0-0.6-0.3-1.2-0.7-1.5
		c-0.5-0.4-1-0.6-1.3-0.6c-0.2,0-0.3,0.1-0.5,0.2c-0.2,0.1-0.3,0.4-0.5,0.8c-0.2,0.7-0.5,1.5-0.7,2.4c-0.3,1.6-0.3,3.3-0.3,4.6
		c0,0.4,0,0.7,0.1,0.9C84.5,55.5,84.5,55.6,84.5,55.7C84.5,55.7,84.5,55.7,84.5,55.7C84.5,55.7,84.5,55.7,84.5,55.7 M84.2,47.5
		c0-0.2,0.1-0.4,0.3-0.5c0.2,0,0.4,0.1,0.5,0.3c0,0.3,0,0.7-0.1,1.3c-0.1,0.6-0.1,1.4-0.2,2.1c-0.1,0.8-0.1,1.7-0.2,2.5
		c0,0.7,0,1.4,0,1.9c0,0.3,0,0.5,0,0.6c0,0.2-0.2,0.4-0.4,0.4c-0.2,0-0.4-0.2-0.4-0.4c0-0.1,0-0.3,0-0.6c0-0.5,0-1.2,0-1.9
		c0-0.8,0.1-1.7,0.2-2.5C84,49.3,84.2,47.8,84.2,47.5"/>
	<path style="clip-path:url(#SVGID_00000070817475881625811530000006059982223965412225_);fill:#ED3624;" d="M171.8,49
		c-0.2,0.2-0.4,0.2-0.6,0c-0.2-0.2-0.2-0.4,0-0.6c0.3-0.3,0.6-1,0.5-1.4c0-0.1,0-0.2-0.1-0.2c0,0-0.1-0.1-0.1-0.1
		c-0.1,0-0.5,0-0.9,0.3c-0.4,0.3-0.9,0.7-1.3,1.2c-0.9,1.1-1.5,2.7-1.8,4.1c-0.3,1.2-0.2,2.3,0,2.9c0.1,0.3,0.3,0.4,0.5,0.4
		c0.2,0,0.3,0,0.3,0c0.2-0.1,0.4-0.7,0.6-1.3c0.2-0.7,0.3-1.4,0.6-2c0.2-0.3,0.5-0.4,0.7-0.5c0.3,0,0.5,0,0.7,0.1
		c0.4,0.1,0.8,0.2,1.2,0.5c0.1,0.1,0.3,0.3,0.5,0.6c0.2,0.5,0,1-0.1,1.4c-0.3,0.7-0.8,1.2-1.1,1.5c0,0,0,0.1-0.1,0.1c0,0,0,0,0,0
		c0,0,0-0.1,0,0c0,0,0-0.1,0-0.1c0,0,0-0.2,0-0.2c0,0.1-0.1-0.2-0.1-0.2c0,0-0.2-0.1-0.1-0.1c0.1,0-0.2,0-0.2,0c0,0-0.1,0-0.1,0
		c0,0,0,0,0,0c0.1,0,0.3-0.2,0.8-0.4c0.2-0.1,0.4,0,0.6,0.2c0.1,0.2,0,0.4-0.2,0.6c-0.5,0.2-0.7,0.4-0.9,0.5c0,0-0.1,0.1-0.3,0
		c-0.1,0-0.3-0.1-0.3-0.3c0-0.2,0-0.2,0-0.3c0.1-0.2,0.1-0.2,0.2-0.2c0.3-0.3,0.7-0.7,0.9-1.2c0.1-0.4,0.2-0.8,0.1-0.9
		c0-0.1-0.1-0.2-0.3-0.3c-0.1-0.2-0.4-0.2-0.8-0.3c-0.2,0-0.3-0.1-0.4-0.1c-0.1,0-0.1,0-0.1,0c-0.2,0.3-0.2,1.1-0.5,1.9
		c-0.2,0.6-0.4,1.3-0.9,1.7c-0.3,0.2-0.6,0.2-0.8,0.2c-0.5,0-1-0.4-1.3-1c-0.3-0.8-0.4-2-0.1-3.4c0.3-1.6,0.9-3.3,2-4.5
		c0.5-0.6,1-1,1.5-1.3c0.5-0.3,1-0.5,1.5-0.4c0.3,0.1,0.5,0.2,0.6,0.4c0.1,0.2,0.2,0.4,0.2,0.6C172.6,47.7,172.2,48.4,171.8,49"/>
	<path style="clip-path:url(#SVGID_00000070817475881625811530000006059982223965412225_);fill:#ED3624;" d="M178.4,46.3
		c0-0.2,0.2-0.4,0.5-0.4s0.4,0.2,0.4,0.5c0,0.4-0.3,1.1-0.5,2c-0.3,1-0.6,2.2-0.8,3.3c-0.2,1.1-0.3,2.1-0.3,2.8c0,0.3,0,0.5,0,0.5
		c0,0,0-0.1,0,0c0,0-0.1-0.1-0.1-0.1c0.1,0-0.2-0.1-0.2-0.1c0,0-0.1,0,0,0c0,0,0,0,0.1-0.1c0.3-0.3,0.9-1.4,1.5-2.4
		c0.8-1.3,1.6-2.4,2.4-3.1c0.4-0.3,0.8-0.6,1.2-0.6c0.4-0.1,0.9,0.2,1.1,0.6c0.1,0.2,0.1,0.4-0.1,0.6c-0.2,0.1-0.4,0.1-0.6-0.1
		c-0.1-0.2-0.2-0.2-0.3-0.2c-0.2,0-0.5,0.2-0.8,0.4c-0.7,0.6-1.5,1.6-2.3,2.9c-0.6,1-1.1,2.1-1.6,2.6c-0.1,0.1-0.3,0.3-0.5,0.3
		c-0.1,0-0.3,0-0.4-0.1c-0.1-0.1-0.2-0.2-0.2-0.3c-0.1-0.3,0-0.5,0-0.8c0-0.7,0.1-1.8,0.3-2.9c0.2-1.1,0.5-2.3,0.8-3.3
		C178.2,47.2,178.4,46.5,178.4,46.3"/>
	<path style="clip-path:url(#SVGID_00000070817475881625811530000006059982223965412225_);fill:#ED3624;" d="M180.1,52.2
		c0-0.2,0.1-0.4,0.4-0.5c0.2,0,0.4,0.1,0.5,0.4c0.1,1.1,0.4,3.2,1.7,4.3c0.2,0.1,0.2,0.4,0.1,0.6c-0.1,0.2-0.4,0.2-0.6,0.1
		c-0.8-0.7-1.3-1.6-1.5-2.5C180.3,53.6,180.2,52.8,180.1,52.2"/>
	<path style="clip-path:url(#SVGID_00000070817475881625811530000006059982223965412225_);fill:#ED3624;" d="M206.5,48.1
		c-0.1,0.2-0.4,0.2-0.6,0c-0.2-0.1-0.2-0.4,0-0.6c0.1-0.2,0.2-0.4,0.2-0.5c0-0.1,0-0.2-0.1-0.3c-0.1,0-0.2-0.1-0.4-0.1
		c-0.2,0-0.4,0.1-0.7,0.2c-0.8,0.3-1.7,1.3-2.4,2.4c-0.6,0.9-0.9,2.1-1.1,3.1c-0.1,0.7-0.2,1.3-0.2,1.8c0,0.2,0,0.4,0.1,0.5
		c0,0.1,0.1,0.1,0.1,0.1c0.1,0.1,0.1,0.1,0.1,0c0,0,0.2-0.2,0.3-0.5c0.2-0.4,0.3-0.8,0.5-1.2c0.4-1,0.9-1.9,1.7-2.3
		c0.5-0.3,1.1-0.1,1.6,0.2c0.5,0.3,0.9,0.8,1.1,1.2c0.2,0.4,0.2,0.8,0.1,1.3c-0.1,0.4-0.2,0.7-0.3,1.1c-0.1,0.3-0.3,0.5-0.4,0.6
		c0,0,0,0,0,0c0,0,0.1-0.1,0-0.1c0,0,0-0.1,0-0.1c0,0,0-0.1,0-0.1c0,0-0.1-0.2-0.1-0.2c0,0.1-0.2-0.2-0.2-0.2c0.1,0-0.2,0-0.1,0
		c0.1,0-0.2,0-0.1,0c0,0-0.1,0-0.1,0c0,0,0,0,0,0c0,0,0,0,0.1,0c0.2-0.1,0.4-0.1,0.6,0.1c0.1,0.2,0.1,0.4-0.1,0.6
		c0,0-0.1,0.1-0.1,0.1c0,0,0,0-0.1,0c0,0-0.1,0.1-0.3,0c-0.1-0.1-0.2-0.2-0.2-0.3c0-0.3,0-0.3,0.1-0.3c0,0,0-0.1,0.1-0.1
		c0.1-0.1,0.2-0.3,0.3-0.5c0.1-0.3,0.2-0.6,0.3-0.8c0-0.3,0-0.6-0.1-0.8c-0.1-0.3-0.5-0.7-0.8-0.9c-0.3-0.2-0.6-0.3-0.8-0.2
		c-0.4,0.2-0.9,0.9-1.3,1.9c-0.2,0.4-0.3,0.9-0.5,1.3c-0.2,0.4-0.4,0.8-0.8,1c-0.3,0.1-0.7,0-0.9-0.1c-0.2-0.1-0.3-0.3-0.4-0.5
		c-0.1-0.2-0.1-0.4-0.1-0.7c0-0.5,0-1.2,0.2-2c0.2-1.1,0.6-2.3,1.2-3.4c0.8-1.2,1.7-2.3,2.7-2.7c0.3-0.1,0.7-0.2,1-0.2
		c0.3,0,0.6,0.1,0.9,0.2c0.3,0.2,0.5,0.6,0.4,1C206.9,47.4,206.8,47.8,206.5,48.1"/>
	<path style="clip-path:url(#SVGID_00000070817475881625811530000006059982223965412225_);fill:#ED3624;" d="M212.7,47.3
		c0,0.2-0.2,0.4-0.4,0.4c-0.2,0-0.4-0.2-0.4-0.4c0,0,0,0,0,0c0,0,0,0.1,0,0.1c0,0,0.1,0.1,0,0.1c0,0,0.1,0.1,0.1,0.1
		c0,0,0.2,0.1,0.1,0.1c0,0,0.2,0,0.1,0c-0.1,0,0.2-0.1,0.2-0.1c0,0,0.1-0.1,0.1-0.1c0,0,0,0,0,0c0,0-0.1,0.2-0.2,0.5
		c-0.2,0.6-0.4,1.4-0.7,2.3c-0.4,1.5-0.9,3-1,4c0,0.2,0,0.3,0,0.4c0,0.1,0,0,0,0.1c0,0-0.1,0,0,0c0,0,0,0,0,0c0,0,0.1,0,0.2,0
		c0.4-0.1,1-0.7,1.5-1.2c0.2-0.2,0.4-0.4,0.7-0.5c0.3-0.1,0.6-0.1,0.8,0c0.2,0.1,0.4,0.4,0.4,0.6c0.2,0.7,0,1.5,0.1,1.8
		c0,0-0.1-0.1,0-0.1c0,0,0,0,0,0c0.1,0,0.2,0,0.3-0.1c0.3-0.2,0.6-0.8,1-1.4c1-1.7,2-3,3.3-3.8c0.2-0.1,0.4-0.1,0.6,0.1
		c0.1,0.2,0.1,0.4-0.1,0.6c-1.1,0.7-2,1.9-3,3.5c-0.4,0.6-0.7,1.3-1.2,1.7c-0.3,0.2-0.5,0.3-0.8,0.3c-0.1,0-0.3,0-0.4-0.1
		c-0.1-0.1-0.3-0.2-0.3-0.4c-0.2-0.6,0-1.4-0.1-1.8c0-0.1-0.1-0.2-0.1-0.2c0,0,0,0,0,0c-0.1,0.1-0.3,0.2-0.5,0.4
		c-0.5,0.4-1.1,1.1-1.8,1.3c-0.1,0-0.3,0.1-0.5,0.1c-0.2,0-0.4-0.1-0.5-0.2c-0.2-0.2-0.2-0.4-0.3-0.5c0-0.2,0-0.4,0-0.6
		c0.1-1.1,0.6-2.7,1-4.1c0.3-0.9,0.5-1.7,0.7-2.3c0.1-0.3,0.1-0.5,0.2-0.6c0,0,0.1-0.1,0.1-0.2c0.1-0.1,0.4-0.1,0.5,0
		C212.8,47,212.7,47.2,212.7,47.3"/>
	<path style="clip-path:url(#SVGID_00000070817475881625811530000006059982223965412225_);fill:#ED3624;" d="M239,49.8
		c-0.2,0.1-0.4,0.1-0.6,0c-0.1-0.2-0.1-0.4,0-0.6c0.1-0.1,0.6-0.9,0.5-1.3c0,0,0-0.1-0.1-0.1c-0.1-0.1-0.3-0.1-0.6-0.1
		c-0.5,0-1.2,0.2-1.8,0.5c-0.4,0.2-0.7,0.5-0.8,0.7c-0.2,0.2-0.2,0.5-0.2,0.8c0.1,0.5,0.9,1.3,1.4,2.2c0.3,0.5,0.4,1,0.3,1.5
		c-0.1,0.5-0.5,0.9-0.9,1.1c-0.4,0.2-0.9,0.4-1.4,0.5c-0.5,0.1-1.1,0.1-1.5,0c-0.2,0-0.4-0.1-0.6-0.2c-0.1-0.1-0.2-0.2-0.2-0.4
		c0-0.2,0-0.3,0.1-0.4c0.1-0.2,0.4-0.3,0.6-0.2c0.2,0.1,0.3,0.4,0.2,0.6c0,0,0,0,0,0c0,0,0-0.1,0-0.1c0,0,0-0.1,0-0.1c0,0,0-0.1,0,0
		c0,0,0.1,0,0.2,0c0.3,0,0.8,0,1.3,0c0.4-0.1,0.8-0.2,1.1-0.4c0.3-0.2,0.4-0.3,0.5-0.5c0-0.3,0-0.6-0.3-1c-0.4-0.7-1.3-1.5-1.5-2.5
		c-0.1-0.4,0-0.9,0.3-1.3c0.2-0.4,0.6-0.8,1.2-1c0.7-0.3,1.5-0.6,2.2-0.6c0.3,0,0.6,0.1,0.9,0.2c0.3,0.1,0.5,0.4,0.5,0.7
		c0.1,0.5-0.1,0.9-0.3,1.2C239.3,49.3,239.2,49.6,239,49.8"/>
	<path style="clip-path:url(#SVGID_00000070817475881625811530000006059982223965412225_);fill:#ED3624;" d="M243.5,47.1
		c-0.2-0.1-0.3-0.3-0.3-0.5c0.1-0.2,0.3-0.3,0.5-0.3c0.2,0.1,0.3,0.2,0.3,0.3c0,0.1,0,0.1,0,0.2c0,0.1,0,0.2-0.1,0.3
		c-0.1,0.2-0.2,0.5-0.3,0.8c-0.3,0.7-0.7,1.5-1.1,2.4c-0.7,1.7-1.2,3.5-1.3,4.4c0,0.1,0,0.2,0,0.3c0,0-0.1-0.1,0-0.1
		c0,0-0.2-0.1-0.1-0.1c0,0,0,0,0,0c0,0,0.1,0,0.1-0.1c0.1-0.1,0.2-0.2,0.4-0.3c0.3-0.3,0.7-0.7,1.1-1.1c0.5-0.5,1-1.1,1.5-1.7
		c0.7-0.8,1.3-1.4,1.8-1.8c0.2-0.2,0.5-0.3,0.7-0.4c0.3-0.1,0.6,0,0.8,0.2c0.2,0.2,0.2,0.4,0,0.6c-0.2,0.2-0.4,0.2-0.6,0
		c0,0,0,0,0,0c-0.1,0-0.3,0.1-0.5,0.3c-0.4,0.3-1,0.9-1.7,1.7c-0.5,0.5-1,1.1-1.5,1.7c-0.4,0.4-0.8,0.9-1.2,1.2
		c-0.2,0.2-0.3,0.3-0.5,0.4c-0.2,0.1-0.4,0.2-0.6,0.2c-0.2,0-0.5-0.2-0.5-0.4c-0.1-0.2-0.1-0.4-0.1-0.6c0-0.5,0.2-1.2,0.4-2.1
		c0.2-0.8,0.6-1.7,0.9-2.6c0.4-0.9,0.8-1.8,1.1-2.4c0.1-0.3,0.3-0.6,0.3-0.8c0-0.1,0-0.1,0-0.2c0,0,0,0,0,0c0,0,0,0.1,0,0
		c0,0,0.1,0.2,0,0.1c0,0,0.1,0.1,0.1,0.1C243.3,47,243.5,47.2,243.5,47.1"/>
	<path style="clip-path:url(#SVGID_00000070817475881625811530000006059982223965412225_);fill:#ED3624;" d="M244.1,53.7
		c-0.1-0.2,0.1-0.4,0.3-0.5c0.2-0.1,0.4,0.1,0.5,0.3c0.3,1,0.9,2,1.5,3.6c0.1,0.2,0,0.4-0.2,0.5c-0.2,0.1-0.4,0-0.5-0.2
		C245,55.8,244.4,54.8,244.1,53.7"/>
	<path style="clip-path:url(#SVGID_00000070817475881625811530000006059982223965412225_);fill:#ED3624;" d="M265.6,46
		c0.2-0.1,0.4,0.1,0.5,0.3c0.1,0.2-0.1,0.4-0.3,0.5c0,0,0.1-0.1,0.1,0c0,0,0,0,0,0c0,0,0,0,0,0.1c0,0.1-0.1,0.2-0.2,0.4
		c-0.1,0.4-0.2,0.9-0.3,1.5c-0.1,0.6-0.2,1.4-0.3,2.2c-0.2,1.3-0.4,2.7-0.6,3.9c-0.1,0.9-0.2,1.6-0.3,2.1c0,0.3-0.1,0.5-0.1,0.7
		c0,0,0,0.1-0.1,0.2c0,0.1-0.1,0.2-0.4,0.2c-0.2,0-0.3-0.1-0.4-0.2c0-0.1-0.1-0.1-0.1-0.1c-0.1-0.2-0.1-0.3-0.1-0.6
		c-0.1-0.5-0.1-1.3-0.1-2.1c0-2.3,0.5-5.2,1.5-7.1c0.4-0.8,0.9-1.3,1.5-1.6c0.4-0.2,0.9-0.2,1.3-0.1c0.4,0.1,0.8,0.4,1,0.7
		c0.4,0.5,0.4,1.1,0.3,1.7c-0.3,1-1.2,1.9-1.6,2.6c-0.4,0.6-0.2,1.4,0.3,2.4c0.5,1,1.1,2.1,1.5,3.3c0.1,0.2-0.1,0.4-0.3,0.5
		c-0.2,0.1-0.4-0.1-0.5-0.3c-0.3-1.1-1-2.1-1.5-3.2c-0.5-1-0.8-2.2-0.2-3.2c0.5-0.9,1.3-1.7,1.5-2.4c0.1-0.4,0.1-0.7-0.1-1
		c-0.1-0.2-0.4-0.3-0.6-0.4c-0.2-0.1-0.5-0.1-0.7,0c-0.4,0.2-0.8,0.6-1.1,1.3c-0.9,1.7-1.4,4.5-1.4,6.7c0,0.8,0,1.5,0.1,2
		c0,0.2,0.1,0.4,0.1,0.4c0,0-0.1-0.1,0,0c0,0-0.1-0.1-0.1-0.1c0,0-0.1-0.1-0.1-0.1c0,0-0.2,0-0.2,0c0.1,0-0.2,0.1-0.1,0
		c0.1,0-0.2,0.1-0.1,0.1c0,0-0.1,0.1,0,0.1c0,0,0,0,0,0c0-0.1,0.1-0.3,0.1-0.6c0.1-0.5,0.2-1.3,0.3-2.1c0.2-1.3,0.4-2.7,0.6-3.9
		c0.1-0.8,0.2-1.5,0.3-2.2c0.1-0.6,0.2-1.2,0.4-1.6c0.1-0.2,0.1-0.4,0.2-0.6C265.2,46.2,265.3,46.1,265.6,46"/>
	<path style="clip-path:url(#SVGID_00000070817475881625811530000006059982223965412225_);fill:#ED3624;" d="M275.6,51.9
		c0,0.2-0.2,0.4-0.4,0.4c-0.2,0-0.4-0.2-0.4-0.4c0,0,0,0,0,0c0,0-0.1-0.1-0.2-0.1c-0.2-0.1-0.5-0.1-0.7,0c-0.6,0.2-1.3,1.2-1.7,2.2
		c-0.2,0.5-0.3,1-0.2,1.3c0,0.1,0,0.2,0,0.3c0,0,0,0,0,0c0,0-0.1-0.1-0.1-0.1c0,0,0,0,0,0c0,0,0.1,0,0.2,0c0.2-0.1,0.4-0.2,0.7-0.3
		c0.5-0.3,1-1.1,1.4-1.7c0.1-0.2,0.2-0.4,0.6-0.4c0.2,0,0.4,0.1,0.5,0.3c0.1,0.1,0.1,0.2,0.1,0.3c0,0.5-0.3,1-0.4,1.5
		c-0.1,0.2-0.1,0.5-0.1,0.6c0,0.1,0,0,0,0c0.1,0,0.3,0,0.5,0c0.5-0.1,1.3-0.3,2-0.7c0.2-0.1,0.4,0,0.5,0.2c0.1,0.2,0,0.4-0.2,0.5
		c-0.7,0.3-1.5,0.6-2.2,0.7c-0.3,0.1-0.6,0.1-0.9,0c-0.3-0.1-0.6-0.4-0.6-0.8c0-0.3,0-0.6,0.1-0.9c0.1-0.6,0.4-1.1,0.4-1.4
		c0,0,0,0,0,0c0,0,0,0.1,0,0.1c0,0,0.2,0.2,0.1,0.1c-0.1,0,0.3,0.1,0.2,0.1c-0.1,0,0.1,0,0.1,0c0,0,0,0-0.1,0.1
		c-0.3,0.4-0.8,1.3-1.6,1.8c-0.3,0.2-0.6,0.3-0.9,0.4c-0.1,0-0.3,0.1-0.4,0.1c-0.2,0-0.3,0-0.5-0.1c-0.2-0.1-0.2-0.3-0.2-0.5
		c0-0.1,0-0.2,0-0.3c-0.1-0.5,0-1.1,0.3-1.7c0.4-1.2,1.1-2.4,2.2-2.7c0.4-0.1,0.9-0.1,1.2,0c0.2,0.1,0.4,0.1,0.5,0.3
		C275.4,51.5,275.6,51.7,275.6,51.9"/>
	<path style="clip-path:url(#SVGID_00000070817475881625811530000006059982223965412225_);fill:#ED3624;" d="M127.9,85.6
		c-0.1,0.2-0.3,0.3-0.5,0.3c-0.2-0.1-0.3-0.3-0.3-0.5c0.1-0.5,0.4-0.8,0.7-1c0.1-0.1,0.3-0.2,0.4-0.3c0.2-0.1,0.4-0.4,0.8-0.5
		c0.2,0,0.4,0,0.5,0.2c0.1,0.1,0.2,0.3,0.2,0.5c0,0.5-0.3,1-0.7,1.5c-0.4,0.6-0.9,1.3-1.5,2c-0.6,0.8-1.3,1.6-1.8,2.3
		c-1,1.3-1.6,2.2-1.8,2.7c0,0.1,0,0.1,0,0.1c0,0-0.1-0.1,0,0c0.2,0.1,0.6,0,1.2-0.1c0.9-0.2,1.9-0.5,2.8-0.7
		c0.9-0.2,1.9-0.1,2.9,0.3c0.2,0.1,0.3,0.3,0.2,0.5c-0.1,0.2-0.3,0.3-0.5,0.2c-1.5-0.8-3.2,0-5.2,0.4c-0.6,0.1-1.1,0.2-1.6,0
		c-0.2-0.1-0.4-0.2-0.5-0.5c-0.1-0.2,0-0.5,0-0.7c0.2-0.7,0.9-1.7,1.9-3c0.6-0.7,1.2-1.5,1.8-2.2c1.1-1.5,2.1-2.8,2.1-3.1
		c0,0,0,0,0,0c0,0,0.1,0.1,0.1,0.1c0,0,0.2,0.1,0.1,0.1c0,0,0.1,0,0.1,0c0,0,0,0,0,0c-0.1,0.1-0.3,0.2-0.5,0.4
		c-0.1,0.1-0.3,0.2-0.4,0.3C128.1,85.2,127.9,85.3,127.9,85.6"/>
	<path style="clip-path:url(#SVGID_00000070817475881625811530000006059982223965412225_);fill:#ED3624;" d="M136.1,85.7
		c0-0.2,0.1-0.4,0.3-0.5c0.2,0,0.4,0.1,0.5,0.3c0.1,0.5,0,1.2-0.1,2c-0.1,0.9-0.2,1.8-0.2,2.8c-0.1,1,0,1.9,0.2,2.5
		c0.1,0.2,0.1,0.4,0.2,0.5c0.1,0.1,0.2,0.1,0.2,0.2c0,0,0,0,0.1,0c0.1,0,0.5-0.7,0.9-1.4c0.8-1.3,1.6-3,2.4-4.3
		c0.4-0.7,0.7-1.2,1.1-1.6c0.4-0.4,0.9-0.6,1.5-0.6c0.2,0,0.4,0.2,0.4,0.4c0,0.2-0.2,0.4-0.4,0.4c-0.4,0-0.6,0.1-0.9,0.3
		c-0.3,0.3-0.6,0.7-1,1.4c-0.7,1.3-1.6,3-2.4,4.3c-0.4,0.7-0.7,1.5-1.4,1.7c-0.2,0.1-0.5,0.1-0.7,0c-0.2-0.1-0.3-0.2-0.5-0.4
		c-0.2-0.2-0.3-0.5-0.4-0.8c-0.2-0.8-0.3-1.7-0.2-2.8C135.9,88.4,136.2,86.4,136.1,85.7"/>
	<path style="clip-path:url(#SVGID_00000070817475881625811530000006059982223965412225_);fill:#ED3624;" d="M146.3,94.8
		c-0.2,0.2-0.4,0.2-0.6,0c-0.2-0.2-0.2-0.4,0-0.6c0,0,0,0,0,0c0,0,0,0.1,0,0c0,0,0,0,0,0c0.2-0.5,0.5-2.2,0.9-3.9
		c0.3-1.3,0.7-2.5,1-3.5c0.2-0.7,0.4-1.3,0.6-1.8c0.1-0.2,0.3-0.4,0.5-0.6c0.5-0.3,1.2-0.2,1.8,0c0.6,0.2,1.2,0.5,1.6,1
		c0.4,0.4,0.7,0.9,0.8,1.4c0.1,0.5,0,1.1-0.4,1.5c-0.5,0.6-1.3,0.9-2.1,1.1c-0.9,0.2-1.6,0.2-2.1,0.8c-0.1,0.2-0.4,0.2-0.6,0
		c-0.2-0.1-0.2-0.4,0-0.6c0.4-0.4,0.9-0.7,1.3-0.8c0.4-0.1,0.9-0.2,1.2-0.3c0.7-0.2,1.4-0.5,1.7-0.8c0.2-0.3,0.3-0.6,0.2-0.9
		c-0.1-0.3-0.2-0.6-0.5-0.9c-0.3-0.3-0.8-0.6-1.3-0.8c-0.5-0.2-0.9-0.2-1,0c-0.1,0-0.1,0.1-0.2,0.3c-0.2,0.3-0.3,0.9-0.5,1.7
		c-0.3,1-0.7,2.2-1,3.4c-0.2,0.8-0.4,1.7-0.5,2.4c-0.1,0.7-0.3,1.2-0.4,1.6C146.4,94.6,146.4,94.6,146.3,94.8
		C146.4,94.7,146.3,94.7,146.3,94.8 M146.7,88.4c0-0.2,0.2-0.4,0.4-0.4c0.2,0,0.4,0.2,0.4,0.4c0,0.4-0.1,0.8-0.3,1.4
		c-0.2,0.6-0.3,1.3-0.5,1.9c-0.1,0.6-0.2,1.2-0.3,1.7c0,0.3-0.1,0.5-0.1,0.7c0,0.1,0,0.2,0,0.2c0,0.1,0,0,0,0c0,0,0-0.1,0,0
		c0.1,0.2,0,0.4-0.2,0.5c-0.2,0.1-0.4,0-0.5-0.2c0,0,0,0,0-0.1c-0.1-0.2,0-0.3,0-0.5c0-0.2,0-0.5,0.1-0.8c0.1-0.5,0.1-1.2,0.3-1.8
		C146.2,90.1,146.7,88.7,146.7,88.4"/>
	<path style="clip-path:url(#SVGID_00000070817475881625811530000006059982223965412225_);fill:#ED3624;" d="M98,103
		c0-0.2,0.3-0.4,0.5-0.3c0.2,0,0.4,0.3,0.3,0.5c0,0,0,0,0,0c0,0,0,0,0,0c0,0.1,0,0.2-0.1,0.4c-0.1,0.4-0.2,0.8-0.4,1.4
		c-0.3,1.1-0.7,2.5-0.9,3.6c-0.1,0.5-0.2,0.9-0.2,1.1c0,0.1,0,0.2,0,0.2c0,0,0,0,0,0c0,0-0.1-0.2-0.1-0.1c0.1,0.1-0.3-0.1-0.2-0.1
		c0.1,0-0.2,0-0.1,0c0,0,0,0,0,0c0.2-0.2,0.8-1.1,1.5-2.1c1.1-1.4,2.3-2.5,3.4-3.3c0.5-0.4,1-0.7,1.4-0.9c0.2-0.1,0.3-0.2,0.5-0.2
		c0.1,0,0.2,0,0.3,0c0.1,0,0.3,0.2,0.4,0.3c0.1,0.2-0.1,0.4-0.3,0.5c-0.2,0.1-0.4-0.1-0.5-0.3c0-0.1,0.2,0.2,0.1,0.2
		c0,0,0.2,0.1,0.1,0.1c0,0,0.1,0,0.1,0c0,0,0,0,0,0c0,0-0.2,0.1-0.3,0.1c-0.3,0.2-0.7,0.4-1.2,0.8c-1,0.8-2.3,1.9-3.3,3.2
		c-0.7,0.9-1.1,1.8-1.7,2.2c-0.1,0.1-0.2,0.1-0.4,0.1c-0.1,0-0.2-0.1-0.3-0.1c-0.1-0.1-0.1-0.1-0.1-0.2c-0.1-0.2,0-0.4,0-0.6
		c0-0.3,0.1-0.8,0.2-1.3c0.3-1.2,0.6-2.6,0.9-3.7c0.2-0.6,0.3-1.1,0.4-1.3C98,103.3,98,103.2,98,103C98,103.1,98,103.1,98,103
		C98,103,98,103,98,103 M98.8,103.3c0,0.2-0.2,0.4-0.4,0.4c-0.2,0-0.4-0.2-0.4-0.4c0-0.1,0-0.1,0-0.1c0,0,0,0,0,0
		c0-0.2,0.2-0.4,0.4-0.4c0.2,0,0.4,0.2,0.4,0.4c0,0,0,0,0,0C98.8,103.2,98.8,103.2,98.8,103.3"/>
	<path style="clip-path:url(#SVGID_00000070817475881625811530000006059982223965412225_);fill:#ED3624;" d="M100.1,107
		c0-0.2,0.2-0.4,0.4-0.4c0.2,0,0.4,0.2,0.4,0.4c0,1.3,0.6,2.8,1.6,3.9c0.2,0.2,0.1,0.4,0,0.6c-0.2,0.2-0.4,0.1-0.6,0
		C100.8,110.2,100.2,108.5,100.1,107"/>
	<path style="clip-path:url(#SVGID_00000070817475881625811530000006059982223965412225_);fill:#ED3624;" d="M111.2,103.9
		c0.1-0.2,0.4-0.3,0.6-0.1c0.2,0.1,0.3,0.4,0.1,0.6c-0.3,0.6-1.1,2.2-1.5,3.5c-0.2,0.6-0.4,1.2-0.4,1.3c0,0,0-0.1,0-0.1
		c0,0-0.1-0.2-0.1-0.1c0,0-0.2-0.1-0.1-0.1c0.1,0-0.2,0-0.2,0c0,0,0,0,0,0c0,0,0.2-0.2,0.4-0.5c0.1-0.2,0.4-0.2,0.6-0.1
		c0.2,0.1,0.2,0.4,0.1,0.6c-0.2,0.3-0.4,0.5-0.6,0.6c-0.1,0.1-0.3,0.2-0.5,0c-0.2-0.1-0.3-0.3-0.3-0.4c0-0.4,0.2-0.9,0.4-1.6
		C110.1,106.2,110.7,104.6,111.2,103.9"/>
	<path style="clip-path:url(#SVGID_00000070817475881625811530000006059982223965412225_);fill:#ED3624;" d="M108.1,103.6
		c0.2,0,0.4,0.1,0.5,0.3s-0.1,0.4-0.3,0.5c-0.3,0.1-0.5,0.1-0.7,0c-0.1,0-0.3-0.1-0.3-0.3c-0.1-0.1-0.1-0.3,0-0.4
		c0.1-0.4,0.5-0.7,1-1c0.6-0.3,1.4-0.5,2.2-0.7c1.4-0.3,2.7-0.3,3.8-0.3c0.6,0,1.1,0,1.6,0c0.3,0,0.6-0.1,0.9,0
		c0.2,0,0.4,0.1,0.5,0.3c0.1,0.2,0.1,0.4,0.1,0.6c0,0.2-0.3,0.4-0.5,0.3c-0.2,0-0.4-0.3-0.3-0.5c0-0.1,0-0.1,0-0.1c0,0,0,0,0,0
		c0,0,0.1,0.1,0.1,0.1c0,0,0,0,0,0c-0.1,0-0.4,0-0.7,0c-0.5,0-1,0-1.6,0c-1.1,0-2.3,0-3.6,0.3c-0.7,0.2-1.5,0.4-2,0.6
		c-0.4,0.2-0.6,0.4-0.6,0.5c0,0,0-0.1,0-0.1c0,0-0.1-0.2,0-0.1c0,0-0.1-0.1-0.1-0.1c0,0-0.1,0,0,0
		C107.7,103.6,107.8,103.6,108.1,103.6"/>
	<path style="clip-path:url(#SVGID_00000070817475881625811530000006059982223965412225_);fill:#ED3624;" d="M109.4,106.3
		c0.2,0.1,0.3,0.3,0.2,0.6c-0.1,0.2-0.3,0.3-0.6,0.2c0,0-0.2,0-0.4,0.1c0,0,0,0,0,0c0,0,0.1-0.1,0.1-0.1c0,0,0-0.2,0-0.1
		c0,0.1-0.1-0.3,0-0.2c0,0.1-0.2-0.2-0.1-0.2c0,0-0.1-0.1-0.1,0c0,0-0.1,0-0.1,0c0,0,0.3-0.2,0.6-0.3c1.5-0.6,3.7-0.3,6.3-0.1
		c0.2,0,0.4,0.2,0.4,0.4c0,0.2-0.2,0.4-0.4,0.4c-1.3-0.1-2.5-0.2-3.5-0.3c-1,0-1.8,0.1-2.4,0.3c-0.1,0-0.2,0.1-0.4,0.2
		c-0.1,0.1-0.3,0.2-0.6,0.2c-0.1,0-0.3-0.1-0.3-0.3c-0.1-0.2,0-0.3,0-0.4c0.1-0.2,0.2-0.3,0.4-0.3
		C108.6,106.2,109,106.1,109.4,106.3"/>
	<path style="clip-path:url(#SVGID_00000070817475881625811530000006059982223965412225_);fill:#1749B3;" d="M135.8,102.2
		c0-0.2,0.2-0.4,0.4-0.4c0.2,0,0.4,0.2,0.4,0.4c0,0.7-0.3,1.4-0.6,2.2c-0.5,1.2-1,2.9-1.4,4.4c-0.2,0.7-0.2,1.3-0.3,1.7
		c0,0.1,0,0.3,0,0.3c0,0,0,0.1,0,0.1c0,0,0,0,0,0c0,0,0-0.1,0-0.1c0,0.1-0.2-0.2-0.2-0.1c0.1,0-0.1,0-0.1,0c0,0,0,0,0.1,0
		c0.5-0.3,1.5-2.2,2.6-3.7c1.3-1.8,2.6-2.8,3.7-3c0.2,0,0.4,0.1,0.5,0.4c0,0.2-0.1,0.4-0.4,0.5c-0.3,0-0.8,0.3-1.4,0.7
		c-0.6,0.4-1.2,1.1-1.8,2c-0.5,0.7-1,1.5-1.5,2.3c-0.5,0.7-0.8,1.3-1.3,1.6c-0.1,0.1-0.3,0.1-0.4,0.2c-0.1,0-0.2,0-0.3,0
		c-0.1,0-0.2-0.1-0.3-0.3c-0.2-0.4,0-0.5,0-0.7c0-0.5,0.1-1.1,0.3-1.8c0.4-1.5,0.9-3.2,1.4-4.5C135.6,103.4,135.8,102.7,135.8,102.2
		"/>
	<path style="clip-path:url(#SVGID_00000070817475881625811530000006059982223965412225_);fill:#1749B3;" d="M137.4,107.8
		c0-0.2,0.2-0.4,0.4-0.4c0.2,0,0.4,0.2,0.4,0.4c0,0.7,0,1.5,0,2.1c0.1,0.6,0.2,1,0.5,1.2c0.2,0.1,0.2,0.4,0.1,0.6
		c-0.1,0.2-0.4,0.2-0.6,0.1c-0.6-0.4-0.8-1.1-0.9-1.8C137.4,109.3,137.4,108.5,137.4,107.8"/>
	<path style="clip-path:url(#SVGID_00000070817475881625811530000006059982223965412225_);fill:#1749B3;" d="M147.7,106.5
		c0,0.2-0.2,0.4-0.5,0.4c-0.2,0-0.4-0.2-0.4-0.5c0,0,0,0,0,0c0,0,0,0.1,0,0.1c0,0,0.1,0.1,0.1,0.1c0,0-0.1,0-0.3,0
		c-0.1,0-0.4,0.2-0.6,0.4c-0.3,0.2-0.5,0.4-0.6,0.5c-0.1,0.2-0.3,0.4-0.3,0.6c-0.1,0.1-0.1,0.3,0,0.4c0,0.1,0.1,0.2,0.1,0.2
		c0,0-0.1,0-0.1,0c0,0,0,0,0,0c0.1,0,0.2-0.1,0.3-0.1c0.3-0.1,0.6-0.3,0.8-0.5c0.2-0.2,0.5-0.3,0.7-0.5c0.2-0.1,0.5-0.1,0.7,0
		c0.2,0.1,0.3,0.2,0.4,0.4c0.3,0.6,0.1,1.2,0.1,1.5c0,0.1,0,0.1,0,0.1c0,0,0,0,0,0c0.1,0,0.3,0,0.8-0.2c0.2-0.1,0.4,0,0.5,0.2
		c0.1,0.2,0,0.4-0.2,0.5c-0.5,0.2-1,0.3-1.3,0.2c-0.2-0.1-0.4-0.2-0.4-0.3c-0.1-0.1-0.1-0.3-0.1-0.5c-0.1-0.6,0-1.1,0-1.2
		c0,0,0,0,0,0c0,0,0,0,0,0c-0.1,0.1-0.4,0.2-0.6,0.4c-0.3,0.2-0.6,0.4-0.9,0.6c-0.2,0.1-0.3,0.2-0.5,0.2c-0.2,0-0.4,0.1-0.6-0.1
		c-0.2-0.2-0.4-0.4-0.4-0.7c-0.1-0.3,0-0.6,0.1-0.8c0.1-0.3,0.3-0.5,0.5-0.8c0.3-0.3,0.5-0.5,0.8-0.6c0.2-0.2,0.5-0.4,0.9-0.6
		c0.3-0.1,0.5-0.1,0.8-0.1c0.1,0,0.3,0.1,0.4,0.3C147.7,106.2,147.7,106.3,147.7,106.5"/>
	<path style="clip-path:url(#SVGID_00000070817475881625811530000006059982223965412225_);fill:#1749B3;" d="M155.2,102.4
		c-0.1-0.2,0.1-0.4,0.3-0.5c0.2-0.1,0.4,0.1,0.5,0.3c0.1,0.2,0,0.2,0,0.2c0,0,0,0,0,0.1c0,0.2-0.1,0.5-0.3,0.9
		c-0.2,0.6-0.6,1.2-0.9,1.9c-0.4,0.8-0.7,1.6-1,2.3c-0.2,0.4-0.3,0.8-0.4,1.1c-0.1,0.3-0.1,0.6-0.1,0.8c0,0.2,0.1,0.3,0.1,0.3
		c0.1,0.1,0.3,0.1,0.7,0c1.1-0.2,2.6-1.5,3.6-2.4c0.2-0.2,0.4-0.2,0.6,0c0.2,0.2,0.2,0.4,0,0.6c-1,1-2.5,2.3-4,2.6
		c-0.5,0.1-1.1,0.1-1.4-0.2c-0.3-0.2-0.4-0.6-0.4-0.9c0-0.3,0-0.7,0.2-1.1c0.1-0.4,0.2-0.7,0.4-1.2c0.3-0.7,0.6-1.6,1-2.4
		c0.3-0.7,0.7-1.4,0.9-1.8c0.2-0.4,0.2-0.7,0.3-0.8c0,0,0,0,0,0c0,0,0,0,0,0c0,0,0,0.1,0,0C155.2,102.2,155.2,102.4,155.2,102.4
		 M155.9,102.8c-0.1,0.2-0.3,0.3-0.5,0.3c-0.2-0.1-0.3-0.3-0.3-0.5c0.1-0.2,0.1-0.3,0.1-0.4c0,0,0,0,0-0.1c0,0,0,0,0.1-0.2
		c0.2-0.1,0.4-0.1,0.6,0c0.1,0.2,0.1,0.4,0,0.6c0,0,0.1-0.1,0.1-0.1c0,0,0-0.1,0-0.1C155.9,102.5,155.9,102.6,155.9,102.8"/>
	<path style="clip-path:url(#SVGID_00000070817475881625811530000006059982223965412225_);fill:#1749B3;" d="M162.4,100.9
		c0.2,0.1,0.3,0.4,0.2,0.6c-0.1,0.2-0.4,0.3-0.6,0.2c-0.1,0,0.3,0,0.2,0c0,0,0.1,0,0.1,0c0,0,0.1-0.1,0.1,0c0,0,0,0,0,0
		c0,0,0,0,0,0.1c-0.1,0.1-0.2,0.3-0.3,0.5c-0.2,0.5-0.5,1.1-0.8,1.7c-0.3,0.7-0.7,1.4-1,2.1c-0.5,1-0.9,1.8-1.1,2.4
		c-0.1,0.2-0.1,0.5-0.1,0.6c0,0.1,0,0.2,0,0.2c0,0-0.1,0-0.1,0c0,0,0.4-0.3,0.7-0.7c0.4-0.4,0.8-0.8,1.2-1.3
		c0.4-0.4,0.7-0.9,1.1-1.4c0.9-1.1,1.8-1.4,2.1-1.6c0.2-0.1,0.4-0.1,0.6,0.1c0.1,0.2,0.1,0.4-0.1,0.6c-0.2,0.2-0.5,0.2-0.8,0.4
		c-0.3,0.2-0.7,0.5-1.1,1c-0.3,0.4-0.7,0.9-1.1,1.4c-0.4,0.5-0.8,1-1.2,1.4c-0.3,0.3-0.6,0.9-1.2,1c-0.3,0-0.6-0.1-0.7-0.3
		c-0.1-0.2-0.2-0.4-0.2-0.6c0-0.3,0-0.6,0.1-0.9c0.2-0.7,0.6-1.5,1.1-2.6c0.3-0.7,0.7-1.4,1-2.1c0.3-0.7,0.6-1.3,0.8-1.8
		c0.1-0.2,0.2-0.4,0.3-0.6c0-0.1,0.1-0.1,0.1-0.2c0,0,0.1-0.1,0.1-0.1C162.1,100.9,162.3,100.8,162.4,100.9"/>
	<path style="clip-path:url(#SVGID_00000070817475881625811530000006059982223965412225_);fill:#1749B3;" d="M162.1,107.5
		c0-0.2,0.2-0.4,0.4-0.4c0.2,0,0.4,0.2,0.4,0.4c0,0.8,0.3,1.7,1.1,2.6c0.2,0.2,0.2,0.4,0,0.6c-0.2,0.2-0.4,0.2-0.6,0
		C162.5,109.7,162,108.5,162.1,107.5"/>
	<path style="clip-path:url(#SVGID_00000070817475881625811530000006059982223965412225_);fill:#1749B3;" d="M168.7,109
		c0.2,0,0.4,0.1,0.5,0.3c0,0.2-0.1,0.4-0.3,0.5c0,0,0.1-0.1,0.1-0.1c0,0,0,0,0,0c0,0.1-0.2-0.2-0.1-0.2c0.1,0-0.2-0.1-0.1-0.1
		c0,0-0.1,0-0.1,0c0,0-0.1,0-0.1,0c0,0-0.1,0.1-0.1,0.1c0,0-0.1,0.3-0.1,0.2c0-0.1,0.1,0.3,0,0.2c0-0.1,0.1,0.1,0.1,0.1
		c0,0,0.1,0,0.1,0c0,0,0,0-0.1,0c-0.2,0-0.4-0.2-0.4-0.4s0.2-0.4,0.4-0.4c0.2,0,0.3,0,0.4,0.1c0.1,0,0.2,0.1,0.2,0.2
		c0.1,0.1,0,0.4-0.1,0.5c-0.2,0.2-0.3,0.2-0.4,0.2c-0.1,0-0.4-0.1-0.4-0.3c0-0.2-0.1-0.3,0-0.5C168.2,109.2,168.4,109,168.7,109"/>
	<path style="clip-path:url(#SVGID_00000070817475881625811530000006059982223965412225_);fill:#1749B3;" d="M181.5,102.2
		c-0.1,0.2-0.3,0.3-0.5,0.2c-0.2-0.1-0.3-0.3-0.2-0.5c0.2-0.5,0.4-1.1,0.4-1.4c0,0,0,0,0,0c0,0,0.1,0.1,0,0.1c0,0,0.1,0.1,0.1,0.1
		c0,0,0.2,0,0.1,0c0,0,0.1,0,0.1,0c0,0,0,0-0.1,0.1c-0.4,0.4-1,1.6-1.6,3c-0.4,0.9-0.8,1.9-1.2,2.9c-0.3,0.7-0.5,1.5-0.6,2.2
		c-0.2,0.8-0.3,1.6-0.3,2.3c-0.1,0.6-0.1,1-0.1,1.4c0,0.2,0,0.3-0.1,0.4c0,0-0.1,0.1-0.1,0.2c-0.1,0.1-0.2,0.1-0.3,0.1
		c-0.2,0-0.3-0.1-0.3-0.2c-0.2-0.3-0.4-0.8-0.5-1.4c-0.4-1.1-0.9-2.2-1-3.1c0-0.3,0-0.5,0.1-0.8c0.1-0.2,0.4-0.4,0.7-0.4
		c0.5-0.1,1.2-0.1,2.2,0c0.2,0,0.4,0.2,0.4,0.4c0,0.2-0.2,0.4-0.4,0.4c-0.9-0.1-1.6-0.1-1.9,0c-0.1,0-0.2,0.1-0.2,0.1
		c0,0,0,0.1,0,0.2c0.1,0.7,0.6,1.9,1,3c0.2,0.5,0.4,1,0.4,1.1c0,0-0.1-0.1-0.1-0.1c0,0-0.1-0.1-0.1,0c0,0-0.2,0-0.1,0
		c0,0-0.2,0-0.1,0c0,0-0.2,0.1-0.1,0.1c0.1,0-0.1,0.1-0.1,0.1c0,0,0,0,0,0c0,0,0,0,0-0.1c0-0.3,0-0.8,0.1-1.4
		c0.1-0.7,0.2-1.5,0.4-2.4c0.2-0.8,0.4-1.5,0.7-2.3c0.4-1,0.8-2.1,1.2-3c0.6-1.4,1.2-2.6,1.8-3.3c0.2-0.2,0.3-0.3,0.6-0.3
		c0.2,0,0.3,0.1,0.4,0.3c0.1,0.1,0.1,0.3,0.1,0.4C181.9,101.1,181.7,101.7,181.5,102.2"/>
	<path style="clip-path:url(#SVGID_00000070817475881625811530000006059982223965412225_);fill:#1749B3;" d="M185.2,106.5
		c0,0.2-0.2,0.4-0.4,0.4c-0.2,0-0.4-0.2-0.4-0.4c0-0.2,0-0.5,0-0.6c0-0.2,0-0.2,0-0.2c0,0,0.1,0,0.1,0c0,0,0,0-0.1,0
		c-0.1,0-0.3,0.1-0.4,0.2c-0.4,0.2-0.8,0.5-1.2,0.8c-0.5,0.4-0.8,0.9-0.9,1.3c-0.1,0.2-0.1,0.4,0,0.4c0,0.1-0.1-0.1-0.1-0.1
		c0,0,0,0,0,0c0.1,0,0.2,0,0.3,0c0.4-0.1,1-0.3,1.5-0.5c0.4-0.1,0.7-0.3,1-0.3c0.2,0,0.3,0.1,0.4,0.1c0.1,0.1,0.2,0.2,0.2,0.3
		c0.1,0.2,0.1,0.4,0.2,0.6c0,0.2,0.1,0.4,0.1,0.5c0,0.1,0.1,0.2,0.1,0.2c0.2,0.1,0.3,0.4,0.2,0.6c-0.1,0.2-0.4,0.3-0.6,0.2
		c-0.3-0.1-0.4-0.4-0.5-0.6c-0.1-0.2-0.1-0.4-0.1-0.6c0-0.2-0.1-0.3-0.1-0.4c0,0,0,0,0,0c0,0,0.1,0,0.1,0c-0.1,0-0.4,0.1-0.7,0.2
		c-0.5,0.2-1.1,0.5-1.7,0.6c-0.2,0-0.4,0-0.6,0c-0.1,0-0.2,0-0.3-0.1c-0.1-0.1-0.2-0.2-0.3-0.3c-0.1-0.3-0.1-0.6,0.1-0.9
		c0.2-0.5,0.6-1.1,1.2-1.7c0.4-0.4,0.9-0.7,1.4-0.9c0.2-0.1,0.4-0.2,0.7-0.2c0.2,0,0.5,0,0.7,0.2c0.2,0.3,0.3,0.6,0.3,0.8
		C185.2,106.2,185.2,106.4,185.2,106.5"/>
	<path style="clip-path:url(#SVGID_00000070817475881625811530000006059982223965412225_);fill:#1749B3;" d="M189.5,110.1
		c-0.2,0.2-0.4,0.2-0.6,0c-0.2-0.2-0.2-0.4,0-0.6c0,0,0,0.1,0,0c0,0,0,0,0,0c0.1-0.2,0.3-0.6,0.6-1.1c0.7-1.2,1.8-2.1,3-2.9
		c0.7-0.5,1.5-0.9,2.1-1.2c0.3-0.2,0.5-0.3,0.6-0.4c0,0,0,0,0,0c0,0,0,0.1,0,0c0,0,0,0.2,0,0.2c0-0.1,0.1,0.1,0.1,0.1
		c-0.2-0.1-0.2-0.4-0.1-0.6c0.1-0.2,0.4-0.2,0.6-0.1c0.1,0.1,0.2,0.4,0.2,0.6c0,0.2-0.1,0.3-0.2,0.4c-0.2,0.2-0.4,0.3-0.7,0.5
		c-0.6,0.4-1.4,0.8-2.1,1.2c-1.2,0.8-2.2,1.6-2.8,2.6c-0.2,0.4-0.4,0.8-0.6,1.1C189.6,110,189.6,110,189.5,110.1
		C189.6,110.1,189.6,110.1,189.5,110.1 M193.6,100.7c0,0.2-0.2,0.4-0.4,0.4c-0.2,0-0.4-0.2-0.4-0.4c0,0,0-0.1,0-0.1c0,0,0,0,0,0
		c0,0,0.1,0.2,0,0.1c0,0,0.1,0.1,0.1,0.1c0,0,0.2,0.1,0.1,0.1c-0.1,0,0.3,0,0.2,0c-0.1,0,0.1-0.1,0.1-0.1c0,0,0.1-0.1,0.1-0.1
		c0,0,0,0,0,0c0,0-0.1,0.2-0.2,0.5c-0.5,1.1-1.3,2.6-1.8,4c-0.3,0.8-0.5,1.6-0.6,2.3c0,0.1,0,0.3-0.1,0.5c-0.1,0.3-0.4,0.5-0.6,0.6
		c-0.2,0.1-0.4,0.1-0.5,0.1c0,0-0.1,0-0.1,0c0,0,0.1,0,0.1,0c0,0,0.1-0.1,0.1-0.1c0,0,0,0,0,0c0,0,0,0,0,0.1c0,0.1,0,0.2-0.1,0.4
		c0,0.3-0.1,0.6-0.1,0.8c0,0.1,0,0.1,0,0.2c0,0,0-0.1,0,0c0,0.2-0.2,0.4-0.4,0.4c-0.2,0-0.4-0.2-0.4-0.4c0,0,0,0,0-0.1
		c0-0.1,0-0.1,0-0.2c0-0.3,0.1-0.6,0.1-0.9c0-0.1,0-0.3,0.1-0.4c0-0.1,0-0.2,0.1-0.3c0-0.1,0.1-0.2,0.3-0.3c0.2-0.1,0.4-0.1,0.4,0
		c0,0,0.1,0,0.1,0c0,0-0.1,0-0.1,0c0.1-0.1,0.2-0.1,0.2-0.2c0,0,0-0.1,0.1-0.3c0.1-0.6,0.2-1.5,0.6-2.4c0.6-1.4,1.4-2.9,1.8-4
		c0.1-0.2,0.2-0.5,0.3-0.6c0,0,0.1-0.1,0.1-0.2c0.1,0,0.2-0.1,0.3-0.1c0.2,0,0.3,0.1,0.3,0.2C193.7,100.5,193.6,100.6,193.6,100.7"
		/>
	<path style="clip-path:url(#SVGID_00000070817475881625811530000006059982223965412225_);fill:#1749B3;" d="M192.3,106.9
		c0-0.2,0.2-0.4,0.4-0.4s0.4,0.2,0.4,0.4c0.1,0.8-0.4,1.9-0.5,2.8c-0.1,0.4,0,0.7,0.1,0.8c0,0,0,0,0.1,0.1c0.1,0,0.3,0,0.6-0.1
		c0.2-0.1,0.4,0,0.5,0.2c0.1,0.2,0,0.4-0.2,0.5c-0.3,0.1-0.6,0.2-0.9,0.2c-0.3,0-0.5-0.1-0.7-0.3c-0.3-0.4-0.3-0.9-0.2-1.4
		C191.9,108.5,192.3,107.4,192.3,106.9"/>
	<path style="clip-path:url(#SVGID_00000070817475881625811530000006059982223965412225_);fill:#1749B3;" d="M188.6,110.3
		c-0.2,0-0.4-0.1-0.4-0.4c0-0.2,0.1-0.4,0.4-0.4c0.1,0-0.2,0.1-0.1,0c0.1,0-0.1,0.1-0.1,0.1c0,0-0.1,0.1,0,0c0,0,0,0,0,0
		c0,0,0-0.1,0.1-0.1c0.1-0.1,0.2-0.3,0.3-0.5c0.3-0.5,0.6-1.2,0.9-1.9c0.2-0.5,0.4-1.1,0.7-1.7c0.3-0.8,0.7-1.7,1-2.3
		c0.1-0.3,0.2-0.5,0.3-0.6c0,0,0,0,0,0c0,0,0,0,0,0c0,0,0,0.2,0,0.1c0,0,0.1,0.2,0.1,0.2c0-0.1,0.3,0.2,0.2,0.2c-0.1,0,0.2,0,0.2,0
		c-0.1,0,0.2-0.1,0.2,0c0,0,0.1-0.1,0.1,0c0,0,0.1,0,0,0c0,0,0,0,0,0c-0.1,0.2-0.3,0.6-0.6,1c-0.4,0.7-0.8,1.5-1.2,2.3
		c-0.4,0.9-0.7,1.7-0.9,2.2c-0.1,0.3-0.1,0.5-0.2,0.7c0,0.1,0,0.1,0,0.2c0,0,0,0,0,0c0.1,0.2,0,0.4-0.2,0.5c-0.2,0.1-0.4,0-0.5-0.2
		c-0.2-0.4,0-0.8,0.2-1.4c0.2-0.6,0.5-1.4,1-2.3c0.4-0.8,0.8-1.7,1.2-2.4c0.2-0.5,0.5-0.9,0.7-1.1c0,0,0-0.1,0.1-0.1
		c0,0,0.1-0.1,0.3-0.1c0.2,0,0.3,0.3,0.3,0.3c0,0.2,0,0.2,0,0.3c-0.1,0.2-0.2,0.4-0.3,0.7c-0.3,0.6-0.7,1.4-1,2.2
		c-0.2,0.6-0.5,1.2-0.7,1.8c-0.3,0.8-0.7,1.5-0.9,2c-0.1,0.2-0.2,0.4-0.3,0.6c0,0.1-0.1,0.1-0.1,0.2c0,0,0,0,0,0c0,0,0,0,0,0
		C188.8,110.2,188.8,110.3,188.6,110.3 M191.6,101.3c0-0.2,0.3-0.4,0.5-0.3c0.2,0,0.4,0.3,0.3,0.5c0,0.1,0,0.1,0,0.1
		c0,0.1,0,0.1-0.1,0.2c-0.1,0.2-0.2,0.5-0.3,0.8c-0.3,0.7-0.6,1.6-1,2.5c-0.4,0.9-0.7,1.8-1.1,2.6c-0.5,1.2-0.9,2.1-0.9,2.3
		c0,0,0-0.1,0-0.1c0,0,0-0.1,0-0.1c0,0-0.1-0.2,0-0.2c0.1,0.2,0,0.4-0.2,0.6c-0.2,0.1-0.4,0-0.6-0.2c-0.1-0.2,0-0.3,0-0.3
		c0-0.2,0.1-0.4,0.3-0.8c0.2-0.4,0.4-1,0.6-1.6c0.3-0.8,0.7-1.7,1.1-2.6c0.4-0.9,0.7-1.8,1-2.5c0.1-0.3,0.2-0.6,0.3-0.8
		C191.5,101.5,191.5,101.4,191.6,101.3C191.6,101.3,191.6,101.3,191.6,101.3C191.6,101.3,191.6,101.4,191.6,101.3"/>
	<path style="clip-path:url(#SVGID_00000070817475881625811530000006059982223965412225_);fill:#1749B3;" d="M196.5,110
		c0.1,0.2,0.1,0.4-0.1,0.6c-0.2,0.1-0.4,0.1-0.6-0.1c-0.1-0.1-0.1-0.1-0.1-0.2c0-0.1,0-0.1,0-0.2c0-0.3,0-0.7,0.1-1.1
		c0-0.4,0-0.8,0-1c0,0,0,0-0.2-0.2c-0.1-0.1-0.2-0.3-0.2-0.5c0-0.2,0-0.5,0.2-0.6c0.3-0.4,0.7-0.3,1-0.4c1-0.3,2-0.1,2.8,0.1
		c0.2,0.1,0.3,0.3,0.3,0.5c-0.1,0.2-0.3,0.3-0.5,0.3c-0.7-0.2-1.5-0.3-2.4-0.1c-0.3,0.1-0.6,0.2-0.6,0.2c0,0,0,0,0,0
		c0,0,0,0.1,0.1,0.1c0,0.1,0.2,0.2,0.3,0.5c0.1,0.4,0.1,0.8,0.1,1.2c0,0.4,0,0.8-0.1,1.1c0,0,0,0,0,0c0,0,0-0.1,0,0
		C196.5,110.1,196.4,109.9,196.5,110 M200.1,101.4c-0.1,0.2-0.4,0.2-0.6,0.1c-0.2-0.1-0.2-0.4-0.1-0.6c0.1-0.1,0.1-0.2,0.3-0.3
		c0.1,0,0.2-0.1,0.4,0c0.2,0.1,0.2,0.2,0.2,0.3c0,0.1,0,0.2,0,0.2c0,0.2-0.2,0.5-0.3,0.9c-0.4,0.9-1.1,2.2-1.8,3.5
		c-0.5,1-1,2-1.3,2.9c-0.2,0.5-0.3,1-0.3,1.4c0,0.2-0.1,0.4-0.1,0.5c0,0,0,0.1-0.1,0.2c-0.2,0.1-0.4,0.1-0.6,0
		c-0.1-0.2-0.1-0.4,0-0.6c0,0-0.1,0.1-0.1,0.1c0,0,0,0.1,0,0.1c0,0,0,0,0,0c0,0,0-0.2,0.1-0.4c0.1-0.4,0.2-0.9,0.4-1.5
		c0.3-0.9,0.8-2,1.4-3c0.7-1.3,1.4-2.5,1.8-3.4c0.2-0.4,0.3-0.7,0.3-0.8c0,0,0,0,0,0c0,0,0,0.1,0,0.1c0,0,0.1,0.2,0,0.1
		c0,0,0.2,0.2,0.1,0.1c0,0,0.2,0.1,0.1,0.1C199.8,101.4,200.1,101.4,200.1,101.4C200,101.4,200.2,101.4,200.1,101.4
		c0,0,0.1-0.1,0.1-0.1C200.2,101.3,200.2,101.4,200.1,101.4"/>
	<path style="clip-path:url(#SVGID_00000070817475881625811530000006059982223965412225_);fill:#1749B3;" d="M203.3,105.7
		c0.2,0.1,0.3,0.3,0.3,0.5c-0.1,0.2-0.3,0.3-0.5,0.3c-0.3-0.1-0.5,0-0.8,0.2c-0.3,0.2-0.5,0.5-0.7,0.9c-0.2,0.5-0.4,0.9-0.4,1.2
		c0,0.1,0,0.1,0,0.1c0,0,0,0,0,0c0.2,0,0.8-0.1,1.3-0.4c0.6-0.3,1.2-0.8,1.6-1.2c0.3-0.3,0.5-0.5,0.5-0.6c0,0,0,0-0.1-0.1
		c-0.1-0.1-0.2-0.2-0.4-0.2c-0.5-0.1-1.1-0.1-1.7,0c-0.3,0-0.5,0.1-0.6,0.2c-0.1,0-0.1,0-0.1,0c0,0,0.1-0.1,0-0.1c0,0,0-0.2,0-0.2
		c0,0.2-0.1,0.4-0.3,0.5c-0.2,0-0.4-0.1-0.5-0.3c0-0.2,0.1-0.4,0.2-0.5c0.1-0.1,0.2-0.2,0.3-0.2c0.2-0.1,0.5-0.2,0.8-0.2
		c0.7-0.1,1.4-0.1,2.1,0.1c0.3,0.1,0.5,0.2,0.7,0.4c0.2,0.2,0.4,0.5,0.3,0.8c-0.1,0.4-0.4,0.7-0.7,1c-0.5,0.5-1.1,0.9-1.8,1.3
		c-0.6,0.4-1.3,0.6-1.9,0.5c-0.2,0-0.4-0.2-0.6-0.3c-0.1-0.2-0.2-0.4-0.2-0.6c0-0.5,0.3-1,0.5-1.5c0.2-0.4,0.5-0.9,0.9-1.2
		C202.2,105.7,202.8,105.5,203.3,105.7"/>
	<path style="clip-path:url(#SVGID_00000070817475881625811530000006059982223965412225_);fill:#1749B3;" d="M207,107.1
		c0-0.2,0.1-0.4,0.3-0.5c0.2,0,0.4,0.1,0.5,0.3c0.1,0.5-0.1,1-0.3,1.5c-0.1,0.2-0.1,0.4-0.2,0.6c0,0.2,0,0.3,0,0.4c0,0,0,0.1,0,0.1
		c0,0-0.1-0.1,0,0c0,0-0.2-0.1-0.1-0.1c0.1,0-0.2,0-0.2,0c0,0-0.1,0-0.1,0c0,0,0,0,0,0c0,0,0,0,0.1-0.1c0.1-0.1,0.2-0.3,0.3-0.4
		c0.3-0.5,0.5-1.4,0.6-2.1c0-0.2,0-0.5,0-0.7c0-0.2,0-0.5,0-0.7c0-0.1,0-0.3,0.2-0.5c0.2-0.2,0.4-0.2,0.6-0.3c0.5-0.1,1.3,0,2.2,0.1
		c1,0.1,2.2,0.1,3.5,0.2c0.2,0,0.4,0.2,0.4,0.4c0,0.2-0.2,0.4-0.4,0.4c-1.3,0-2.5-0.1-3.5-0.2c-0.9-0.1-1.7-0.1-2.1-0.1
		c-0.1,0-0.1,0-0.1,0c0,0,0.1-0.1,0,0c0,0,0-0.1,0-0.1c0,0,0,0,0,0.1c0,0.2,0,0.4,0,0.6c0,0.3,0,0.5,0,0.8c0,0.8-0.3,1.8-0.7,2.5
		c-0.1,0.1-0.2,0.3-0.3,0.5c-0.1,0.1-0.1,0.1-0.2,0.2c0,0-0.1,0.1-0.1,0.1c-0.1,0-0.2,0.1-0.3,0c-0.2-0.1-0.3-0.2-0.4-0.3
		c-0.1-0.1-0.1-0.2-0.1-0.3c0-0.2,0-0.5,0-0.7c0-0.2,0.1-0.5,0.2-0.7C206.9,107.7,207.1,107.3,207,107.1"/>
	<path style="clip-path:url(#SVGID_00000070817475881625811530000006059982223965412225_);fill:#1749B3;" d="M69.4,26.1
		c-0.2-0.1-0.3-0.4-0.2-0.6c0.1-0.2,0.4-0.3,0.6-0.2c0,0,0.2,0,0.5-0.1c0.3-0.1,0.8-0.4,1.4-0.9c0.7-0.5,1.6-1.3,2.6-2.2
		c1-0.9,2.1-1.8,3.2-2.6c0.8-0.6,1.6-1.1,2.3-1.4c0.4-0.2,0.7-0.3,1.1-0.3c0.2,0,0.4,0.2,0.5,0.3c0.1,0.2,0.2,0.4,0.2,0.6
		c0,0.8-0.6,1.5-1.1,2.2c-0.5,0.7-1,1.4-1.4,1.9c-0.2,0.2-0.3,0.4-0.3,0.6c0,0.1,0,0.1,0,0.1c0,0,0-0.1,0-0.1c0.2,0.2,0.2,0.4,0,0.6
		s-0.4,0.2-0.6,0c-0.1-0.1-0.2-0.3-0.2-0.4c0-0.2,0-0.3,0-0.4c0.1-0.3,0.2-0.5,0.4-0.8c0.4-0.6,0.9-1.2,1.4-1.9
		c0.5-0.7,1-1.5,0.9-1.7c0-0.1,0-0.1,0-0.1c0,0,0,0,0,0c0,0-0.3,0-0.6,0.2c-0.6,0.3-1.4,0.7-2.2,1.3c-1,0.8-2.1,1.7-3.1,2.6
		c-1,0.8-1.8,1.6-2.6,2.2c-0.6,0.5-1.1,0.8-1.5,1C70.1,26.2,69.7,26.3,69.4,26.1"/>
	<path style="clip-path:url(#SVGID_00000070817475881625811530000006059982223965412225_);fill:#1749B3;" d="M83.7,24.2
		c0.2,0.1,0.2,0.4,0.1,0.6c-0.1,0.2-0.4,0.2-0.6,0.1c0,0,0.1,0.1,0.1,0c0,0,0.1,0,0.1,0c0,0,0,0,0,0c0,0,0,0,0,0c0,0-0.1,0-0.1,0
		c-0.1,0-0.3,0-0.4,0.1c-0.1,0-0.1,0-0.1,0c0,0,0,0,0,0c0,0,0.1-0.1,0,0c0,0,0.1-0.1,0.1-0.1c0,0.1,0-0.3,0-0.2
		c0,0.1-0.1-0.2-0.1-0.2c0,0-0.1-0.1-0.1-0.1c0,0,0,0,0,0c0.2,0.1,0.3,0.3,0.2,0.5c-0.1,0.2-0.3,0.3-0.5,0.2c-0.1,0-0.2-0.1-0.3-0.2
		c-0.1-0.2-0.1-0.5,0-0.6c0.2-0.2,0.4-0.2,0.5-0.2c0.2,0,0.3-0.1,0.5-0.1c0.1,0,0.1,0,0.2,0c0,0,0,0,0.1,0
		C83.5,24.2,83.5,24.1,83.7,24.2 M83.1,24.1c0.2,0,0.4,0.2,0.3,0.5c0,0.2-0.2,0.4-0.5,0.3c-0.1,0-0.1,0-0.2,0c0,0,0-0.1,0,0
		c0,0,0-0.2,0-0.2c0,0-0.1-0.1-0.1-0.1c0,0,0,0,0,0c0,0-0.1,0-0.1,0c0,0,0.1,0,0.2-0.1c0.1-0.1,0.2-0.2,0.3-0.3
		c0.2-0.2,0.4-0.1,0.6,0c0.2,0.2,0.1,0.4,0,0.6c-0.1,0.1-0.2,0.2-0.4,0.3c-0.2,0.1-0.4,0.3-0.7,0.2c-0.1,0-0.3-0.1-0.4-0.2
		c-0.1-0.1-0.2-0.4-0.1-0.6c0.1-0.2,0.2-0.3,0.4-0.4C82.7,24.1,82.9,24.1,83.1,24.1"/>
	<path style="clip-path:url(#SVGID_00000070817475881625811530000006059982223965412225_);fill:#1749B3;" d="M92.9,19.5
		c0.2,0.1,0.3,0.3,0.3,0.5c-0.1,0.2-0.3,0.3-0.5,0.3c0,0,0,0,0,0c0,0-0.1,0-0.2,0.1c-0.2,0.1-0.4,0.2-0.6,0.4
		c-0.5,0.4-1,0.8-1.4,1.3c-0.4,0.5-0.6,1-0.6,1.2c0,0.1,0,0.1,0.1,0.2c0.1,0.1,0.2,0.2,0.4,0.2c0.4,0.1,1,0.1,1.6-0.1
		c1.2-0.3,2.5-1.5,3.3-2.6c0.2-0.3,0.4-0.6,0.5-0.9c0.1-0.2,0.1-0.4,0.1-0.5c0,0,0,0,0,0c-0.1,0-0.2-0.1-0.4-0.1
		c-0.7,0-1.7,0.2-2.6,0.5c-0.9,0.4-1.6,0.9-1.7,1.3c-0.1,0.2-0.3,0.3-0.5,0.3c-0.2-0.1-0.3-0.3-0.3-0.5c0.3-0.9,1.2-1.4,2.2-1.8
		c1-0.4,2.1-0.6,3-0.6c0.3,0,0.5,0,0.7,0.1c0.2,0.1,0.4,0.3,0.5,0.5c0.1,0.3,0,0.7-0.1,1c-0.1,0.3-0.4,0.7-0.6,1.1
		c-0.9,1.2-2.3,2.5-3.7,2.9c-0.7,0.2-1.4,0.2-2,0.1c-0.3-0.1-0.5-0.2-0.8-0.4c-0.2-0.2-0.4-0.4-0.4-0.7c-0.1-0.6,0.2-1.3,0.7-1.9
		c0.4-0.5,1-1.1,1.6-1.5c0.3-0.2,0.5-0.4,0.8-0.5C92.4,19.5,92.6,19.4,92.9,19.5"/>
	<path style="clip-path:url(#SVGID_00000070817475881625811530000006059982223965412225_);fill:#1749B3;" d="M180.3,16.3
		c0-0.2,0.2-0.4,0.4-0.4c0.2,0,0.4,0.2,0.4,0.4c0.1,0.7-0.3,1.5-0.6,2.6c-0.4,1.4-0.9,3.1-1.4,4.6c-0.2,0.6-0.4,1.1-0.5,1.6
		c-0.1,0.2-0.1,0.4-0.1,0.5c0,0.1,0,0.1,0,0.1c0,0,0,0,0,0c0,0-0.1-0.2,0-0.1c0,0-0.1-0.1-0.1-0.1c0,0-0.2-0.1-0.1-0.1
		c0.1,0-0.2,0-0.2,0c0,0-0.1,0-0.1,0c0,0,0,0,0,0c0,0,0.2-0.2,0.3-0.4c0.3-0.4,0.7-1.1,1.4-2.1c0.1-0.2,0.4-0.3,0.6-0.1
		c0.2,0.1,0.3,0.4,0.1,0.6c-0.6,1-1.1,1.7-1.4,2.2c-0.1,0.2-0.3,0.4-0.4,0.5c-0.1,0.1-0.1,0.1-0.2,0.2c-0.1,0.1-0.4,0-0.5-0.2
		c-0.2-0.3-0.1-0.4,0-0.5c0-0.2,0.1-0.3,0.1-0.5c0.1-0.4,0.3-1,0.5-1.6c0.5-1.5,0.9-3.3,1.4-4.6C180.1,17.4,180.4,16.7,180.3,16.3"
		/>
	<path style="clip-path:url(#SVGID_00000070817475881625811530000006059982223965412225_);fill:#1749B3;" d="M184.4,16.8
		c-0.2,0.1-0.4,0.1-0.6,0c-0.1-0.2-0.1-0.4,0-0.6c0.1-0.1,0.2-0.2,0.3-0.2c0.1-0.1,0.4-0.1,0.6,0.1c0.2,0.2,0.2,0.3,0.2,0.4
		c0,0.1,0,0.2-0.1,0.3c-0.1,0.4-0.4,1-0.7,1.7c-0.4,0.8-0.8,1.7-1.1,2.6c-0.3,0.8-0.5,1.4-0.7,2c-0.1,0.4-0.2,0.8-0.2,1.1
		c0,0.2-0.1,0.4-0.2,0.5c0,0.1-0.1,0.2-0.2,0.3c-0.1,0-0.2,0.1-0.3,0.1c-0.1,0-0.2-0.1-0.2-0.1c-0.2-0.2-0.2-0.4-0.2-0.5
		c0-0.2-0.1-0.3-0.1-0.5c-0.2-0.6-1-1.2-1.2-2c0-0.2,0-0.4,0.1-0.6c0.1-0.1,0.3-0.2,0.4-0.3c0.3-0.1,0.6-0.2,1-0.2
		c0.8-0.1,1.9-0.1,3-0.1c0.2,0,0.4,0.2,0.4,0.4c0,0.2-0.2,0.4-0.4,0.4c-1.1,0-2.1,0-2.9,0.1c-0.4,0-0.7,0.1-0.8,0.2
		c-0.1,0-0.1,0-0.1,0c0,0,0-0.2,0-0.1c0.1,0.2,0.8,1,1.1,1.9c0.1,0.2,0.1,0.4,0.1,0.5c0,0.1,0,0.1,0,0.2c0,0,0,0,0,0
		c0,0-0.1-0.1,0,0c0,0-0.1-0.1-0.1-0.1c0,0-0.2-0.1-0.1,0c0,0-0.2,0-0.1,0c0,0-0.1,0.1-0.1,0c0.1,0-0.1,0.1-0.1,0.1c0,0,0,0,0,0
		c0,0,0.1-0.2,0.1-0.3c0.1-0.3,0.1-0.7,0.3-1.2c0.2-0.6,0.4-1.3,0.7-2.1c0.4-0.9,0.8-1.8,1.1-2.6c0.3-0.7,0.6-1.3,0.7-1.6
		c0-0.1,0-0.1,0-0.1c0,0,0,0.1,0,0c0,0,0,0.1,0,0.1c0,0,0.1,0.1,0.1,0.1c0,0,0.2,0.1,0.1,0.1C184.2,16.7,184.4,16.7,184.4,16.8
		c0-0.1,0.1-0.1,0.1-0.1C184.5,16.7,184.4,16.7,184.4,16.8"/>
	<path style="clip-path:url(#SVGID_00000070817475881625811530000006059982223965412225_);fill:#1749B3;" d="M189,21.7
		c-0.1-0.2,0-0.4,0.1-0.6c0.2-0.1,0.4,0,0.6,0.1c0,0.1,0,0.1,0,0.1c0,0.1,0,0.1,0,0.1c0,0.3-0.2,0.6-0.2,0.9
		c-0.1,0.3-0.1,0.6-0.1,0.7c0,0,0-0.1,0-0.1c0,0,0.1,0,0.2,0c0.5-0.1,1.4-0.9,2.2-1.6c0.4-0.4,0.8-0.8,1.2-1
		c0.2-0.1,0.4-0.3,0.7-0.3c0.2,0,0.5,0,0.7,0.2c0.2,0.2,0.2,0.4,0.2,0.5c0,0.2,0,0.3,0,0.4c-0.1,0.3-0.1,0.6-0.2,0.8
		c0,0.1,0,0.2-0.1,0.2c0,0,0,0,0,0c0,0-0.1-0.1-0.1-0.1c0,0-0.1,0-0.1,0c0.2,0,0.9-0.8,1.7-1.3c0.2-0.2,0.5-0.3,0.7-0.3
		c0.3,0,0.6,0.1,0.7,0.3c0.1,0.2,0.2,0.4,0.3,0.7c0.1,0.5,0.1,1,0.1,1.6c0,0.2-0.2,0.4-0.4,0.4c-0.2,0-0.4-0.2-0.4-0.4
		c0-0.5,0-1-0.1-1.4c0-0.2-0.1-0.3-0.1-0.3c0,0,0.1,0,0.1,0c-0.1,0-0.2,0.1-0.4,0.2c-0.3,0.2-0.6,0.5-0.9,0.8
		c-0.3,0.3-0.6,0.6-1.1,0.6c-0.2,0-0.4,0-0.6-0.1c-0.2-0.1-0.3-0.3-0.3-0.5c0-0.2,0.1-0.3,0.1-0.5c0.1-0.2,0.1-0.5,0.2-0.8
		c0-0.1,0-0.2,0-0.3c0,0,0,0,0,0c0,0,0.1,0.1,0,0.1c0,0,0.1,0,0.1,0c0,0,0,0,0,0c-0.1,0-0.2,0.1-0.3,0.1c-0.3,0.2-0.6,0.6-1.1,1
		c-0.8,0.7-1.6,1.6-2.6,1.8c-0.2,0-0.5,0-0.7-0.1c-0.2-0.1-0.4-0.3-0.5-0.6c0-0.4,0.1-0.7,0.1-1c0.1-0.3,0.2-0.6,0.2-0.8
		c0,0,0,0,0,0c0,0,0,0.1,0,0.1C188.9,21.6,189,21.8,189,21.7 M189.8,20.4c0,0.2-0.2,0.4-0.5,0.3c-0.2,0-0.4-0.2-0.3-0.5
		c0-0.1,0-0.1,0-0.1c0,0,0,0,0,0c0,0-0.1,0-0.3,0c-0.4,0.1-1,0.5-1.5,0.9c-0.4,0.4-0.6,0.9-0.7,1.3c0,0.2-0.1,0.4,0,0.5c0,0,0,0,0,0
		c0.1,0,0.2,0,0.3,0.1c0.3,0,1.1-0.5,1.6-1c0.2-0.2,0.3-0.4,0.5-0.5c0.1-0.1,0.1-0.1,0.2-0.2c0,0-0.1-0.1,0.3-0.2
		c0.2-0.1,0.4,0.1,0.5,0.3c0.1,0.2-0.1,0.4-0.3,0.5c0,0,0.1-0.1,0.1,0c0,0,0.1-0.1,0.1,0c0,0,0,0,0,0c0,0-0.1,0.1-0.2,0.2
		c-0.1,0.1-0.3,0.3-0.5,0.6c-0.6,0.5-1.3,1.2-2.2,1.2c-0.2,0-0.4,0-0.6-0.1c-0.2-0.1-0.4-0.3-0.5-0.5c-0.1-0.3,0-0.6,0-0.9
		c0.1-0.5,0.4-1.1,0.9-1.7c0.6-0.6,1.3-1,1.9-1.2c0.3-0.1,0.6-0.1,0.9,0.1c0.1,0.1,0.3,0.2,0.3,0.4C189.8,20,189.8,20.2,189.8,20.4"
		/>
	<path style="clip-path:url(#SVGID_00000070817475881625811530000006059982223965412225_);fill:#1749B3;" d="M205.9,19.4
		c0.1,0.2,0,0.4-0.2,0.5c-0.2,0.1-0.4,0-0.5-0.2c0,0,0,0,0,0c0,0,0,0-0.1,0c-0.1,0-0.4,0.1-0.7,0.3c-0.6,0.4-1.2,1.2-1.6,1.9
		c-0.3,0.5-0.4,0.9-0.5,1.3c-0.1,0.3,0,0.5,0,0.6c0.1,0.1,0.1,0.1,0.3,0.1c0.1,0,0.3,0,0.5-0.1c1.1-0.4,2.6-2.5,4-4.3
		c0.6-0.9,1.1-1.6,1.5-2.2c0.2-0.3,0.3-0.6,0.3-0.7c0,0,0,0,0,0c0,0,0,0.2,0,0.1c0,0,0.1,0.1,0,0.1c0,0,0.1,0.1,0.1,0.1
		c0,0,0.2,0.1,0.1,0.1c-0.1,0,0.2,0,0.2,0c0,0,0.1,0,0.1,0c0,0,0,0,0,0c-0.3,0.2-0.7,0.9-1.2,1.6c-0.7,1-1.3,2.3-1.7,3.4
		c-0.2,0.5-0.3,1-0.3,1.4c0,0.4,0,0.6,0.1,0.7c0,0,0.1,0.1,0.1,0.1c0.1,0,0.1,0,0.3,0c0.3-0.1,0.7-0.3,1.3-0.7
		c0.2-0.1,0.4-0.1,0.6,0.1c0.1,0.2,0.1,0.4-0.1,0.6c-0.6,0.4-1.1,0.7-1.6,0.8c-0.2,0-0.5,0.1-0.7,0c-0.2-0.1-0.4-0.2-0.5-0.4
		c-0.3-0.3-0.3-0.8-0.3-1.2c0-0.5,0.1-1,0.3-1.6c0.4-1.2,1-2.5,1.8-3.6c0.5-0.8,1-1.4,1.4-1.8c0,0,0.1-0.1,0.2-0.1
		c0.1,0,0.3-0.1,0.5,0c0.2,0.1,0.2,0.3,0.2,0.4c0,0.1,0,0.1,0,0.2c-0.1,0.2-0.2,0.5-0.4,0.9c-0.4,0.6-0.9,1.4-1.5,2.3
		c-0.7,0.9-1.4,1.9-2.2,2.8c-0.7,0.8-1.5,1.6-2.2,1.8c-0.3,0.1-0.6,0.1-0.9,0.1c-0.3,0-0.5-0.2-0.7-0.4c-0.3-0.3-0.4-0.8-0.3-1.3
		c0.1-0.5,0.3-1,0.6-1.5c0.5-0.8,1.2-1.6,1.9-2.1c0.3-0.3,0.7-0.4,1-0.5c0.2,0,0.4,0,0.6,0.1C205.6,19,205.8,19.2,205.9,19.4"/>
	<path style="clip-path:url(#SVGID_00000070817475881625811530000006059982223965412225_);fill:#1749B3;" d="M215.2,19.4
		c0.2,0.1,0.2,0.4,0.1,0.6c-0.1,0.2-0.4,0.2-0.6,0.1c0,0,0,0-0.1,0c-0.1,0-0.3,0.2-0.5,0.3c-0.4,0.3-0.9,0.9-1.2,1.4
		c-0.3,0.4-0.5,0.8-0.5,1.1c0,0.3,0,0.4,0.1,0.5c0.1,0.1,0.4,0.2,0.7,0.1c0.4-0.1,1-0.3,1.7-0.7c0.2-0.1,0.4,0,0.6,0.1
		c0.1,0.2,0,0.4-0.1,0.6c-0.8,0.4-1.4,0.7-2,0.8c-0.5,0.1-1.1,0-1.4-0.3c-0.3-0.3-0.5-0.8-0.4-1.2c0.1-0.5,0.3-1,0.6-1.5
		c0.4-0.6,0.9-1.1,1.4-1.5c0.2-0.2,0.5-0.4,0.8-0.5C214.6,19.2,214.9,19.2,215.2,19.4"/>
	<path style="clip-path:url(#SVGID_00000070817475881625811530000006059982223965412225_);fill:#1749B3;" d="M215.7,20.6
		c0.1,0.2,0,0.4-0.2,0.6c-0.2,0.1-0.4,0-0.6-0.2c0,0,0,0,0,0c0,0,0.1,0,0,0c0,0,0.2,0.1,0.1,0c-0.1,0,0.2,0,0.1,0c0,0,0.1-0.1,0.1,0
		c0,0,0,0,0,0c-0.1,0.1-0.1,0.3-0.1,0.4c0,0.2-0.2,0.4-0.4,0.4c-0.2,0-0.4-0.2-0.4-0.4c0-0.3,0.1-0.5,0.2-0.8
		c0.1-0.1,0.1-0.3,0.4-0.4c0.1-0.1,0.3,0,0.5,0.1C215.6,20.4,215.6,20.5,215.7,20.6"/>
	<path style="clip-path:url(#SVGID_00000070817475881625811530000006059982223965412225_);fill:#1749B3;" d="M222.4,15.5
		c-0.1,0.2-0.3,0.3-0.5,0.2c-0.2-0.1-0.3-0.3-0.2-0.5c0-0.1,0.1-0.2,0.1-0.2c0,0,0,0,0,0c0,0,0,0.1,0,0c0,0,0,0.1,0,0.1
		c0,0,0.1,0.2,0.1,0.1c0,0,0.2,0.1,0.1,0.1c-0.1,0,0.2,0,0.2,0c0,0,0.1,0,0.1,0c0,0,0,0,0,0c-0.2,0.1-0.5,0.5-0.9,1
		c-0.4,0.5-0.8,1.1-1.2,1.7c-0.6,0.9-1,1.8-1.3,2.6c-0.1,0.5-0.2,0.8-0.2,1.1c0,0.2,0.1,0.4,0.1,0.4c0.1,0.1,0.3,0.1,0.6,0.1
		c0.3,0,0.8-0.1,1.3-0.4c0.2-0.1,0.4,0,0.5,0.2c0.1,0.2,0,0.4-0.2,0.5c-0.6,0.2-1.1,0.4-1.5,0.4c-0.4,0-0.8,0-1.1-0.3
		c-0.3-0.2-0.4-0.6-0.4-1c0-0.4,0.1-0.9,0.2-1.4c0.3-0.9,0.7-1.9,1.4-2.8c0.4-0.6,0.9-1.2,1.3-1.7c0.4-0.5,0.7-0.9,1-1.1
		c0.1-0.1,0.1-0.1,0.2-0.2c0.1,0,0.1-0.1,0.3,0c0.1,0,0.3,0.2,0.3,0.3c0.1,0.2,0,0.3,0,0.4C222.5,15.3,222.4,15.4,222.4,15.5"/>
	<path style="clip-path:url(#SVGID_00000070817475881625811530000006059982223965412225_);fill:#1749B3;" d="M226.2,19.6
		c-0.1,0.2-0.4,0.2-0.6,0.1c-0.2-0.1-0.2-0.4-0.1-0.6c0.3-0.3,0.3-0.6,0.3-0.8c0-0.2-0.1-0.2-0.2-0.3c-0.1,0-0.2,0-0.4,0.1
		c-0.2,0.1-0.4,0.3-0.5,0.5c-0.1,0.1-0.1,0.2,0,0.4c0.1,0.4,0.9,0.9,1.2,1.8c0.3,0.6,0.1,1.4-0.2,1.9c-0.3,0.4-0.8,0.7-1.3,0.6
		c-0.2,0-0.5-0.1-0.7-0.3c-0.2-0.2-0.4-0.4-0.4-0.7c-0.1-0.2,0.1-0.4,0.3-0.5c0.2-0.1,0.4,0.1,0.5,0.3c0,0.2,0.1,0.3,0.2,0.3
		c0.1,0.1,0.1,0.1,0.2,0.1c0.2,0,0.4-0.1,0.6-0.3c0.2-0.3,0.3-0.8,0.1-1.1c-0.2-0.5-1-1-1.3-1.9c-0.1-0.3-0.1-0.7,0.1-1
		c0.2-0.3,0.5-0.6,0.8-0.8c0.3-0.2,0.7-0.3,1.1-0.2c0.4,0.1,0.7,0.5,0.8,0.9C226.7,18.6,226.5,19.1,226.2,19.6"/>
	<path style="clip-path:url(#SVGID_00000070817475881625811530000006059982223965412225_);fill:#1749B3;" d="M234.4,19.4
		c-0.1,0.2-0.3,0.3-0.5,0.2c-0.2-0.1-0.3-0.3-0.2-0.5c0-0.1,0-0.1,0-0.1c0,0-0.1-0.1-0.2-0.2c-0.2-0.1-0.6-0.2-0.9-0.2
		c-0.3,0-0.7,0.1-0.9,0.2c-0.2,0.1-0.4,0.3-0.4,0.4c0,0.1,0,0.2,0,0.3c0,0.1,0.6,0.4,1,0.8c0.2,0.2,0.4,0.4,0.4,0.6
		c0.1,0.3,0.1,0.7-0.1,0.9c-0.1,0.3-0.3,0.5-0.6,0.7c-0.2,0.2-0.5,0.4-0.9,0.5c-0.3,0.1-0.7,0.1-1-0.1c-0.2-0.1-0.3-0.3-0.2-0.5
		c0.1-0.2,0.3-0.3,0.5-0.2c0.1,0.1,0.3,0.1,0.5,0c0.2,0,0.4-0.2,0.5-0.3c0.2-0.1,0.3-0.3,0.4-0.5c0.1-0.1,0.1-0.3,0-0.3
		c0-0.1-0.1-0.2-0.2-0.3c-0.3-0.3-1-0.5-1.3-1.2c-0.1-0.3-0.1-0.6,0-0.8c0.1-0.4,0.4-0.7,0.8-0.9c0.4-0.2,0.8-0.3,1.3-0.3
		c0.5,0,1,0.1,1.4,0.4c0.2,0.1,0.4,0.3,0.5,0.5C234.4,18.9,234.5,19.2,234.4,19.4"/>
	<path style="clip-path:url(#SVGID_00000070817475881625811530000006059982223965412225_);fill:#1749B3;" d="M233.7,30.2
		c-0.2,0.1-0.4,0.1-0.6-0.1c-0.1-0.2-0.1-0.4,0.1-0.6c0,0-0.1,0,0,0c0,0-0.1,0.1-0.1,0.1c0,0,0,0,0,0c0,0,0,0,0-0.1
		c0.1-0.3,0.3-1,0.6-1.7c0.4-1.2,0.8-2.6,1.3-4.1c0.5-1.4,1-2.6,1.6-3.7c0.8-1.3,1.7-2.1,2.5-2.3c0.2-0.1,0.4-0.1,0.6-0.1
		c0.2,0,0.4,0.1,0.6,0.3c0.3,0.3,0.4,0.8,0.4,1.3c0,0.5,0,1-0.1,1.6c-0.1,0.5-0.3,1-0.5,1.4c-0.1,0.2-0.2,0.4-0.4,0.5
		c-0.2,0.1-0.4,0.3-0.6,0.3c-0.2,0-0.4-0.2-0.4-0.4c0-0.2,0.2-0.4,0.4-0.4c0,0,0,0,0.1-0.1c0.1-0.1,0.2-0.2,0.2-0.3
		c0.2-0.3,0.3-0.7,0.4-1.2c0.1-0.5,0.1-0.9,0.1-1.3c0-0.4-0.1-0.7-0.2-0.8c0,0,0,0-0.1-0.1c-0.1,0-0.2,0-0.3,0
		c-0.5,0.1-1.4,0.7-2,1.9c-0.6,1-1.1,2.2-1.6,3.5c-0.5,1.4-0.9,2.9-1.3,4c-0.2,0.7-0.4,1.4-0.6,1.8C233.8,30,233.9,30,233.7,30.2
		C233.7,30.2,233.7,30.2,233.7,30.2 M236.1,21.5c0.1-0.2,0.4-0.2,0.6-0.1c0.2,0.1,0.2,0.4,0.1,0.6c-0.2,0.3-0.6,1.1-1.1,2.2
		c-0.4,0.9-0.8,2-1.2,3c-0.3,0.8-0.5,1.6-0.6,2.1c-0.1,0.3-0.1,0.4-0.1,0.5c0,0,0,0,0,0c0,0,0-0.1,0,0c0,0,0-0.1,0,0
		c0,0,0-0.1,0-0.1c0.1,0.2,0,0.4-0.2,0.5s-0.4,0-0.5-0.2c-0.1-0.1,0-0.2,0-0.2c0,0,0-0.1,0-0.1c0-0.1,0.1-0.3,0.1-0.5
		c0.1-0.5,0.3-1.3,0.6-2.2c0.4-1,0.8-2.1,1.2-3.1C235.4,22.8,235.8,22,236.1,21.5"/>
	<path style="clip-path:url(#SVGID_00000070817475881625811530000006059982223965412225_);fill:#1749B3;" d="M247,19.9
		c0,0.2-0.3,0.4-0.5,0.3c-0.2,0-0.4-0.3-0.3-0.5c0-0.2,0-0.3,0-0.4c0,0,0-0.1-0.2-0.1c-0.2,0-0.4-0.1-0.6,0c-0.5,0.1-1.3,1-1.8,1.8
		c-0.2,0.4-0.4,0.7-0.4,0.9c0,0.2,0,0.3,0,0.3c0,0,0,0,0,0c0.1,0,0.5-0.1,0.8-0.2c0.2-0.1,0.5-0.4,0.8-0.7c0.2-0.2,0.4-0.4,0.6-0.5
		c0.1-0.1,0.2-0.1,0.3-0.2c0,0,0.1,0,0.2-0.1c0.1,0,0.2,0,0.3,0.1c0.2,0.1,0.2,0.3,0.2,0.4c0,0.1,0,0.1,0,0.2c0,0.1-0.1,0.2-0.1,0.3
		c-0.1,0.3-0.2,0.5-0.3,0.8c0,0.2,0,0.4,0,0.4c0,0,0,0,0.1,0c0.1,0,0.3,0,0.5,0c0.2-0.1,0.4,0.1,0.5,0.3s-0.1,0.4-0.3,0.5
		c-0.3,0.1-0.5,0.1-0.8,0.1c-0.2,0-0.5-0.1-0.6-0.3c-0.3-0.3-0.2-0.7-0.2-1.1c0.1-0.3,0.2-0.7,0.3-0.9c0-0.1,0.1-0.2,0.1-0.3
		c0,0,0,0,0,0c0,0,0,0.1,0,0.1c0,0,0.1,0.1,0,0.1c0,0,0.2,0.2,0.1,0.1c0,0,0.2,0.1,0.1,0.1c0,0,0.1,0,0.1,0c0,0,0.1,0,0.1,0
		c0,0-0.1,0-0.1,0.1c-0.1,0.1-0.3,0.2-0.5,0.4c-0.2,0.2-0.5,0.6-1,0.8c-0.4,0.2-0.8,0.4-1.3,0.3c-0.3,0-0.5-0.3-0.6-0.5
		c-0.1-0.2-0.1-0.5-0.1-0.7c0.1-0.4,0.2-0.8,0.5-1.2c0.5-0.8,1.3-1.9,2.3-2.1c0.4-0.1,0.7,0,0.9,0c0.3,0,0.6,0.2,0.8,0.5
		C247.1,19.2,247.1,19.5,247,19.9"/>
	<path style="clip-path:url(#SVGID_00000070817475881625811530000006059982223965412225_);fill:#1749B3;" d="M251.6,19.3
		c0.1-0.2,0.3-0.3,0.5-0.2c0.2,0.1,0.3,0.3,0.2,0.5c-0.2,0.4-0.5,1-0.7,1.6c-0.2,0.3-0.4,0.7-0.5,0.9c-0.1,0.2-0.2,0.3-0.2,0.4
		c0,0,0,0,0,0.1c0,0,0,0,0,0c0,0,0-0.1,0-0.1c0,0-0.1-0.2,0-0.1c0,0.1-0.2-0.2-0.2-0.2c0,0-0.2-0.1-0.1,0c0.1,0-0.2,0-0.1,0
		c0,0-0.1,0-0.1,0c0,0,0,0,0,0c0,0,0.1-0.1,0.1-0.1c0.1-0.1,0.3-0.3,0.4-0.4c0.5-0.5,1.1-1.1,1.7-1.6c0.4-0.3,0.7-0.5,1.1-0.6
		c0.2-0.1,0.5,0,0.7,0.2c0.1,0.2,0.2,0.4,0.2,0.6c0,0.4-0.1,0.8-0.2,1.2c-0.1,0.4-0.2,0.8-0.2,1.1c0,0.1,0,0.3,0,0.3c0,0,0,0,0,0
		c0,0-0.1-0.1,0-0.1c0,0-0.1-0.1-0.1-0.1c0.2,0.1,0.3,0.3,0.2,0.5c-0.1,0.2-0.3,0.3-0.5,0.2c-0.3-0.1-0.3-0.4-0.4-0.6
		c0-0.2,0-0.3,0-0.5c0.1-0.4,0.2-0.8,0.3-1.2c0.1-0.4,0.2-0.8,0.2-1c0,0,0-0.1,0-0.1c0,0,0,0,0,0c0,0,0.2,0.1,0.1,0.1
		c0,0,0.1,0,0.1,0c-0.2,0-0.5,0.2-0.8,0.4c-0.6,0.4-1.2,1.1-1.7,1.6c-0.1,0.1-0.3,0.3-0.4,0.4c-0.1,0.1-0.1,0.1-0.2,0.2
		c0,0-0.1,0.1-0.1,0.1c-0.1,0-0.2,0.1-0.4,0c-0.1-0.1-0.2-0.2-0.2-0.3c0-0.1,0-0.1,0-0.2c0-0.1,0-0.1,0.1-0.2
		c0.1-0.1,0.1-0.3,0.2-0.4c0.1-0.3,0.3-0.6,0.5-0.9C251.2,20.3,251.5,19.7,251.6,19.3"/>
	<path style="clip-path:url(#SVGID_00000070817475881625811530000006059982223965412225_);fill:#1749B3;" d="M259,22.7
		c-0.2,0.1-0.4,0-0.5-0.2c-0.1-0.2,0-0.4,0.2-0.5c0,0-0.1,0-0.1,0c0,0-0.1,0.1-0.1,0c0,0,0,0,0,0c0.2-0.2,0.6-0.8,1-1.4
		c0.6-0.7,1.2-1.2,1.8-1.5c0.4-0.2,0.8-0.3,1.1-0.2c0.3,0.1,0.4,0.4,0.5,0.6c0,0.2,0,0.4,0,0.7c-0.1,0.5-0.2,1-0.3,1.4
		c-0.1,0.5-0.1,0.9-0.1,1c0,0,0,0,0,0c0,0-0.1,0-0.1,0c0,0,0.1,0,0.2-0.1c0.2-0.1,0.4,0,0.5,0.2c0.1,0.2,0,0.4-0.2,0.5
		c-0.3,0.1-0.5,0.2-0.8,0.1c-0.3-0.1-0.5-0.3-0.5-0.6c-0.1-0.4,0-0.9,0.1-1.4c0.1-0.5,0.2-1,0.3-1.4c0-0.2,0-0.3,0-0.4c0,0,0,0,0,0
		c0,0,0.1,0.1,0.1,0.1c0,0-0.2,0-0.5,0.1c-0.5,0.2-1.1,0.7-1.5,1.3c-0.4,0.5-0.8,1.1-1.1,1.4C259.2,22.6,259.1,22.6,259,22.7
		C259,22.6,259,22.7,259,22.7 M259,20.1c-0.2-0.1-0.2-0.4,0-0.6c0.1-0.2,0.4-0.2,0.6,0c0.3,0.2,0.3,0.6,0.3,0.9
		c0,0.3-0.1,0.6-0.2,0.9c-0.1,0.3-0.2,0.6-0.3,0.8c0,0.1-0.1,0.2-0.1,0.3c0,0,0,0,0,0c0,0,0,0,0,0c0,0,0-0.2,0-0.1c0,0,0,0,0,0
		c0,0.2-0.2,0.4-0.4,0.4s-0.4-0.2-0.4-0.4c0,0,0,0,0,0c0-0.2,0-0.2,0.1-0.2c0-0.1,0.1-0.2,0.1-0.3c0.1-0.2,0.2-0.5,0.3-0.8
		c0.1-0.3,0.1-0.5,0.1-0.7C259,20.1,259,20.1,259,20.1"/>
	<path style="clip-path:url(#SVGID_00000070817475881625811530000006059982223965412225_);fill:#1749B3;" d="M271,18.7
		c0,0.2-0.1,0.4-0.4,0.5c-0.2,0-0.4-0.1-0.5-0.4c0,0,0,0,0,0c0,0,0.1,0.1,0.1,0.1c0,0,0.1,0.1,0.1,0.1c0,0,0.1,0,0.1,0
		c0,0-0.2,0.1-0.3,0.2c-0.4,0.3-0.8,0.9-1.2,1.5c-0.4,0.6-0.6,1.1-0.7,1.6c-0.1,0.3-0.1,0.6,0,0.8c0,0.1,0.1,0.2,0.3,0.2
		c0.2,0,0.5,0,0.9,0c0.7-0.1,1.4-0.4,1.7-0.7c0.2-0.2,0.4-0.1,0.6,0c0.2,0.2,0.1,0.4,0,0.6c-0.5,0.4-1.3,0.7-2.1,0.9
		c-0.4,0.1-0.8,0.1-1.2,0c-0.4-0.1-0.8-0.3-0.9-0.7c-0.1-0.4-0.1-0.8,0-1.2c0.1-0.6,0.4-1.3,0.8-1.9c0.4-0.6,0.9-1.2,1.4-1.6
		c0.2-0.2,0.4-0.4,0.7-0.4c0.1,0,0.4,0,0.5,0.1C270.9,18.4,270.9,18.5,271,18.7"/>
	<path style="clip-path:url(#SVGID_00000070817475881625811530000006059982223965412225_);fill:#1749B3;" d="M271,19.5
		c0,0.2-0.2,0.4-0.5,0.4c-0.2,0-0.4-0.2-0.4-0.5c0-0.1,0.1-0.2,0.2-0.3c0.1-0.1,0.2-0.1,0.2-0.2c0.1-0.1,0.3-0.1,0.4-0.1
		c0.3,0,0.5,0.2,0.6,0.4c0.1,0.2,0.1,0.4,0.1,0.6c0,0.3-0.2,0.5-0.4,0.6c-0.2,0.1-0.4,0.2-0.6,0.3c-0.4,0.1-0.8,0.2-1.2,0
		c-0.2-0.1-0.3-0.4-0.2-0.6c0.1-0.2,0.4-0.3,0.6-0.2c0,0,0.3,0,0.6-0.1c0.1,0,0.3-0.1,0.3-0.2c0,0,0.1,0,0.1,0c0,0,0,0.1,0,0.1
		c0,0,0-0.1,0-0.1c0,0,0,0,0,0c0,0,0.1,0,0.1,0c0,0-0.1,0-0.1,0c0,0,0.1-0.1,0,0C270.9,19.6,271,19.4,271,19.5"/>
	<path style="clip-path:url(#SVGID_00000070817475881625811530000006059982223965412225_);fill:#1749B3;" d="M186.5,1.1
		c-0.2,0.1-0.4,0-0.6-0.1c-0.1-0.2,0-0.4,0.1-0.6c0.1,0,0.2-0.1,0.3-0.1c0.1,0,0.3,0.1,0.3,0.1c0.2,0.2,0.2,0.3,0.2,0.4
		c0,0.2,0,0.5-0.1,0.8c-0.2,1.1-0.7,2.8-1,4.4c-0.2,0.7-0.3,1.4-0.5,2.1c-0.1,0.5-0.2,0.9-0.2,1.3c0,0.2,0,0.5,0,0.6c0,0,0,0,0,0
		c0,0-0.1-0.1,0-0.1c0,0-0.2-0.1-0.2-0.1c0.1,0-0.2,0-0.2,0c0,0,0,0,0-0.1c0.2-0.2,0.4-0.7,0.7-1.1c0.5-0.7,1.1-1.5,1.7-2.3
		c0.8-1.1,1.6-1.9,2.3-2.6c0.7-0.6,1.2-1.1,1.7-1.3c0.2-0.1,0.4,0,0.6,0.2c0.1,0.2,0,0.4-0.2,0.6c-0.4,0.2-0.9,0.6-1.6,1.2
		c-0.7,0.6-1.4,1.4-2.2,2.5c-0.6,0.8-1.2,1.6-1.7,2.3c-0.2,0.3-0.4,0.6-0.5,0.9c-0.2,0.3-0.3,0.5-0.6,0.6c-0.1,0-0.2,0-0.3,0
		c-0.1,0-0.2-0.1-0.3-0.2c-0.1-0.1-0.1-0.3-0.2-0.4c0-0.2,0-0.5,0-0.7c0-0.4,0.1-0.9,0.2-1.4c0.1-0.6,0.3-1.4,0.5-2.1
		c0.4-1.6,0.8-3.3,1-4.4C186,1.3,186,1.1,186,1c0,0,0,0,0,0c0,0,0,0.1,0,0c0,0,0.1,0.1,0.1,0.1c0,0,0.2,0.1,0.1,0.1c0,0,0.2,0,0.1,0
		C186.3,1.2,186.5,1.2,186.5,1.1C186.4,1.2,186.5,1.1,186.5,1.1"/>
	<path style="clip-path:url(#SVGID_00000070817475881625811530000006059982223965412225_);fill:#1749B3;" d="M188.3,6.9
		c0-0.2,0.2-0.4,0.4-0.4c0.2,0,0.4,0.2,0.4,0.4c0,0.6-0.1,1.2-0.1,1.8c0,0.3,0,0.5,0.1,0.7c0.1,0.2,0.2,0.3,0.4,0.4
		c0.2,0.1,0.3,0.4,0.2,0.6c-0.1,0.2-0.4,0.3-0.6,0.2c-0.4-0.2-0.6-0.5-0.8-0.8c-0.1-0.3-0.2-0.7-0.2-1
		C188.2,7.9,188.3,7.3,188.3,6.9"/>
	<path style="clip-path:url(#SVGID_00000070817475881625811530000006059982223965412225_);fill:#1749B3;" d="M197.1,5.9
		c0.1,0.2,0,0.4-0.2,0.5c-0.2,0.1-0.4,0-0.5-0.2c-0.1-0.2-0.2-0.4-0.3-0.4c-0.2,0-0.3-0.1-0.5,0c-0.7,0.1-1.9,1.4-2.4,2.2
		C193,8.1,193,8.2,193,8.3c0,0,0,0,0,0c0,0,0-0.1,0-0.1c0,0,0,0,0,0c0,0,0.1,0,0.2,0c0.3,0,0.9-0.2,1.4-0.5c0.8-0.3,1.4-0.7,2-0.9
		c0.2,0,0.4,0,0.6,0.1c0.2,0.1,0.3,0.3,0.3,0.4c0.1,0.4,0,0.8,0,1.1c0,0,0,0,0,0c0,0-0.1-0.1,0-0.1c0,0-0.2-0.1-0.1-0.1
		c0.1,0-0.1,0-0.1,0c0,0,0,0,0,0c0,0,0.1,0,0.2-0.1c0.2-0.1,0.4-0.1,0.6,0.1c0.1,0.2,0.1,0.4-0.1,0.6c-0.1,0.1-0.2,0.2-0.3,0.2
		c-0.1,0.1-0.3,0.1-0.4,0c-0.2-0.1-0.3-0.2-0.3-0.3c0-0.1,0-0.2,0-0.3c0-0.3,0.1-0.7,0-0.8c0,0,0.1,0.1,0,0c0,0,0.1,0,0,0
		c-0.4,0.1-1.1,0.5-1.9,0.8c-0.6,0.2-1.2,0.5-1.8,0.5c-0.2,0-0.3,0-0.5-0.1c-0.2-0.1-0.3-0.2-0.4-0.3c-0.1-0.2-0.1-0.4,0-0.6
		c0.1-0.2,0.1-0.3,0.2-0.5c0.3-0.5,0.7-1,1.2-1.5c0.5-0.5,1.1-0.9,1.7-1c0.3-0.1,0.7,0,0.9,0.1C196.8,5.2,197,5.6,197.1,5.9"/>
	<path style="clip-path:url(#SVGID_00000070817475881625811530000006059982223965412225_);fill:#1749B3;" d="M204.3,1.5
		c0.2-0.1,0.4,0,0.6,0.2c0.1,0.2,0,0.4-0.2,0.6c-0.2,0.1-0.9,1-1.5,2c-0.6,1-1.2,2-1.5,2.9c-0.2,0.5-0.2,0.9-0.1,1.2
		c0.1,0.2,0.2,0.3,0.4,0.4c0.3,0,0.7,0,1.2-0.2c0.6-0.2,1.2-0.7,2-1.2c0.2-0.1,0.4-0.1,0.6,0.1c0.1,0.2,0.1,0.4-0.1,0.6
		c-1.5,1.2-2.8,1.8-3.8,1.6c-0.5-0.1-0.9-0.5-1-0.9c-0.1-0.5-0.1-1,0.1-1.7c0.3-1,0.9-2,1.6-3c0.3-0.5,0.7-1,1-1.4
		C203.8,1.9,204,1.6,204.3,1.5"/>
	<path style="clip-path:url(#SVGID_00000070817475881625811530000006059982223965412225_);fill:#1749B3;" d="M210.3,0.2
		c0.1-0.2,0.4-0.2,0.6-0.1c0.2,0.1,0.2,0.4,0.1,0.6c-0.1,0.2-0.4,0.7-0.8,1.4c-0.4,0.7-0.9,1.6-1.3,2.6c-0.4,0.9-0.8,1.9-1,2.7
		c-0.2,0.6-0.3,1.2-0.3,1.6c0,0.2,0,0.3,0,0.3c0,0-0.1-0.1-0.1-0.1c0,0-0.2-0.1-0.1-0.1c0,0-0.1,0-0.1,0c0,0,0,0,0,0
		c0.2-0.1,0.8-0.9,1.4-1.7c0.7-0.9,1.6-1.8,2.3-2.5c0.4-0.4,0.7-0.7,1.1-1c0.3-0.2,0.8-0.3,1.2-0.2c0.2,0.1,0.3,0.3,0.2,0.5
		c-0.1,0.2-0.3,0.3-0.5,0.2c-0.1,0-0.2,0-0.4,0.1c-0.2,0.2-0.6,0.5-0.9,0.9c-0.7,0.7-1.5,1.6-2.2,2.5c-0.6,0.7-1,1.5-1.7,1.9
		c-0.1,0.1-0.3,0.1-0.5,0.1c-0.2,0-0.3-0.2-0.4-0.3c-0.1-0.2-0.1-0.4-0.1-0.7c0-0.5,0.1-1.1,0.3-1.8c0.2-0.9,0.6-1.9,1-2.8
		c0.4-1,0.9-1.9,1.3-2.6C209.8,0.9,210.1,0.4,210.3,0.2"/>
	<path style="clip-path:url(#SVGID_00000070817475881625811530000006059982223965412225_);fill:#1749B3;" d="M212,6.9
		c0.2-0.1,0.4-0.1,0.6,0.1c0.1,0.2,0.1,0.4-0.1,0.6c0,0-0.1,0.1-0.1,0.3c0,0.2,0,0.4,0,0.7c0.1,0.2,0.2,0.4,0.3,0.6
		c0.2,0.2,0.4,0.3,0.7,0.3c0.2,0,0.4,0.2,0.4,0.4c0,0.2-0.2,0.4-0.4,0.4c-0.5,0-0.9-0.2-1.2-0.5c-0.3-0.3-0.5-0.6-0.5-1
		c-0.1-0.3-0.1-0.7,0-1C211.6,7.4,211.7,7.1,212,6.9"/>
	<path style="clip-path:url(#SVGID_00000070817475881625811530000006059982223965412225_);fill:#1749B3;" d="M216.3,9.6
		c0.2,0,0.4,0.3,0.3,0.5c0,0.2-0.3,0.4-0.5,0.3c-0.1,0-0.1,0-0.2,0c-0.2,0-0.4-0.3-0.3-0.5c0-0.2,0.3-0.4,0.5-0.3
		C216.2,9.6,216.2,9.6,216.3,9.6"/>
	<path style="clip-path:url(#SVGID_00000070817475881625811530000006059982223965412225_);fill:#1749B3;" d="M229.1,2.7
		C229,2.9,228.8,3,228.6,3c-0.2-0.1-0.3-0.3-0.3-0.5c0.1-0.3,0.3-0.4,0.5-0.6c0.2-0.1,0.4-0.2,0.7-0.2c0.5-0.1,1,0,1.5,0.1
		c0.6,0.2,1.1,0.6,1.4,1.2c0.2,0.4,0.2,0.9-0.1,1.3c-0.5,1.1-2,1.7-3,2.7c-0.9,0.9-1.4,1.9-1.4,2.6c0,0.2,0,0.3,0.1,0.3
		c0.1,0.1,0.3,0.1,0.6,0c0.6-0.1,1.3-0.7,1.7-1.5c0.1-0.2,0.3-0.3,0.5-0.2s0.3,0.3,0.2,0.5c-0.5,1.1-1.4,1.8-2.2,2
		c-0.4,0.1-0.8,0.1-1.2-0.1c-0.4-0.2-0.6-0.6-0.5-1.1c0.1-0.9,0.6-2.1,1.7-3.1c1.1-1,2.5-1.8,2.8-2.4c0.1-0.2,0.1-0.5,0-0.6
		c-0.1-0.3-0.5-0.5-0.9-0.7c-0.4-0.1-0.8-0.2-1.1-0.1c-0.2,0-0.3,0.1-0.4,0.1C229.1,2.6,229.1,2.7,229.1,2.7"/>
	<path style="clip-path:url(#SVGID_00000070817475881625811530000006059982223965412225_);fill:#1749B3;" d="M229.5,6.1
		c0.2,0,0.4,0.2,0.4,0.4c0,0.2-0.2,0.4-0.4,0.4c-0.3,0-0.6,0-0.9-0.1c-0.1,0-0.2,0-0.2,0c0,0,0,0,0,0c0,0,0.1-0.1,0,0
		c0,0,0.1-0.1,0-0.1c0,0,0.1-0.2,0.1-0.1c0,0.1,0-0.2,0-0.2c0,0.1-0.1-0.2-0.1-0.2c0,0-0.1-0.1-0.1,0c0,0,0,0,0,0c0.1,0,0.1,0,0.2,0
		c0.3,0,0.6,0,1,0c0.8,0,1.6-0.1,2.3-0.3c0.2-0.1,0.4,0.1,0.5,0.3c0.1,0.2-0.1,0.4-0.3,0.5c-0.7,0.2-1.6,0.3-2.4,0.3
		c-0.4,0-0.8,0-1.1,0c-0.3,0-0.5,0-0.8-0.3c-0.1-0.1-0.1-0.3-0.1-0.4c0-0.1,0.1-0.2,0.1-0.2c0.1-0.1,0.2-0.1,0.2-0.1
		c0.2-0.1,0.3-0.1,0.6-0.1C229.1,6.1,229.4,6.1,229.5,6.1"/>
	<path style="clip-path:url(#SVGID_00000070817475881625811530000006059982223965412225_);fill:#1749B3;" d="M235.7,5
		c0.1-0.2,0.4-0.2,0.6-0.1c0.2,0.1,0.2,0.4,0.1,0.6c-0.3,0.3-1,1.3-1.4,2c-0.2,0.3-0.3,0.5-0.3,0.6c0,0-0.1-0.2,0-0.2
		c0,0.1-0.2-0.2-0.1-0.1c0,0-0.1,0-0.1,0c0,0,0,0,0,0c0,0,0.1,0,0.3,0c0.3-0.1,0.7-0.2,1-0.3c0.6-0.2,1.2-0.4,1.6-0.5
		c0.2,0,0.5-0.1,0.8,0c0.2,0.1,0.3,0.2,0.3,0.4c0,0.1,0,0.2,0,0.3c0,0.2,0,0.4-0.1,0.5c0,0.3-0.1,0.5-0.1,0.6c0,0,0,0,0,0
		c0,0,0-0.1,0-0.1c0,0-0.1-0.1-0.1-0.1c0,0,0,0,0,0c0.2,0,0.4,0.2,0.3,0.5c0,0.2-0.2,0.4-0.5,0.3c-0.2,0-0.4-0.1-0.5-0.3
		c-0.1-0.2-0.1-0.4-0.1-0.5c0-0.3,0.1-0.5,0.1-0.7c0-0.1,0-0.3,0-0.4c0,0,0-0.1,0-0.1c0,0,0.1,0.1,0,0.1c0,0,0.2,0.1,0.1,0.1
		c0,0,0,0,0,0c-0.1,0-0.2,0-0.3,0c-0.4,0.1-0.9,0.3-1.5,0.5c-0.4,0.2-0.8,0.3-1.2,0.4c-0.2,0-0.3,0.1-0.5,0c-0.1,0-0.2,0-0.3-0.1
		c-0.1-0.1-0.2-0.3-0.2-0.5c0-0.3,0.2-0.6,0.4-0.9C234.7,6.3,235.5,5.3,235.7,5"/>
	<path style="clip-path:url(#SVGID_00000070817475881625811530000006059982223965412225_);fill:#1749B3;" d="M246.7,4.7
		c-0.1,0.2-0.3,0.3-0.5,0.2c-0.2-0.1-0.3-0.3-0.2-0.5c0,0,0,0,0,0c0,0,0,0.1,0,0.1c0,0,0,0,0,0c-0.1,0-0.3,0-0.6,0
		c-0.3,0.1-0.6,0.4-0.8,0.7c-0.1,0.2-0.2,0.4-0.1,0.7c0.1,0.2,0.4,0.5,0.7,0.9c0.2,0.3,0.3,0.6,0.3,0.8c0.1,0.6-0.2,1.1-0.6,1.4
		c-0.2,0.2-0.5,0.4-0.9,0.4c-0.3,0-0.6,0-0.9-0.1c-0.3-0.1-0.5-0.4-0.6-0.7c-0.1-0.3-0.1-0.7,0.1-1.2c0.1-0.2,0.3-0.3,0.5-0.2
		c0.2,0.1,0.3,0.3,0.2,0.5c-0.1,0.3-0.1,0.5-0.1,0.6c0,0.1,0.1,0.2,0.2,0.2c0.1,0.1,0.3,0.1,0.4,0.1c0.2,0,0.3-0.1,0.4-0.2
		c0.2-0.2,0.4-0.5,0.3-0.7c0-0.2-0.1-0.3-0.2-0.5c-0.2-0.3-0.6-0.6-0.8-1.1c-0.1-0.4-0.1-0.9,0.2-1.3c0.3-0.4,0.7-0.9,1.3-1.1
		c0.4-0.1,0.7-0.1,1.1,0c0.2,0.1,0.4,0.2,0.5,0.4C246.8,4.2,246.8,4.5,246.7,4.7"/>
	<path style="clip-path:url(#SVGID_00000070817475881625811530000006059982223965412225_);fill:#1749B3;" d="M249.9,5.4
		c0.2,0,0.4,0.1,0.4,0.4c0,0.2-0.1,0.4-0.4,0.4c0,0-0.2,0.1-0.4,0.2c-0.2,0.2-0.4,0.4-0.6,0.7c-0.2,0.3-0.5,0.6-0.5,0.8
		c0,0,0,0.1,0,0.1c0,0,0-0.1,0,0c0,0-0.1,0-0.1,0c0,0,0,0,0.1,0c0.7-0.2,1.9-1.6,3.2-3c0.9-1,1.7-2,2.3-2.9c0.3-0.5,0.6-0.9,0.7-1.1
		c0-0.1,0.1,0,0-0.1c0,0,0.1,0,0.1,0c0,0-0.2,0.1-0.4,0.4c-0.2,0.3-0.4,0.6-0.6,0.9c-0.3,0.6-0.3,1.4-0.3,2.2c0,0.9,0,2,0,2.9
		c0,0.4-0.1,0.8-0.1,1.2c-0.1,0.3-0.1,0.6-0.5,0.8c-0.2,0.1-0.4,0-0.6-0.1c-0.1-0.2,0-0.4,0.1-0.6c0,0,0,0,0,0c0,0,0.1-0.1,0.1-0.3
		c0.1-0.3,0.1-0.6,0.1-1c0.1-0.9,0-1.9,0-2.8c0-0.8,0-1.8,0.4-2.6c0.2-0.3,0.4-0.7,0.7-1c0.3-0.3,0.5-0.6,0.9-0.7
		c0.3-0.1,0.6,0.1,0.7,0.3c0.2,0.2,0.2,0.6,0.1,0.8c-0.1,0.4-0.4,0.8-0.8,1.3c-0.6,0.9-1.4,1.9-2.3,2.9c-0.6,0.7-1.3,1.4-1.9,2
		c-0.6,0.6-1.1,1-1.7,1.2c-0.2,0.1-0.3,0.1-0.5,0.1c-0.2,0-0.3-0.1-0.4-0.2c-0.2-0.3-0.2-0.6-0.1-0.8c0.1-0.4,0.4-0.7,0.6-1
		c0.2-0.3,0.4-0.6,0.7-0.8C249.3,5.7,249.6,5.5,249.9,5.4"/>
	<path style="clip-path:url(#SVGID_00000070817475881625811530000006059982223965412225_);fill:#1749B3;" d="M261.1,0.9
		c0.2,0.2,0.2,0.4,0,0.6s-0.4,0.2-0.6,0c0,0,0.1,0.1,0.1,0.1c0,0,0.1,0,0.1,0c0,0,0.1,0,0,0c0,0-0.2,0.1-0.3,0.2
		c-0.3,0.3-0.6,0.7-1.1,1.2c-0.5,0.6-1,1.1-1.4,1.7c-1.1,1.3-1.7,2.6-1.8,3.4c0,0.2,0,0.3,0.1,0.4c0,0.1,0.1,0.1,0.2,0.2
		c0.2,0.1,0.6,0.1,1.3,0c0.2-0.1,0.4,0.1,0.5,0.3c0.1,0.2-0.1,0.4-0.3,0.5c-0.7,0.2-1.4,0.2-1.8,0c-0.2-0.1-0.4-0.3-0.5-0.6
		c-0.1-0.2-0.1-0.5-0.1-0.8c0.1-1.1,0.8-2.4,1.9-3.8c0.5-0.6,1-1.2,1.4-1.7c0.4-0.5,0.8-0.9,1.1-1.3c0.2-0.2,0.3-0.3,0.5-0.4
		c0.1,0,0.2-0.1,0.3-0.1C260.9,0.7,261,0.7,261.1,0.9"/>
	<path style="clip-path:url(#SVGID_00000070817475881625811530000006059982223965412225_);fill:#1749B3;" d="M262.8,6.8
		c0,0.2-0.2,0.4-0.4,0.4c-0.2,0-0.4-0.2-0.4-0.4c0-0.5,0.3-0.6,0.4-0.8c0,0,0,0,0,0c0,0,0,0,0,0c0,0,0,0,0,0c0,0,0.2,0.1,0.1,0.1
		c0,0,0.1,0,0.1,0c0,0,0,0,0,0c0,0-0.1,0.1-0.2,0.1c-0.2,0.2-0.5,0.4-0.7,0.6c-0.2,0.2-0.3,0.4-0.4,0.6c0,0.1,0,0,0,0
		c0,0-0.1-0.1,0-0.1c0,0,0.3-0.1,0.6-0.1c0.3,0,0.6,0,0.9,0.2c0.2,0.1,0.2,0.3,0.3,0.4c0,0.1,0,0.2,0.1,0.2c0,0,0,0,0,0
		c0,0-0.1,0-0.1,0c0.2,0,0.4,0.2,0.4,0.4c0,0.2-0.2,0.4-0.4,0.4c-0.2,0-0.4-0.1-0.5-0.2c-0.1-0.1-0.2-0.2-0.2-0.3
		c0-0.1,0-0.2-0.1-0.2c0,0,0,0,0,0c0,0,0.2,0.1,0.1,0.1c-0.1,0-0.3-0.1-0.5-0.1c-0.2,0-0.5,0.2-1,0c-0.2-0.1-0.4-0.2-0.5-0.4
		c-0.1-0.2,0-0.4,0-0.6c0.1-0.3,0.3-0.6,0.5-0.9c0.2-0.3,0.5-0.5,0.8-0.7c0.1-0.1,0.3-0.2,0.4-0.2c0.1,0,0.2-0.1,0.3-0.1
		c0.1,0,0.3,0,0.4,0.1c0.2,0.1,0.2,0.3,0.3,0.5c0,0.2,0,0.4-0.1,0.6C263,6.6,262.9,6.7,262.8,6.8C262.8,6.8,262.8,6.9,262.8,6.8
		C262.8,6.9,262.8,6.9,262.8,6.8C262.8,6.9,262.8,6.8,262.8,6.8"/>
	<path style="clip-path:url(#SVGID_00000070817475881625811530000006059982223965412225_);fill:#1749B3;" d="M270,5.3
		c0.2,0.1,0.4,0.3,0.3,0.5c-0.1,0.2-0.3,0.4-0.5,0.3c0,0,0,0-0.1,0c-0.1,0.1-0.2,0.2-0.3,0.4c-0.2,0.5-0.4,1.2-0.6,2
		c-0.2,0.8-0.4,1.8-0.6,2.6c-0.3,1.4-0.3,2.4-0.9,3.1c-0.3,0.4-0.8,0.5-1.2,0.7c-0.4,0.1-0.8,0.4-1.3,0.4c-0.3,0-0.6,0.1-0.9,0
		c-0.4-0.1-0.6-0.4-0.8-0.7c-0.1-0.3-0.2-0.6-0.3-0.9c-0.1-0.3-0.2-0.7-0.2-1c0-0.3,0.1-0.7,0.3-1c0.5-0.6,1.5-0.9,3.2-1.2
		c0.2,0,0.4,0.1,0.5,0.3c0,0.2-0.1,0.4-0.3,0.5c-0.8,0.1-1.5,0.3-1.9,0.5c-0.4,0.2-0.7,0.3-0.8,0.5c-0.1,0.1-0.2,0.3-0.2,0.5
		c0,0.2,0.1,0.5,0.1,0.8c0.1,0.3,0.1,0.5,0.2,0.8c0.1,0.2,0.2,0.3,0.2,0.3c0.1,0,0.3,0,0.6,0c0.3-0.1,0.7-0.3,1.2-0.4
		c0.4-0.1,0.7-0.3,0.9-0.4c0.3-0.4,0.5-1.3,0.7-2.7c0.2-0.8,0.4-1.8,0.6-2.6c0.2-0.8,0.4-1.6,0.6-2.1c0.1-0.3,0.3-0.5,0.5-0.7
		C269.4,5.4,269.7,5.2,270,5.3"/>
</g>
</svg>
